Asap-Symbol.ufo
<glyph name="exclam" format="1">
  <advance width="294"/>
  <unicode hex="0021"/>
  <outline>
    <contour>
      <point x="153" y="702" type="line" smooth="yes"/>
      <point x="119" y="702"/>
      <point x="104" y="693"/>
      <point x="104" y="676" type="curve" smooth="yes"/>
      <point x="104" y="237" type="line" smooth="yes"/>
      <point x="104" y="220"/>
      <point x="113" y="211"/>
      <point x="143" y="211" type="curve"/>
      <point x="154" y="211" type="line" smooth="yes"/>
      <point x="184" y="211"/>
      <point x="192" y="220"/>
      <point x="194" y="237" type="curve" smooth="yes"/>
      <point x="206" y="384"/>
      <point x="218" y="531"/>
      <point x="231" y="677" type="curve"/>
      <point x="231" y="693"/>
      <point x="216" y="702"/>
      <point x="183" y="702" type="curve" smooth="yes"/>
    </contour>
    <contour>
      <point x="138" y="128" type="line" smooth="yes"/>
      <point x="104" y="128"/>
      <point x="89" y="119"/>
      <point x="89" y="102" type="curve" smooth="yes"/>
      <point x="89" y="24" type="line" smooth="yes"/>
      <point x="89" y="7"/>
      <point x="104" y="-2"/>
      <point x="138" y="-2" type="curve" smooth="yes"/>
      <point x="161" y="-2" type="line" smooth="yes"/>
      <point x="195" y="-2"/>
      <point x="210" y="7"/>
      <point x="210" y="24" type="curve" smooth="yes"/>
      <point x="210" y="102" type="line" smooth="yes"/>
      <point x="210" y="119"/>
      <point x="195" y="128"/>
      <point x="161" y="128" type="curve" smooth="yes"/>
    </contour>
  </outline>
</glyph>
<glyph name="quotedbl" format="1">
  <advance width="319"/>
  <unicode hex="0022"/>
  <outline>
    <contour>
      <point x="95" y="702" type="line" smooth="yes"/>
      <point x="129" y="702"/>
      <point x="142.99" y="693.001"/>
      <point x="142.99" y="676.001" type="curve" smooth="yes"/>
      <point x="142.99" y="670.961"/>
      <point x="138.29" y="632.391"/>
      <point x="132.93" y="588.351" type="curve" smooth="yes"/>
      <point x="128.71" y="553.73"/>
      <point x="124.08" y="515.73"/>
      <point x="121" y="488" type="curve" smooth="yes"/>
      <point x="118" y="475"/>
      <point x="110" y="469"/>
      <point x="94" y="469" type="curve" smooth="yes"/>
      <point x="85" y="469" type="line" smooth="yes"/>
      <point x="69" y="469"/>
      <point x="60" y="475"/>
      <point x="58" y="488" type="curve" smooth="yes"/>
      <point x="36" y="667" type="line"/>
      <point x="36" y="676" type="line" smooth="yes"/>
      <point x="36" y="693"/>
      <point x="51" y="702"/>
      <point x="85" y="702" type="curve" smooth="yes"/>
    </contour>
    <contour>
      <point x="233.99" y="702.001" type="line" smooth="yes"/>
      <point x="267.99" y="702.001"/>
      <point x="281.99" y="693.002"/>
      <point x="281.99" y="676.002" type="curve" smooth="yes"/>
      <point x="281.99" y="670.962"/>
      <point x="277.29" y="632.392"/>
      <point x="271.92" y="588.352" type="curve" smooth="yes"/>
      <point x="267.7" y="553.731"/>
      <point x="263.07" y="515.731"/>
      <point x="259.99" y="488.001" type="curve" smooth="yes"/>
      <point x="256.99" y="475.001"/>
      <point x="248.99" y="469.001"/>
      <point x="232.99" y="469.001" type="curve" smooth="yes"/>
      <point x="223.99" y="469.001" type="line" smooth="yes"/>
      <point x="207.99" y="469.001"/>
      <point x="198.99" y="475.001"/>
      <point x="196.99" y="488.001" type="curve" smooth="yes"/>
      <point x="174.99" y="667.001" type="line"/>
      <point x="174.99" y="676.001" type="line" smooth="yes"/>
      <point x="174.99" y="693.001"/>
      <point x="189.99" y="702.001"/>
      <point x="223.99" y="702.001" type="curve" smooth="yes"/>
    </contour>
  </outline>
</glyph>
<glyph name="numbersign" format="1">
  <advance width="534"/>
  <unicode hex="0023"/>
  <outline>
    <contour>
      <point x="431" y="686" type="line" smooth="yes"/>
      <point x="395" y="686"/>
      <point x="384" y="677"/>
      <point x="381" y="660" type="curve" smooth="yes"/>
      <point x="353" y="504" type="line"/>
      <point x="245" y="504" type="line"/>
      <point x="275" y="668" type="line"/>
      <point x="275" y="679"/>
      <point x="264" y="686"/>
      <point x="240" y="686" type="curve" smooth="yes"/>
      <point x="232" y="686" type="line" smooth="yes"/>
      <point x="196" y="686"/>
      <point x="186" y="677"/>
      <point x="183" y="660" type="curve" smooth="yes"/>
      <point x="154" y="504" type="line"/>
      <point x="71" y="504" type="line" smooth="yes"/>
      <point x="54" y="504"/>
      <point x="47" y="492"/>
      <point x="47" y="465" type="curve" smooth="yes"/>
      <point x="47" y="451" type="line" smooth="yes"/>
      <point x="47" y="424"/>
      <point x="54" y="413"/>
      <point x="71" y="413" type="curve" smooth="yes"/>
      <point x="138" y="413" type="line"/>
      <point x="114" y="282" type="line"/>
      <point x="35" y="282" type="line" smooth="yes"/>
      <point x="18" y="282"/>
      <point x="11" y="270"/>
      <point x="11" y="243" type="curve" smooth="yes"/>
      <point x="11" y="229" type="line" smooth="yes"/>
      <point x="11" y="202"/>
      <point x="18" y="190"/>
      <point x="35" y="190" type="curve" smooth="yes"/>
      <point x="97" y="190" type="line"/>
      <point x="70" y="45"/>
      <point x="66" y="24"/>
      <point x="66" y="18" type="curve" smooth="yes"/>
      <point x="66" y="3"/>
      <point x="77" y="-2"/>
      <point x="102" y="-2" type="curve" smooth="yes"/>
      <point x="110" y="-2" type="line" smooth="yes"/>
      <point x="144" y="-2"/>
      <point x="154" y="7"/>
      <point x="158" y="24" type="curve" smooth="yes"/>
      <point x="189" y="190" type="line"/>
      <point x="296" y="190" type="line"/>
      <point x="270" y="45"/>
      <point x="265" y="24"/>
      <point x="265" y="18" type="curve" smooth="yes"/>
      <point x="265" y="3"/>
      <point x="276" y="-2"/>
      <point x="301" y="-2" type="curve" smooth="yes"/>
      <point x="309" y="-2" type="line" smooth="yes"/>
      <point x="342" y="-2"/>
      <point x="354" y="7"/>
      <point x="357" y="24" type="curve" smooth="yes"/>
      <point x="387" y="190" type="line"/>
      <point x="466" y="190" type="line" smooth="yes"/>
      <point x="483" y="190"/>
      <point x="490" y="202"/>
      <point x="490" y="229" type="curve" smooth="yes"/>
      <point x="490" y="243" type="line" smooth="yes"/>
      <point x="490" y="270"/>
      <point x="483" y="282"/>
      <point x="466" y="282" type="curve" smooth="yes"/>
      <point x="405" y="282" type="line"/>
      <point x="428" y="413" type="line"/>
      <point x="498" y="413" type="line" smooth="yes"/>
      <point x="515" y="413"/>
      <point x="522" y="424"/>
      <point x="522" y="451" type="curve" smooth="yes"/>
      <point x="522" y="465" type="line" smooth="yes"/>
      <point x="522" y="492"/>
      <point x="515" y="504"/>
      <point x="498" y="504" type="curve" smooth="yes"/>
      <point x="445" y="504" type="line"/>
      <point x="475" y="668" type="line"/>
      <point x="475" y="679"/>
      <point x="463" y="686"/>
      <point x="439" y="686" type="curve" smooth="yes"/>
    </contour>
    <contour>
      <point x="314" y="282" type="line"/>
      <point x="206" y="282" type="line"/>
      <point x="230" y="413" type="line"/>
      <point x="337" y="413" type="line"/>
    </contour>
  </outline>
</glyph>
<glyph name="dollar" format="1">
  <advance width="496"/>
  <unicode hex="0024"/>
  <outline>
<<<<<<< HEAD
    <contour>
      <point x="256" y="762" type="curve" smooth="yes"/>
      <point x="273" y="762"/>
      <point x="280.001" y="756"/>
      <point x="280.001" y="740" type="curve" smooth="yes"/>
      <point x="280.001" y="704" type="line"/>
      <point x="354.001" y="702"/>
      <point x="439.001" y="674"/>
      <point x="439.001" y="642" type="curve" smooth="yes"/>
      <point x="439.001" y="622"/>
      <point x="413.001" y="574"/>
      <point x="397.001" y="574" type="curve" smooth="yes"/>
      <point x="392.581" y="574"/>
      <point x="386.261" y="576.99"/>
      <point x="377.491" y="581.141" type="curve" smooth="yes"/>
      <point x="358.472" y="590.15"/>
      <point x="327.901" y="604.631"/>
      <point x="280.001" y="606.001" type="curve"/>
      <point x="280.001" y="409.001" type="line"/>
      <point x="368.001" y="375.001"/>
      <point x="471.001" y="336.001"/>
      <point x="471.001" y="201.001" type="curve" smooth="yes"/>
      <point x="471.001" y="72.001"/>
      <point x="389.001" y="5.00098"/>
      <point x="280.001" y="-4.99902" type="curve"/>
      <point x="280.001" y="-52.999" type="line" smooth="yes"/>
      <point x="280.001" y="-68.999"/>
      <point x="273.001" y="-74.999"/>
      <point x="257.001" y="-74.999" type="curve" smooth="yes"/>
      <point x="240.001" y="-74.999"/>
      <point x="233.001" y="-68.999"/>
      <point x="233.001" y="-52.999" type="curve" smooth="yes"/>
      <point x="233.001" y="-5.99902" type="line"/>
      <point x="109.001" y="-2.99902"/>
      <point x="28.001" y="43.001"/>
      <point x="28.001" y="73.001" type="curve" smooth="yes"/>
      <point x="28.001" y="95.001"/>
      <point x="59.001" y="142.001"/>
      <point x="75.001" y="142.001" type="curve" smooth="yes"/>
      <point x="79.0312" y="142.001"/>
      <point x="86.4814" y="137.931"/>
      <point x="97.1611" y="132.081" type="curve" smooth="yes"/>
      <point x="123.531" y="117.651"/>
      <point x="169.651" y="92.4209"/>
      <point x="233.001" y="91.001" type="curve"/>
      <point x="233.001" y="308.001" type="line" smooth="yes"/>
      <point x="231.021" y="308.761"/>
      <point x="229.04" y="309.53"/>
      <point x="227.05" y="310.29" type="curve" smooth="yes"/>
      <point x="140.38" y="343.71"/>
      <point x="41" y="382.03"/>
      <point x="41" y="514" type="curve" smooth="yes"/>
      <point x="41" y="626"/>
      <point x="124" y="691"/>
      <point x="233" y="703" type="curve"/>
      <point x="233" y="740" type="line" smooth="yes"/>
      <point x="233" y="756"/>
      <point x="240" y="762"/>
    </contour>
    <contour>
      <point x="233.001" y="602" type="line"/>
      <point x="181.001" y="592"/>
      <point x="157.001" y="560"/>
      <point x="157.001" y="518" type="curve" smooth="yes"/>
      <point x="157.001" y="472"/>
      <point x="189.001" y="448"/>
      <point x="233.001" y="429" type="curve"/>
    </contour>
    <contour>
      <point x="280.001" y="97" type="line"/>
      <point x="324.001" y="108"/>
      <point x="355.001" y="142"/>
      <point x="355.001" y="193" type="curve" smooth="yes"/>
      <point x="355.001" y="241"/>
      <point x="322.001" y="267"/>
      <point x="280.001" y="287" type="curve"/>
    </contour>
  </outline>
</glyph>
<glyph name="percent" format="1">
  <advance width="765"/>
  <unicode hex="0025"/>
  <outline>
    <contour>
      <point x="570" y="704" type="line" smooth="yes"/>
      <point x="550" y="704"/>
      <point x="537" y="697"/>
      <point x="528" y="681" type="curve" smooth="yes"/>
      <point x="162" y="18" type="line"/>
      <point x="159" y="13"/>
      <point x="158" y="9"/>
      <point x="158" y="6" type="curve" smooth="yes"/>
      <point x="158" y="0"/>
      <point x="166" y="-5"/>
      <point x="181" y="-5" type="curve" smooth="yes"/>
      <point x="203" y="-5" type="line" smooth="yes"/>
      <point x="223" y="-5"/>
      <point x="236" y="3"/>
      <point x="244" y="18" type="curve" smooth="yes"/>
      <point x="610" y="681" type="line" smooth="yes"/>
      <point x="613" y="686"/>
      <point x="615" y="690"/>
      <point x="615" y="693" type="curve" smooth="yes"/>
      <point x="615" y="699"/>
      <point x="607" y="704"/>
      <point x="592" y="704" type="curve" smooth="yes"/>
    </contour>
    <contour>
      <point x="128" y="707"/>
      <point x="53" y="678"/>
      <point x="53" y="541" type="curve" smooth="yes"/>
      <point x="53" y="405"/>
      <point x="130" y="377"/>
      <point x="196" y="377" type="curve" smooth="yes"/>
      <point x="260" y="377"/>
      <point x="338" y="405"/>
      <point x="338" y="541" type="curve" smooth="yes"/>
      <point x="338" y="678"/>
      <point x="261" y="707"/>
      <point x="196" y="707" type="curve" smooth="yes"/>
    </contour>
    <contour>
      <point x="251" y="639"/>
      <point x="258" y="585"/>
      <point x="258" y="541" type="curve" smooth="yes"/>
      <point x="258" y="498"/>
      <point x="248" y="444"/>
      <point x="196" y="444" type="curve" smooth="yes"/>
      <point x="142" y="444"/>
      <point x="135" y="498"/>
      <point x="135" y="541" type="curve" smooth="yes"/>
      <point x="135" y="585"/>
      <point x="142" y="639"/>
      <point x="196" y="639" type="curve" smooth="yes"/>
    </contour>
    <contour>
      <point x="506" y="323"/>
      <point x="431" y="294"/>
      <point x="431" y="158" type="curve" smooth="yes"/>
      <point x="431" y="22"/>
      <point x="508" y="-6"/>
      <point x="574" y="-6" type="curve" smooth="yes"/>
      <point x="638" y="-6"/>
      <point x="716" y="22"/>
      <point x="716" y="158" type="curve" smooth="yes"/>
      <point x="716" y="294"/>
      <point x="639" y="323"/>
      <point x="574" y="323" type="curve" smooth="yes"/>
    </contour>
    <contour>
      <point x="629" y="256"/>
      <point x="636" y="201"/>
      <point x="636" y="158" type="curve" smooth="yes"/>
      <point x="636" y="114"/>
      <point x="626" y="60"/>
      <point x="574" y="60" type="curve" smooth="yes"/>
      <point x="520" y="60"/>
      <point x="513" y="114"/>
      <point x="513" y="158" type="curve" smooth="yes"/>
      <point x="513" y="201"/>
      <point x="520" y="256"/>
      <point x="574" y="256" type="curve" smooth="yes"/>
    </contour>
  </outline>
</glyph>
<glyph name="ampersand" format="1">
  <advance width="624"/>
  <unicode hex="0026"/>
  <outline>
<<<<<<< HEAD
    <contour>
      <point x="596" y="89" type="curve" smooth="yes"/>
      <point x="613" y="89"/>
      <point x="620.999" y="39.001"/>
      <point x="620.999" y="31.001" type="curve" smooth="yes"/>
      <point x="620.999" y="-3.99902"/>
      <point x="566.999" y="-6.99902"/>
      <point x="537.999" y="-6.99902" type="curve" smooth="yes"/>
      <point x="499.999" y="-6.99902"/>
      <point x="459.999" y="3.00098"/>
      <point x="432.999" y="35.001" type="curve"/>
      <point x="389.999" y="11.001"/>
      <point x="337.999" y="-6.99902"/>
      <point x="261.999" y="-6.99902" type="curve" smooth="yes"/>
      <point x="147.999" y="-6.99902"/>
      <point x="37.999" y="59.001"/>
      <point x="37.999" y="203.001" type="curve" smooth="yes"/>
      <point x="37.999" y="298.001"/>
      <point x="90.999" y="363.001"/>
      <point x="159.999" y="385.001" type="curve"/>
      <point x="159.999" y="389.001" type="line"/>
      <point x="102.999" y="412.001"/>
      <point x="60.999" y="464.001"/>
      <point x="60.999" y="536.001" type="curve" smooth="yes"/>
      <point x="60.999" y="646.001"/>
      <point x="143.999" y="707.001"/>
      <point x="263.999" y="707.001" type="curve" smooth="yes"/>
      <point x="302.999" y="707.001"/>
      <point x="359.999" y="703.001"/>
      <point x="359.999" y="671.001" type="curve" smooth="yes"/>
      <point x="359.999" y="647.001"/>
      <point x="348.999" y="607.001"/>
      <point x="332.999" y="607.001" type="curve" smooth="yes"/>
      <point x="330.659" y="607.001"/>
      <point x="326.77" y="607.891"/>
      <point x="321.59" y="609.07" type="curve" smooth="yes"/>
      <point x="311.22" y="611.44"/>
      <point x="295.66" y="615"/>
      <point x="277" y="615" type="curve" smooth="yes"/>
      <point x="195" y="615"/>
      <point x="174" y="563"/>
      <point x="174" y="520" type="curve" smooth="yes"/>
      <point x="174" y="470"/>
      <point x="211" y="416"/>
      <point x="294" y="416" type="curve" smooth="yes"/>
      <point x="402" y="416" type="line"/>
      <point x="414" y="516" type="line" smooth="yes"/>
      <point x="416" y="534"/>
      <point x="430" y="543"/>
      <point x="456" y="543" type="curve" smooth="yes"/>
      <point x="475" y="543" type="line" smooth="yes"/>
      <point x="502" y="543"/>
      <point x="514" y="534"/>
      <point x="514" y="516" type="curve" smooth="yes"/>
      <point x="514" y="416" type="line"/>
      <point x="582" y="416" type="line" smooth="yes"/>
      <point x="600" y="416"/>
      <point x="607" y="404"/>
      <point x="607" y="377" type="curve" smooth="yes"/>
      <point x="607" y="363" type="line" smooth="yes"/>
      <point x="607" y="336"/>
      <point x="600" y="324"/>
      <point x="582" y="324" type="curve" smooth="yes"/>
      <point x="514" y="324" type="line"/>
      <point x="514" y="145" type="line" smooth="yes"/>
      <point x="514" y="98"/>
      <point x="532" y="85"/>
      <point x="560" y="85" type="curve" smooth="yes"/>
      <point x="561.25" y="85"/>
      <point x="562.45" y="85.0098"/>
      <point x="563.61" y="85.04" type="curve" smooth="yes"/>
      <point x="581" y="85.4805"/>
      <point x="588.5" y="89"/>
    </contour>
    <contour>
      <point x="152.999" y="205.001" type="curve" smooth="yes"/>
      <point x="152.999" y="116.001"/>
      <point x="217.989" y="85.001"/>
      <point x="276.989" y="85.001" type="curve" smooth="yes"/>
      <point x="319.1" y="85.001"/>
      <point x="362.43" y="97.1611"/>
      <point x="402.699" y="116.741" type="curve"/>
      <point x="402.229" y="121.441"/>
      <point x="401.999" y="126.191"/>
      <point x="401.999" y="131.001" type="curve" smooth="yes"/>
      <point x="401.999" y="324.001" type="line"/>
      <point x="288.999" y="324.001" type="line" smooth="yes"/>
      <point x="200.999" y="324.001"/>
      <point x="152.999" y="291.001"/>
    </contour>
  </outline>
</glyph>
<glyph name="quotesingle" format="1">
  <advance width="183"/>
  <unicode hex="0027"/>
  <outline>
<<<<<<< HEAD
    <contour>
      <point x="100" y="702" type="line" smooth="yes"/>
      <point x="134" y="702"/>
      <point x="147.99" y="693.001"/>
      <point x="147.99" y="676.001" type="curve" smooth="yes"/>
      <point x="147.99" y="670.961"/>
      <point x="143.29" y="632.391"/>
      <point x="137.93" y="588.351" type="curve" smooth="yes"/>
      <point x="133.71" y="553.73"/>
      <point x="129.08" y="515.73"/>
      <point x="126" y="488" type="curve" smooth="yes"/>
      <point x="123" y="475"/>
      <point x="115" y="469"/>
      <point x="99" y="469" type="curve" smooth="yes"/>
      <point x="90" y="469" type="line" smooth="yes"/>
      <point x="74" y="469"/>
      <point x="65" y="475"/>
      <point x="63" y="488" type="curve" smooth="yes"/>
      <point x="41" y="667" type="line"/>
      <point x="41" y="676" type="line" smooth="yes"/>
      <point x="41" y="693"/>
      <point x="56" y="702"/>
      <point x="90" y="702" type="curve" smooth="yes"/>
    </contour>
  </outline>
</glyph>
<glyph name="parenleft" format="1">
  <advance width="301"/>
  <unicode hex="0028"/>
  <outline>
	<contour>
	  <point x="237" y="783"/>
	  <point x="230" y="779"/>
	  <point x="222" y="770" type="curve" smooth="yes"/>
	  <point x="117" y="652"/>
	  <point x="53" y="478"/>
	  <point x="53" y="286" type="curve" smooth="yes"/>
	  <point x="53" y="95"/>
	  <point x="117" y="-79"/>
	  <point x="222" y="-197" type="curve" smooth="yes"/>
	  <point x="230" y="-206"/>
	  <point x="238" y="-210"/>
	  <point x="246" y="-210" type="curve" smooth="yes"/>
	  <point x="264" y="-210"/>
	  <point x="287" y="-190"/>
	  <point x="287" y="-174" type="curve" smooth="yes"/>
	  <point x="287" y="-168"/>
	  <point x="285" y="-161"/>
	  <point x="280" y="-154" type="curve" smooth="yes"/>
	  <point x="195" y="-28"/>
	  <point x="150" y="119"/>
	  <point x="150" y="286" type="curve" smooth="yes"/>
	  <point x="150" y="454"/>
	  <point x="195" y="602"/>
	  <point x="280" y="728" type="curve" smooth="yes"/>
	  <point x="285" y="735"/>
	  <point x="288" y="742"/>
	  <point x="288" y="749" type="curve" smooth="yes"/>
	  <point x="288" y="767"/>
	  <point x="261" y="783"/>
	  <point x="246" y="783" type="curve" smooth="yes"/>
	</contour>
  </outline>
</glyph>
<glyph name="parenright" format="1">
  <advance width="301"/>
  <unicode hex="0029"/>
  <outline>
	<contour>
	  <point x="36" y="784"/>
	  <point x="13" y="763"/>
	  <point x="13" y="748" type="curve" smooth="yes"/>
	  <point x="13" y="742"/>
	  <point x="15" y="735"/>
	  <point x="20" y="728" type="curve" smooth="yes"/>
	  <point x="105" y="602"/>
	  <point x="150" y="454"/>
	  <point x="150" y="286" type="curve" smooth="yes"/>
	  <point x="150" y="117"/>
	  <point x="104" y="-32"/>
	  <point x="17" y="-158" type="curve" smooth="yes"/>
	  <point x="13" y="-164"/>
	  <point x="11" y="-170"/>
	  <point x="11" y="-175" type="curve" smooth="yes"/>
	  <point x="11" y="-192"/>
	  <point x="37" y="-210"/>
	  <point x="54" y="-210" type="curve" smooth="yes"/>
	  <point x="62" y="-210"/>
	  <point x="70" y="-206"/>
	  <point x="78" y="-197" type="curve" smooth="yes"/>
	  <point x="182" y="-79"/>
	  <point x="247" y="95"/>
	  <point x="247" y="286" type="curve" smooth="yes"/>
	  <point x="247" y="478"/>
	  <point x="182" y="652"/>
	  <point x="78" y="770" type="curve" smooth="yes"/>
	  <point x="70" y="779"/>
	  <point x="62" y="784"/>
	  <point x="53" y="784" type="curve" smooth="yes"/>
	</contour>
  </outline>
</glyph>
<glyph name="asterisk" format="1">
  <advance width="373"/>
  <unicode hex="002A"/>
  <outline>
<<<<<<< HEAD
    <contour>
      <point x="181" y="709" type="curve" smooth="yes"/>
      <point x="198" y="709"/>
      <point x="206" y="701"/>
      <point x="206" y="684" type="curve" smooth="yes"/>
      <point x="206" y="589" type="line"/>
      <point x="294" y="618" type="line" smooth="yes"/>
      <point x="298" y="619"/>
      <point x="302" y="620"/>
      <point x="305" y="620" type="curve" smooth="yes"/>
      <point x="315" y="620"/>
      <point x="328" y="609"/>
      <point x="328" y="591" type="curve" smooth="yes"/>
      <point x="328" y="581"/>
      <point x="322" y="575"/>
      <point x="310" y="571" type="curve" smooth="yes"/>
      <point x="221" y="543" type="line"/>
      <point x="287" y="453" type="line" smooth="yes"/>
      <point x="291" y="447"/>
      <point x="293" y="441"/>
      <point x="293" y="437" type="curve" smooth="yes"/>
      <point x="293" y="426"/>
      <point x="277" y="413"/>
      <point x="266" y="413" type="curve" smooth="yes"/>
      <point x="259" y="413"/>
      <point x="253" y="417"/>
      <point x="248" y="424" type="curve" smooth="yes"/>
      <point x="181" y="517" type="line"/>
      <point x="114" y="424" type="line" smooth="yes"/>
      <point x="108" y="416"/>
      <point x="101" y="413"/>
      <point x="95" y="413" type="curve" smooth="yes"/>
      <point x="84" y="413"/>
      <point x="68" y="426"/>
      <point x="68" y="437" type="curve" smooth="yes"/>
      <point x="68" y="441"/>
      <point x="70" y="447"/>
      <point x="75" y="453" type="curve" smooth="yes"/>
      <point x="139" y="543" type="line"/>
      <point x="51" y="571" type="line" smooth="yes"/>
      <point x="39" y="575"/>
      <point x="34" y="581"/>
      <point x="34" y="590" type="curve" smooth="yes"/>
      <point x="34" y="605"/>
      <point x="42" y="620"/>
      <point x="56" y="620" type="curve" smooth="yes"/>
      <point x="60" y="620"/>
      <point x="64" y="619"/>
      <point x="68" y="618" type="curve" smooth="yes"/>
      <point x="157" y="589" type="line"/>
      <point x="157" y="684" type="line" smooth="yes"/>
      <point x="157" y="701"/>
      <point x="164" y="709"/>
    </contour>
  </outline>
</glyph>
<glyph name="plus" format="1">
  <advance width="560"/>
  <unicode hex="002B"/>
  <outline>
    <contour>
      <point x="275" y="467" type="line" smooth="yes"/>
      <point x="248" y="467"/>
      <point x="236" y="460"/>
      <point x="236" y="443" type="curve" smooth="yes"/>
      <point x="236" y="275" type="line"/>
      <point x="69" y="275" type="line" smooth="yes"/>
      <point x="52" y="275"/>
      <point x="45" y="261"/>
      <point x="45" y="234" type="curve" smooth="yes"/>
      <point x="45" y="227" type="line" smooth="yes"/>
      <point x="45" y="200"/>
      <point x="52" y="190"/>
      <point x="69" y="190" type="curve"/>
      <point x="236" y="190" type="line"/>
      <point x="236" y="23" type="line" smooth="yes"/>
      <point x="236" y="6"/>
      <point x="248" y="-1"/>
      <point x="275" y="-1" type="curve" smooth="yes"/>
      <point x="285" y="-1" type="line" smooth="yes"/>
      <point x="312" y="-1"/>
      <point x="324" y="6"/>
      <point x="324" y="23" type="curve" smooth="yes"/>
      <point x="324" y="190" type="line"/>
      <point x="491" y="190" type="line" smooth="yes"/>
      <point x="508" y="190"/>
      <point x="515" y="202"/>
      <point x="515" y="229" type="curve" smooth="yes"/>
      <point x="515" y="236" type="line" smooth="yes"/>
      <point x="515" y="263"/>
      <point x="508" y="275"/>
      <point x="491" y="275" type="curve" smooth="yes"/>
      <point x="324" y="275" type="line"/>
      <point x="324" y="443" type="line" smooth="yes"/>
      <point x="324" y="460"/>
      <point x="312" y="467"/>
      <point x="285" y="467" type="curve" smooth="yes"/>
    </contour>
  </outline>
</glyph>
<glyph name="comma" format="1">
  <advance width="198"/>
  <unicode hex="002C"/>
  <outline>
    <contour>
      <point x="109" y="128" type="line" smooth="yes"/>
      <point x="141" y="128"/>
      <point x="157" y="114.001"/>
      <point x="157" y="93.001" type="curve" smooth="yes"/>
      <point x="157" y="-22.999"/>
      <point x="77" y="-119.999"/>
      <point x="39" y="-119.999" type="curve" smooth="yes"/>
      <point x="25" y="-119.999"/>
      <point x="3" y="-115.999"/>
      <point x="3" y="-101.999" type="curve" smooth="yes"/>
      <point x="3" y="-96.0488"/>
      <point x="6.62012" y="-87.1992"/>
      <point x="10.1602" y="-78.5293" type="curve" smooth="yes"/>
      <point x="10.7803" y="-77.0098"/>
      <point x="11.4004" y="-75.5"/>
      <point x="12" y="-74" type="curve" smooth="yes"/>
      <point x="30" y="-35"/>
      <point x="46" y="13"/>
      <point x="46" y="91" type="curve" smooth="yes"/>
      <point x="46" y="113"/>
      <point x="62" y="128"/>
      <point x="95" y="128" type="curve" smooth="yes"/>
    </contour>
  </outline>
</glyph>
<glyph name="hyphen" format="1">
  <advance width="320"/>
  <unicode hex="002D"/>
  <outline>
    <contour>
      <point x="257" y="308" type="line" smooth="yes"/>
      <point x="274" y="308"/>
      <point x="281" y="297"/>
      <point x="281" y="270" type="curve" smooth="yes"/>
      <point x="281" y="261" type="line" smooth="yes"/>
      <point x="281" y="234"/>
      <point x="274" y="222"/>
      <point x="257" y="222" type="curve" smooth="yes"/>
      <point x="61" y="222" type="line" smooth="yes"/>
      <point x="44" y="222"/>
      <point x="37" y="234"/>
      <point x="37" y="261" type="curve" smooth="yes"/>
      <point x="37" y="270" type="line" smooth="yes"/>
      <point x="37" y="297"/>
      <point x="44" y="308"/>
      <point x="61" y="308" type="curve" smooth="yes"/>
    </contour>
  </outline>
</glyph>
<glyph name="period" format="1">
  <advance width="198"/>
  <unicode hex="002E"/>
  <outline>
    <contour>
      <point x="110" y="128" type="line" smooth="yes"/>
      <point x="144" y="128"/>
      <point x="159" y="119"/>
      <point x="159" y="102" type="curve" smooth="yes"/>
      <point x="159" y="24" type="line" smooth="yes"/>
      <point x="159" y="7"/>
      <point x="144" y="-2"/>
      <point x="110" y="-2" type="curve" smooth="yes"/>
      <point x="87" y="-2" type="line" smooth="yes"/>
      <point x="53" y="-2"/>
      <point x="38" y="7"/>
      <point x="38" y="24" type="curve" smooth="yes"/>
      <point x="38" y="102" type="line" smooth="yes"/>
      <point x="38" y="119"/>
      <point x="53" y="128"/>
      <point x="87" y="128" type="curve" smooth="yes"/>
    </contour>
  </outline>
</glyph>
<glyph name="slash" format="1">
  <advance width="370"/>
  <unicode hex="002F"/>
  <outline>
<<<<<<< HEAD
    <contour>
      <point x="346" y="703" type="line" smooth="yes"/>
      <point x="368" y="703"/>
      <point x="378" y="695"/>
      <point x="378" y="684" type="curve" smooth="yes"/>
      <point x="378" y="680"/>
      <point x="377" y="675"/>
      <point x="375" y="670" type="curve" smooth="yes"/>
      <point x="73" y="-51" type="line" smooth="yes"/>
      <point x="65" y="-70"/>
      <point x="51" y="-77"/>
      <point x="28" y="-77" type="curve" smooth="yes"/>
      <point x="15" y="-77" type="line" smooth="yes"/>
      <point x="-7" y="-77"/>
      <point x="-18" y="-70"/>
      <point x="-18" y="-59" type="curve" smooth="yes"/>
      <point x="-18" y="-55"/>
      <point x="-17" y="-50"/>
      <point x="-15" y="-44" type="curve" smooth="yes"/>
      <point x="287" y="677" type="line" smooth="yes"/>
      <point x="295" y="695"/>
      <point x="310" y="703"/>
      <point x="333" y="703" type="curve" smooth="yes"/>
    </contour>
  </outline>
</glyph>
<glyph name="zero" format="1">
  <advance width="535"/>
  <unicode hex="0030"/>
  <outline>
<<<<<<< HEAD
    <contour>
      <point x="266" y="707" type="curve" smooth="yes"/>
      <point x="399" y="707"/>
      <point x="499" y="589"/>
      <point x="499" y="350" type="curve" smooth="yes"/>
      <point x="499" y="111"/>
      <point x="399" y="-7"/>
      <point x="266" y="-7" type="curve" smooth="yes"/>
      <point x="134" y="-7"/>
      <point x="35" y="111"/>
      <point x="35" y="350" type="curve" smooth="yes"/>
      <point x="35" y="589"/>
      <point x="134" y="707"/>
    </contour>
    <contour>
      <point x="266" y="615" type="curve" smooth="yes"/>
      <point x="201" y="615"/>
      <point x="148" y="537"/>
      <point x="148" y="350" type="curve" smooth="yes"/>
      <point x="148" y="163"/>
      <point x="201" y="85"/>
      <point x="266" y="85" type="curve" smooth="yes"/>
      <point x="331" y="85"/>
      <point x="385" y="163"/>
      <point x="385" y="350" type="curve" smooth="yes"/>
      <point x="385" y="537"/>
      <point x="331" y="615"/>
    </contour>
  </outline>
</glyph>
<glyph name="one" format="1">
  <advance width="535"/>
  <unicode hex="0031"/>
  <outline>
    <contour>
      <point x="60" y="654" type="line" smooth="yes"/>
      <point x="46" y="651"/>
      <point x="39" y="644"/>
      <point x="39" y="631" type="curve" smooth="yes"/>
      <point x="39" y="609"/>
      <point x="45" y="566"/>
      <point x="64" y="566" type="curve"/>
      <point x="223" y="591" type="line"/>
      <point x="223" y="92" type="line"/>
      <point x="67" y="92" type="line" smooth="yes"/>
      <point x="50" y="92"/>
      <point x="43" y="80"/>
      <point x="43" y="53" type="curve" smooth="yes"/>
      <point x="43" y="39" type="line" smooth="yes"/>
      <point x="43" y="12"/>
      <point x="50" y="0"/>
      <point x="67" y="0" type="curve" smooth="yes"/>
      <point x="465" y="0" type="line" smooth="yes"/>
      <point x="482" y="0"/>
      <point x="490" y="12"/>
      <point x="490" y="39" type="curve" smooth="yes"/>
      <point x="490" y="53" type="line" smooth="yes"/>
      <point x="490" y="80"/>
      <point x="482" y="92"/>
      <point x="465" y="92" type="curve" smooth="yes"/>
      <point x="335" y="92" type="line"/>
      <point x="335" y="681" type="line" smooth="yes"/>
      <point x="335" y="693"/>
      <point x="315" y="703"/>
      <point x="300" y="703" type="curve"/>
    </contour>
  </outline>
</glyph>
<glyph name="two" format="1">
  <advance width="535"/>
  <unicode hex="0032"/>
  <outline>
    <contour>
      <point x="256" y="707" type="curve" smooth="yes"/>
      <point x="391" y="707"/>
      <point x="470.989" y="634.001"/>
      <point x="470.989" y="526.001" type="curve" smooth="yes"/>
      <point x="470.989" y="443.001"/>
      <point x="444.989" y="401.001"/>
      <point x="315.989" y="242.001" type="curve" smooth="yes"/>
      <point x="191.989" y="91.001" type="line"/>
      <point x="454.989" y="91.001" type="line" smooth="yes"/>
      <point x="472.989" y="91.001"/>
      <point x="479.989" y="79.001"/>
      <point x="479.989" y="52.001" type="curve" smooth="yes"/>
      <point x="479.989" y="39.001" type="line" smooth="yes"/>
      <point x="479.989" y="12.001"/>
      <point x="472.989" y="0.000976562"/>
      <point x="454.989" y="0.000976562" type="curve" smooth="yes"/>
      <point x="65.9893" y="0.000976562" type="line" smooth="yes"/>
      <point x="52.9893" y="0.000976562"/>
      <point x="42.9893" y="40.001"/>
      <point x="42.9893" y="63.001" type="curve" smooth="yes"/>
      <point x="42.9893" y="70.001"/>
      <point x="43.9893" y="76.001"/>
      <point x="46.9893" y="79.001" type="curve" smooth="yes"/>
      <point x="301.989" y="397.001" type="line" smooth="yes"/>
      <point x="346.989" y="456.001"/>
      <point x="356.989" y="481.001"/>
      <point x="356.989" y="521.001" type="curve" smooth="yes"/>
      <point x="356.989" y="580.001"/>
      <point x="312.989" y="615.001"/>
      <point x="245.989" y="615.001" type="curve" smooth="yes"/>
      <point x="192.029" y="615.001"/>
      <point x="156.729" y="592.601"/>
      <point x="134.359" y="578.4" type="curve" smooth="yes"/>
      <point x="123.979" y="571.82"/>
      <point x="116.38" y="567"/>
      <point x="111" y="567" type="curve" smooth="yes"/>
      <point x="91" y="567"/>
      <point x="68" y="606"/>
      <point x="68" y="626" type="curve" smooth="yes"/>
      <point x="68" y="675"/>
      <point x="181" y="707"/>
    </contour>
  </outline>
</glyph>
<glyph name="three" format="1">
  <advance width="535"/>
  <unicode hex="0033"/>
  <outline>
<<<<<<< HEAD
    <contour>
      <point x="247" y="707" type="curve" smooth="yes"/>
      <point x="369" y="707"/>
      <point x="450.002" y="645.011"/>
      <point x="450.002" y="531.011" type="curve" smooth="yes"/>
      <point x="450.002" y="461.011"/>
      <point x="406.002" y="412.011"/>
      <point x="352.002" y="389.011" type="curve"/>
      <point x="352.002" y="385.011" type="line"/>
      <point x="420.002" y="363.011"/>
      <point x="473.002" y="298.011"/>
      <point x="473.002" y="203.011" type="curve" smooth="yes"/>
      <point x="473.002" y="59.0107"/>
      <point x="363.002" y="-6.98926"/>
      <point x="249.002" y="-6.98926" type="curve" smooth="yes"/>
      <point x="150.002" y="-6.98926"/>
      <point x="41.002" y="20.0107"/>
      <point x="41.002" y="61.0107" type="curve" smooth="yes"/>
      <point x="41.002" y="80.0107"/>
      <point x="66.002" y="122.011"/>
      <point x="82.002" y="122.011" type="curve" smooth="yes"/>
      <point x="88.1016" y="122.011"/>
      <point x="97.1914" y="118.19"/>
      <point x="109.531" y="113.011" type="curve" smooth="yes"/>
      <point x="135.631" y="102.061"/>
      <point x="176.281" y="85.001"/>
      <point x="234.001" y="85.001" type="curve" smooth="yes"/>
      <point x="294.001" y="85.001"/>
      <point x="359.001" y="116.001"/>
      <point x="359.001" y="205.001" type="curve" smooth="yes"/>
      <point x="359.001" y="291.001"/>
      <point x="311.001" y="324.001"/>
      <point x="223.001" y="324.001" type="curve" smooth="yes"/>
      <point x="192.001" y="324.001" type="line" smooth="yes"/>
      <point x="175.001" y="324.001"/>
      <point x="168.001" y="335.001"/>
      <point x="168.001" y="363.001" type="curve" smooth="yes"/>
      <point x="168.001" y="377.001" type="line" smooth="yes"/>
      <point x="168.001" y="404.001"/>
      <point x="175.001" y="415.001"/>
      <point x="192.001" y="415.001" type="curve" smooth="yes"/>
      <point x="217.001" y="415.001" type="line" smooth="yes"/>
      <point x="303.001" y="415.001"/>
      <point x="337.001" y="476.001"/>
      <point x="337.001" y="525.001" type="curve" smooth="yes"/>
      <point x="337.001" y="568.001"/>
      <point x="313.001" y="615.001"/>
      <point x="235.001" y="615.001" type="curve" smooth="yes"/>
      <point x="176.261" y="615.001"/>
      <point x="143.311" y="599.721"/>
      <point x="122.95" y="590.28" type="curve" smooth="yes"/>
      <point x="113.84" y="586.05"/>
      <point x="107.25" y="583"/>
      <point x="102" y="583" type="curve" smooth="yes"/>
      <point x="87" y="583"/>
      <point x="61" y="625"/>
      <point x="61" y="645" type="curve" smooth="yes"/>
      <point x="61" y="684"/>
      <point x="169" y="707"/>
    </contour>
  </outline>
</glyph>
<glyph name="four" format="1">
  <advance width="535"/>
  <unicode hex="0034"/>
  <outline>
    <contour>
      <point x="378" y="702" type="line" smooth="yes"/>
      <point x="357" y="702"/>
      <point x="341" y="698"/>
      <point x="332" y="686" type="curve" smooth="yes"/>
      <point x="17" y="236" type="line" smooth="yes"/>
      <point x="15" y="234"/>
      <point x="15" y="230"/>
      <point x="15" y="225" type="curve" smooth="yes"/>
      <point x="15" y="203"/>
      <point x="31" y="156"/>
      <point x="45" y="156" type="curve"/>
      <point x="330" y="156" type="line"/>
      <point x="330" y="24" type="line" smooth="yes"/>
      <point x="330" y="7"/>
      <point x="343" y="-2"/>
      <point x="373" y="-2" type="curve" smooth="yes"/>
      <point x="399" y="-2" type="line" smooth="yes"/>
      <point x="429" y="-2"/>
      <point x="442" y="7"/>
      <point x="442" y="24" type="curve" smooth="yes"/>
      <point x="442" y="156" type="line"/>
      <point x="496" y="156" type="line" smooth="yes"/>
      <point x="513" y="156"/>
      <point x="520" y="168"/>
      <point x="520" y="195" type="curve" smooth="yes"/>
      <point x="520" y="209" type="line" smooth="yes"/>
      <point x="520" y="236"/>
      <point x="513" y="248"/>
      <point x="496" y="248" type="curve" smooth="yes"/>
      <point x="442" y="248" type="line"/>
      <point x="442" y="676" type="line" smooth="yes"/>
      <point x="442" y="693"/>
      <point x="429" y="702"/>
      <point x="399" y="702" type="curve" smooth="yes"/>
    </contour>
    <contour>
      <point x="331" y="527" type="line"/>
      <point x="331" y="248" type="line"/>
      <point x="136" y="248" type="line"/>
      <point x="327" y="528" type="line"/>
    </contour>
  </outline>
</glyph>
<glyph name="five" format="1">
  <advance width="535"/>
  <unicode hex="0035"/>
  <outline>
    <contour>
      <point x="416" y="700" type="line" smooth="yes"/>
      <point x="434" y="700"/>
      <point x="440.989" y="687.99"/>
      <point x="440.989" y="660.99" type="curve" smooth="yes"/>
      <point x="440.989" y="642.99" type="line" smooth="yes"/>
      <point x="440.989" y="618.99"/>
      <point x="433.989" y="607.99"/>
      <point x="415.989" y="607.99" type="curve" smooth="yes"/>
      <point x="205.989" y="607.99" type="line"/>
      <point x="193.989" y="429.99" type="line"/>
      <point x="234.989" y="429.99" type="line" smooth="yes"/>
      <point x="361.989" y="429.99"/>
      <point x="480.989" y="380.99"/>
      <point x="480.989" y="213.99" type="curve" smooth="yes"/>
      <point x="480.989" y="41.9902"/>
      <point x="349.989" y="-7.00977"/>
      <point x="233.989" y="-7.00977" type="curve" smooth="yes"/>
      <point x="121.989" y="-7.00977"/>
      <point x="42.9893" y="26.9902"/>
      <point x="42.9893" y="57.9902" type="curve" smooth="yes"/>
      <point x="42.9893" y="76.9902"/>
      <point x="69.9893" y="120.99"/>
      <point x="85.9893" y="120.99" type="curve" smooth="yes"/>
      <point x="90.8496" y="120.99"/>
      <point x="98.5801" y="117.67"/>
      <point x="109.33" y="113.04" type="curve" smooth="yes"/>
      <point x="133.97" y="102.44"/>
      <point x="174.52" y="85"/>
      <point x="233" y="85" type="curve" smooth="yes"/>
      <point x="307" y="85"/>
      <point x="367" y="128"/>
      <point x="367" y="213" type="curve" smooth="yes"/>
      <point x="367" y="293"/>
      <point x="317" y="338"/>
      <point x="211" y="338" type="curve" smooth="yes"/>
      <point x="116" y="338" type="line" smooth="yes"/>
      <point x="90" y="338"/>
      <point x="84" y="349"/>
      <point x="84" y="373" type="curve" smooth="yes"/>
      <point x="101" y="666" type="line" smooth="yes"/>
      <point x="103" y="690"/>
      <point x="113" y="700"/>
      <point x="138" y="700" type="curve" smooth="yes"/>
    </contour>
  </outline>
</glyph>
<glyph name="six" format="1">
  <advance width="535"/>
  <unicode hex="0036"/>
  <outline>
<<<<<<< HEAD
    <contour>
      <point x="381" y="703" type="curve" smooth="yes"/>
      <point x="407" y="703"/>
      <point x="421" y="652"/>
      <point x="421" y="637" type="curve" smooth="yes"/>
      <point x="421" y="629"/>
      <point x="420" y="624"/>
      <point x="411" y="621" type="curve" smooth="yes"/>
      <point x="292" y="577"/>
      <point x="209" y="492"/>
      <point x="177" y="386" type="curve"/>
      <point x="211" y="405"/>
      <point x="250" y="415"/>
      <point x="297" y="415" type="curve" smooth="yes"/>
      <point x="389" y="415"/>
      <point x="490" y="349"/>
      <point x="490" y="209" type="curve" smooth="yes"/>
      <point x="490" y="66"/>
      <point x="384" y="-6"/>
      <point x="266" y="-6" type="curve" smooth="yes"/>
      <point x="137" y="-6"/>
      <point x="43" y="76"/>
      <point x="43" y="250" type="curve" smooth="yes"/>
      <point x="43" y="580"/>
      <point x="337" y="703"/>
    </contour>
    <contour>
      <point x="264" y="323" type="curve" smooth="yes"/>
      <point x="222" y="323"/>
      <point x="185" y="309"/>
      <point x="159" y="294" type="curve"/>
      <point x="157" y="276"/>
      <point x="156" y="258"/>
      <point x="156" y="240" type="curve" smooth="yes"/>
      <point x="156" y="118"/>
      <point x="213" y="85"/>
      <point x="269" y="85" type="curve" smooth="yes"/>
      <point x="320" y="85"/>
      <point x="377" y="126"/>
      <point x="377" y="205" type="curve" smooth="yes"/>
      <point x="377" y="287"/>
      <point x="326" y="323"/>
    </contour>
  </outline>
</glyph>
<glyph name="seven" format="1">
  <advance width="535"/>
  <unicode hex="0037"/>
  <outline>
    <contour>
      <point x="468" y="700" type="line" smooth="yes"/>
      <point x="477" y="700"/>
      <point x="492" y="657"/>
      <point x="492" y="632" type="curve" smooth="yes"/>
      <point x="492" y="628"/>
      <point x="491" y="623"/>
      <point x="490" y="620" type="curve" smooth="yes"/>
      <point x="209" y="16" type="line" smooth="yes"/>
      <point x="203" y="3"/>
      <point x="185" y="-2"/>
      <point x="161" y="-2" type="curve" smooth="yes"/>
      <point x="138" y="-2" type="line" smooth="yes"/>
      <point x="104" y="-2"/>
      <point x="88" y="3"/>
      <point x="88" y="16" type="curve" smooth="yes"/>
      <point x="88" y="20"/>
      <point x="90" y="25"/>
      <point x="93" y="31" type="curve" smooth="yes"/>
      <point x="364" y="608" type="line"/>
      <point x="72" y="608" type="line" smooth="yes"/>
      <point x="55" y="608"/>
      <point x="48" y="620"/>
      <point x="48" y="647" type="curve" smooth="yes"/>
      <point x="48" y="661" type="line" smooth="yes"/>
      <point x="48" y="688"/>
      <point x="55" y="700"/>
      <point x="72" y="700" type="curve" smooth="yes"/>
    </contour>
  </outline>
</glyph>
<glyph name="eight" format="1">
  <advance width="535"/>
  <unicode hex="0038"/>
  <outline>
    <contour>
      <point x="147" y="707"/>
      <point x="69" y="634"/>
      <point x="69" y="527" type="curve" smooth="yes"/>
      <point x="69" y="452"/>
      <point x="102" y="406"/>
      <point x="148" y="378" type="curve"/>
      <point x="89" y="352"/>
      <point x="41" y="302"/>
      <point x="41" y="202" type="curve" smooth="yes"/>
      <point x="41" y="73"/>
      <point x="126" y="-7"/>
      <point x="268" y="-7" type="curve" smooth="yes"/>
      <point x="411" y="-7"/>
      <point x="493" y="77"/>
      <point x="493" y="198" type="curve" smooth="yes"/>
      <point x="493" y="307"/>
      <point x="441" y="354"/>
      <point x="378" y="383" type="curve"/>
      <point x="430" y="409"/>
      <point x="470" y="451"/>
      <point x="470" y="533" type="curve" smooth="yes"/>
      <point x="470" y="639"/>
      <point x="388" y="707"/>
      <point x="272" y="707" type="curve" smooth="yes"/>
    </contour>
    <contour>
      <point x="305" y="312"/>
      <point x="380" y="293"/>
      <point x="380" y="201" type="curve" smooth="yes"/>
      <point x="380" y="132"/>
      <point x="333" y="85"/>
      <point x="268" y="85" type="curve" smooth="yes"/>
      <point x="203" y="85"/>
      <point x="155" y="128"/>
      <point x="155" y="205" type="curve" smooth="yes"/>
      <point x="155" y="274"/>
      <point x="187" y="312"/>
      <point x="231" y="340" type="curve"/>
    </contour>
    <contour>
      <point x="319" y="615"/>
      <point x="360" y="587"/>
      <point x="360" y="529" type="curve" smooth="yes"/>
      <point x="360" y="480"/>
      <point x="331" y="445"/>
      <point x="288" y="418" type="curve"/>
      <point x="230" y="440"/>
      <point x="180" y="462"/>
      <point x="180" y="529" type="curve" smooth="yes"/>
      <point x="180" y="588"/>
      <point x="221" y="615"/>
      <point x="270" y="615" type="curve" smooth="yes"/>
    </contour>
  </outline>
</glyph>
<glyph name="nine" format="1">
  <advance width="535"/>
  <unicode hex="0039"/>
  <outline>
    <contour>
      <point x="268" y="706" type="curve" smooth="yes"/>
      <point x="398" y="706"/>
      <point x="491" y="624"/>
      <point x="491" y="450" type="curve" smooth="yes"/>
      <point x="491" y="119"/>
      <point x="198" y="-3"/>
      <point x="154" y="-3" type="curve" smooth="yes"/>
      <point x="127" y="-3"/>
      <point x="113" y="47"/>
      <point x="113" y="63" type="curve" smooth="yes"/>
      <point x="113" y="71"/>
      <point x="115" y="75"/>
      <point x="123" y="78" type="curve" smooth="yes"/>
      <point x="242" y="122"/>
      <point x="325" y="208"/>
      <point x="357" y="314" type="curve"/>
      <point x="323" y="295"/>
      <point x="285" y="285"/>
      <point x="238" y="285" type="curve" smooth="yes"/>
      <point x="146" y="285"/>
      <point x="44" y="351"/>
      <point x="44" y="491" type="curve" smooth="yes"/>
      <point x="44" y="633"/>
      <point x="151" y="706"/>
    </contour>
    <contour>
      <point x="265" y="614" type="curve" smooth="yes"/>
      <point x="214" y="614"/>
      <point x="157" y="573"/>
      <point x="157" y="495" type="curve" smooth="yes"/>
      <point x="157" y="413"/>
      <point x="208" y="376"/>
      <point x="271" y="376" type="curve" smooth="yes"/>
      <point x="312" y="376"/>
      <point x="349" y="391"/>
      <point x="375" y="406" type="curve"/>
      <point x="377" y="424"/>
      <point x="378" y="442"/>
      <point x="378" y="460" type="curve" smooth="yes"/>
      <point x="378" y="582"/>
      <point x="321" y="614"/>
    </contour>
  </outline>
</glyph>
<glyph name="colon" format="1">
  <advance width="198"/>
  <unicode hex="003A"/>
  <outline>
<<<<<<< HEAD
    <contour>
      <point x="110" y="525" type="line" smooth="yes"/>
      <point x="144" y="525"/>
      <point x="159" y="516"/>
      <point x="159" y="499" type="curve" smooth="yes"/>
      <point x="159" y="421" type="line" smooth="yes"/>
      <point x="159" y="404"/>
      <point x="144" y="395"/>
      <point x="110" y="395" type="curve" smooth="yes"/>
      <point x="87" y="395" type="line" smooth="yes"/>
      <point x="53" y="395"/>
      <point x="38" y="404"/>
      <point x="38" y="421" type="curve" smooth="yes"/>
      <point x="38" y="499" type="line" smooth="yes"/>
      <point x="38" y="516"/>
      <point x="53" y="525"/>
      <point x="87" y="525" type="curve" smooth="yes"/>
    </contour>
    <contour>
      <point x="110" y="128" type="line" smooth="yes"/>
      <point x="144" y="128"/>
      <point x="159" y="119"/>
      <point x="159" y="102" type="curve" smooth="yes"/>
      <point x="159" y="24" type="line" smooth="yes"/>
      <point x="159" y="7"/>
      <point x="144" y="-2"/>
      <point x="110" y="-2" type="curve" smooth="yes"/>
      <point x="87" y="-2" type="line" smooth="yes"/>
      <point x="53" y="-2"/>
      <point x="38" y="7"/>
      <point x="38" y="24" type="curve" smooth="yes"/>
      <point x="38" y="102" type="line" smooth="yes"/>
      <point x="38" y="119"/>
      <point x="53" y="128"/>
      <point x="87" y="128" type="curve" smooth="yes"/>
    </contour>
  </outline>
</glyph>
<glyph name="semicolon" format="1">
  <advance width="198"/>
  <unicode hex="003B"/>
  <outline>
    <contour>
      <point x="87" y="525" type="line" smooth="yes"/>
      <point x="53" y="525"/>
      <point x="38" y="516"/>
      <point x="38" y="499" type="curve" smooth="yes"/>
      <point x="38" y="421" type="line" smooth="yes"/>
      <point x="38" y="404"/>
      <point x="53" y="395"/>
      <point x="87" y="395" type="curve"/>
      <point x="110" y="395" type="line" smooth="yes"/>
      <point x="144" y="395"/>
      <point x="159" y="404"/>
      <point x="159" y="421" type="curve" smooth="yes"/>
      <point x="159" y="499" type="line" smooth="yes"/>
      <point x="159" y="516"/>
      <point x="144" y="525"/>
      <point x="110" y="525" type="curve" smooth="yes"/>
    </contour>
    <component base="comma"/>
  </outline>
</glyph>
<glyph name="less" format="1">
  <advance width="560"/>
  <unicode hex="003C"/>
  <outline>
<<<<<<< HEAD
    <contour>
      <point x="496" y="462" type="curve" smooth="yes"/>
      <point x="506" y="462"/>
      <point x="514" y="451"/>
      <point x="514" y="429" type="curve" smooth="yes"/>
      <point x="514" y="414" type="line" smooth="yes"/>
      <point x="514" y="391"/>
      <point x="506" y="375"/>
      <point x="488" y="368" type="curve" smooth="yes"/>
      <point x="159" y="235" type="line"/>
      <point x="488" y="103" type="line" smooth="yes"/>
      <point x="507" y="95"/>
      <point x="515" y="79"/>
      <point x="515" y="56" type="curve" smooth="yes"/>
      <point x="515" y="41" type="line" smooth="yes"/>
      <point x="515" y="19"/>
      <point x="507" y="8"/>
      <point x="496" y="8" type="curve" smooth="yes"/>
      <point x="492" y="8"/>
      <point x="487" y="9"/>
      <point x="481" y="12" type="curve" smooth="yes"/>
      <point x="66" y="188" type="line" smooth="yes"/>
      <point x="49" y="196"/>
      <point x="40" y="207"/>
      <point x="40" y="226" type="curve" smooth="yes"/>
      <point x="40" y="244" type="line" smooth="yes"/>
      <point x="40" y="263"/>
      <point x="49" y="274"/>
      <point x="66" y="282" type="curve" smooth="yes"/>
      <point x="481" y="459" type="line" smooth="yes"/>
      <point x="486" y="461"/>
      <point x="491" y="462"/>
    </contour>
  </outline>
</glyph>
<glyph name="equal" format="1">
  <advance width="560"/>
  <unicode hex="003D"/>
  <outline>
    <contour>
      <point x="485" y="354" type="line" smooth="yes"/>
      <point x="506" y="354"/>
      <point x="515" y="342"/>
      <point x="515" y="315" type="curve" smooth="yes"/>
      <point x="515" y="308" type="line" smooth="yes"/>
      <point x="515" y="282"/>
      <point x="506" y="269"/>
      <point x="485" y="269" type="curve" smooth="yes"/>
      <point x="75" y="269" type="line" smooth="yes"/>
      <point x="55" y="269"/>
      <point x="45" y="282"/>
      <point x="45" y="308" type="curve" smooth="yes"/>
      <point x="45" y="315" type="line" smooth="yes"/>
      <point x="45" y="342"/>
      <point x="55" y="354"/>
      <point x="75" y="354" type="curve" smooth="yes"/>
    </contour>
    <contour>
      <point x="485" y="183" type="line" smooth="yes"/>
      <point x="506" y="183"/>
      <point x="515" y="171"/>
      <point x="515" y="144" type="curve" smooth="yes"/>
      <point x="515" y="137" type="line" smooth="yes"/>
      <point x="515" y="111"/>
      <point x="506" y="98"/>
      <point x="485" y="98" type="curve" smooth="yes"/>
      <point x="75" y="98" type="line" smooth="yes"/>
      <point x="55" y="98"/>
      <point x="45" y="111"/>
      <point x="45" y="137" type="curve" smooth="yes"/>
      <point x="45" y="144" type="line" smooth="yes"/>
      <point x="45" y="171"/>
      <point x="55" y="183"/>
      <point x="75" y="183" type="curve" smooth="yes"/>
    </contour>
  </outline>
</glyph>
<glyph name="greater" format="1">
  <advance width="560"/>
  <unicode hex="003E"/>
  <outline>
	<contour>
	  <point x="51" y="461"/>
	  <point x="43" y="451"/>
	  <point x="43" y="428" type="curve" smooth="yes"/>
	  <point x="43" y="414" type="line" smooth="yes"/>
	  <point x="43" y="390"/>
	  <point x="51" y="375"/>
	  <point x="70" y="367" type="curve" smooth="yes"/>
	  <point x="398" y="235" type="line"/>
	  <point x="70" y="102" type="line" smooth="yes"/>
	  <point x="51" y="94"/>
	  <point x="43" y="79"/>
	  <point x="43" y="56" type="curve" smooth="yes"/>
	  <point x="43" y="41" type="line" smooth="yes"/>
	  <point x="43" y="18"/>
	  <point x="51" y="8"/>
	  <point x="61" y="8" type="curve" smooth="yes"/>
	  <point x="66" y="8"/>
	  <point x="71" y="9"/>
	  <point x="76" y="11" type="curve" smooth="yes"/>
	  <point x="491" y="188" type="line" smooth="yes"/>
	  <point x="509" y="195"/>
	  <point x="518" y="207"/>
	  <point x="518" y="226" type="curve" smooth="yes"/>
	  <point x="518" y="244" type="line" smooth="yes"/>
	  <point x="518" y="262"/>
	  <point x="509" y="274"/>
	  <point x="491" y="282" type="curve" smooth="yes"/>
	  <point x="77" y="458" type="line" smooth="yes"/>
	  <point x="71" y="460"/>
	  <point x="66" y="461"/>
	  <point x="62" y="461" type="curve" smooth="yes"/>
	</contour>
  </outline>
</glyph>
<glyph name="question" format="1">
  <advance width="445"/>
  <unicode hex="003F"/>
  <outline>
    <contour>
      <point x="220" y="707" type="curve" smooth="yes"/>
      <point x="353" y="707"/>
      <point x="430" y="632.999"/>
      <point x="430" y="534.999" type="curve" smooth="yes"/>
      <point x="430" y="455.469"/>
      <point x="375.55" y="404.389"/>
      <point x="324.3" y="356.309" type="curve" smooth="yes"/>
      <point x="283.41" y="317.948"/>
      <point x="244.54" y="281.488"/>
      <point x="237" y="233.998" type="curve" smooth="yes"/>
      <point x="234" y="216.998"/>
      <point x="224" y="210.998"/>
      <point x="196" y="210.998" type="curve" smooth="yes"/>
      <point x="177" y="210.998" type="line" smooth="yes"/>
      <point x="150" y="210.998"/>
      <point x="139" y="218.998"/>
      <point x="139" y="235.998" type="curve" smooth="yes"/>
      <point x="139" y="286.998"/>
      <point x="171" y="340.998"/>
      <point x="217" y="390.998" type="curve" smooth="yes"/>
      <point x="222.8" y="397.168"/>
      <point x="228.569" y="403.198"/>
      <point x="234.229" y="409.118" type="curve" smooth="yes"/>
      <point x="274.42" y="451.148"/>
      <point x="308.99" y="487.299"/>
      <point x="308.99" y="524.989" type="curve" smooth="yes"/>
      <point x="308.99" y="578.989"/>
      <point x="273.99" y="607.989"/>
      <point x="204.99" y="607.989" type="curve" smooth="yes"/>
      <point x="163.75" y="607.989"/>
      <point x="130.74" y="592.909"/>
      <point x="109.351" y="583.14" type="curve" smooth="yes"/>
      <point x="99.1104" y="578.46"/>
      <point x="91.5303" y="575"/>
      <point x="87" y="575" type="curve" smooth="yes"/>
      <point x="69" y="575"/>
      <point x="41" y="622"/>
      <point x="41" y="639" type="curve" smooth="yes"/>
      <point x="41" y="684"/>
      <point x="145" y="707"/>
    </contour>
    <contour>
      <point x="197" y="127.999" type="line" smooth="yes"/>
      <point x="231" y="127.999"/>
      <point x="246" y="118.999"/>
      <point x="246" y="101.999" type="curve" smooth="yes"/>
      <point x="246" y="23.999" type="line" smooth="yes"/>
      <point x="246" y="6.99902"/>
      <point x="231" y="-2.00098"/>
      <point x="197" y="-2.00098" type="curve" smooth="yes"/>
      <point x="174" y="-2.00098" type="line" smooth="yes"/>
      <point x="140" y="-2.00098"/>
      <point x="125" y="6.99902"/>
      <point x="125" y="23.999" type="curve" smooth="yes"/>
      <point x="125" y="101.999" type="line" smooth="yes"/>
      <point x="125" y="118.999"/>
      <point x="140" y="127.999"/>
      <point x="174" y="127.999" type="curve" smooth="yes"/>
    </contour>
  </outline>
</glyph>
<glyph name="at" format="1">
  <advance width="974"/>
  <unicode hex="0040"/>
  <outline>
    <contour>
      <point x="281" y="706"/>
      <point x="84" y="501"/>
      <point x="84" y="238" type="curve" smooth="yes"/>
      <point x="84" y="22"/>
      <point x="216" y="-125"/>
      <point x="410" y="-125" type="curve" smooth="yes"/>
      <point x="461" y="-125"/>
      <point x="578" y="-114"/>
      <point x="578" y="-75" type="curve" smooth="yes"/>
      <point x="578" y="-56"/>
      <point x="573" y="-47"/>
      <point x="564" y="-47" type="curve" smooth="yes"/>
      <point x="540" y="-47"/>
      <point x="507" y="-76"/>
      <point x="410" y="-76" type="curve" smooth="yes"/>
      <point x="251" y="-76"/>
      <point x="142" y="51"/>
      <point x="142" y="238" type="curve" smooth="yes"/>
      <point x="142" y="474"/>
      <point x="315" y="658"/>
      <point x="534" y="658" type="curve" smooth="yes"/>
      <point x="698" y="658"/>
      <point x="809" y="548"/>
      <point x="809" y="381" type="curve" smooth="yes"/>
      <point x="809" y="242"/>
      <point x="744" y="122"/>
      <point x="672" y="122" type="curve" smooth="yes"/>
      <point x="656" y="122"/>
      <point x="634" y="127"/>
      <point x="634" y="161" type="curve" smooth="yes"/>
      <point x="634" y="183"/>
      <point x="666" y="477"/>
      <point x="666" y="479" type="curve"/>
      <point x="666" y="494"/>
      <point x="657" y="502"/>
      <point x="633" y="502" type="curve" smooth="yes"/>
      <point x="625" y="502" type="line" smooth="yes"/>
      <point x="594" y="502"/>
      <point x="591" y="489"/>
      <point x="582" y="460" type="curve"/>
      <point x="565" y="478"/>
      <point x="527" y="506"/>
      <point x="475" y="506" type="curve" smooth="yes"/>
      <point x="355" y="506"/>
      <point x="275" y="396"/>
      <point x="275" y="237" type="curve" smooth="yes"/>
      <point x="275" y="103"/>
      <point x="349" y="56"/>
      <point x="416" y="56" type="curve" smooth="yes"/>
      <point x="478" y="56"/>
      <point x="531" y="96"/>
      <point x="556" y="169" type="curve"/>
      <point x="540" y="180" type="line"/>
      <point x="540" y="140" type="line" smooth="yes"/>
      <point x="540" y="99"/>
      <point x="577" y="56"/>
      <point x="647" y="56" type="curve" smooth="yes"/>
      <point x="774" y="56"/>
      <point x="867" y="200"/>
      <point x="867" y="381" type="curve" smooth="yes"/>
      <point x="867" y="577"/>
      <point x="735" y="706"/>
      <point x="534" y="706" type="curve" smooth="yes"/>
    </contour>
    <contour>
      <point x="526" y="429"/>
      <point x="551" y="413"/>
      <point x="566" y="399" type="curve"/>
      <point x="557" y="360"/>
      <point x="551" y="290"/>
      <point x="547" y="235" type="curve"/>
      <point x="519" y="161"/>
      <point x="479" y="134"/>
      <point x="445" y="134" type="curve" smooth="yes"/>
      <point x="402" y="134"/>
      <point x="371" y="164"/>
      <point x="371" y="244" type="curve" smooth="yes"/>
      <point x="371" y="347"/>
      <point x="402" y="429"/>
      <point x="491" y="429" type="curve" smooth="yes"/>
    </contour>
  </outline>
</glyph>
<glyph name="A" format="1">
  <advance width="613"/>
  <unicode hex="0041"/>
  <outline>
	<contour>
	  <point x="287" y="702" type="line" smooth="yes"/>
	  <point x="264" y="702"/>
	  <point x="245" y="698"/>
	  <point x="240" y="684" type="curve" smooth="yes"/>
	  <point x="10" y="33" type="line" smooth="yes"/>
	  <point x="8" y="26"/>
	  <point x="7" y="22"/>
	  <point x="7" y="17" type="curve" smooth="yes"/>
	  <point x="7" y="5"/>
	  <point x="23" y="-2"/>
	  <point x="58" y="-2" type="curve" smooth="yes"/>
	  <point x="78" y="-2" type="line" smooth="yes"/>
	  <point x="100" y="-2"/>
	  <point x="116" y="3"/>
	  <point x="121" y="16" type="curve" smooth="yes"/>
	  <point x="170" y="162" type="line"/>
	  <point x="439" y="162" type="line"/>
	  <point x="490" y="16" type="line" smooth="yes"/>
	  <point x="494" y="2"/>
	  <point x="513" y="-2"/>
	  <point x="537" y="-2" type="curve" smooth="yes"/>
	  <point x="560" y="-2" type="line" smooth="yes"/>
	  <point x="593" y="-2"/>
	  <point x="606" y="5"/>
	  <point x="606" y="17" type="curve" smooth="yes"/>
	  <point x="606" y="22"/>
	  <point x="605" y="26"/>
	  <point x="603" y="32" type="curve" smooth="yes"/>
	  <point x="374" y="684" type="line" smooth="yes"/>
	  <point x="369" y="698"/>
	  <point x="350" y="702"/>
	  <point x="326" y="702" type="curve" smooth="yes"/>
	</contour>
	<contour>
	  <point x="311" y="549"/>
	  <point x="315" y="527"/>
	  <point x="321" y="508" type="curve" smooth="yes"/>
	  <point x="405" y="262" type="line"/>
	  <point x="205" y="262" type="line"/>
	  <point x="290" y="508" type="line" smooth="yes"/>
	  <point x="297" y="528"/>
	  <point x="301" y="549"/>
	  <point x="305" y="569" type="curve"/>
	  <point x="308" y="569" type="line"/>
	</contour>
	<contour>
	  <point x="570" y="0" type="move" name="ogonek"/>
	</contour>
	<contour>
	  <point x="310" y="0" type="move" name="bottom"/>
	</contour>
	<contour>
	  <point x="307" y="700" type="move" name="top"/>
	</contour>
  </outline>
</glyph>
<glyph name="B" format="1">
  <advance width="593"/>
  <unicode hex="0042"/>
  <outline>
    <contour>
      <point x="307" y="700" type="line" smooth="yes"/>
      <point x="464" y="700"/>
      <point x="536" y="628"/>
      <point x="536" y="523" type="curve" smooth="yes"/>
      <point x="536" y="456"/>
      <point x="486" y="391"/>
      <point x="427" y="371" type="curve"/>
      <point x="427" y="367" type="line"/>
      <point x="462" y="360"/>
      <point x="565" y="310"/>
      <point x="565" y="202" type="curve" smooth="yes"/>
      <point x="565" y="67"/>
      <point x="477" y="0"/>
      <point x="309" y="0" type="curve" smooth="yes"/>
      <point x="119" y="0" type="line" smooth="yes"/>
      <point x="95" y="0"/>
      <point x="85" y="10"/>
      <point x="85" y="34" type="curve" smooth="yes"/>
      <point x="85" y="666" type="line" smooth="yes"/>
      <point x="85" y="690"/>
      <point x="95" y="700"/>
      <point x="119" y="700" type="curve" smooth="yes"/>
    </contour>
    <contour>
      <point x="202" y="600" type="line"/>
      <point x="202" y="408" type="line"/>
      <point x="297" y="408" type="line" smooth="yes"/>
      <point x="369" y="408"/>
      <point x="416" y="452"/>
      <point x="416" y="507" type="curve" smooth="yes"/>
      <point x="416" y="570"/>
      <point x="379" y="600"/>
      <point x="296" y="600" type="curve" smooth="yes"/>
    </contour>
    <contour>
      <point x="202" y="308" type="line"/>
      <point x="202" y="100" type="line"/>
      <point x="327" y="100" type="line" smooth="yes"/>
      <point x="403" y="100"/>
      <point x="445" y="141"/>
      <point x="445" y="208" type="curve" smooth="yes"/>
      <point x="445" y="272"/>
      <point x="399" y="308"/>
      <point x="310" y="308" type="curve" smooth="yes"/>
    </contour>
  </outline>
</glyph>
<glyph name="C" format="1">
  <advance width="619"/>
  <unicode hex="0043"/>
  <outline>
	<contour>
	  <point x="163" y="707"/>
	  <point x="52" y="589"/>
	  <point x="52" y="351" type="curve" smooth="yes"/>
	  <point x="52" y="106"/>
	  <point x="156" y="-7"/>
	  <point x="377" y="-7" type="curve" smooth="yes"/>
	  <point x="478" y="-7"/>
	  <point x="591" y="29"/>
	  <point x="591" y="70" type="curve" smooth="yes"/>
	  <point x="591" y="85"/>
	  <point x="567" y="139"/>
	  <point x="546" y="139" type="curve" smooth="yes"/>
	  <point x="532" y="139"/>
	  <point x="477" y="93"/>
	  <point x="377" y="93" type="curve" smooth="yes"/>
	  <point x="238" y="93"/>
	  <point x="172" y="176"/>
	  <point x="172" y="350" type="curve" smooth="yes"/>
	  <point x="172" y="526"/>
	  <point x="239" y="606"/>
	  <point x="380" y="606" type="curve" smooth="yes"/>
	  <point x="476" y="606"/>
	  <point x="520" y="568"/>
	  <point x="532" y="568" type="curve" smooth="yes"/>
	  <point x="550" y="568"/>
	  <point x="579" y="620"/>
	  <point x="579" y="641" type="curve" smooth="yes"/>
	  <point x="579" y="675"/>
	  <point x="475" y="707"/>
	  <point x="380" y="707" type="curve" smooth="yes"/>
	</contour>
	<contour>
	  <point x="361" y="700" type="move" name="top"/>
	</contour>
	<contour>
	  <point x="366" y="0" type="move" name="bottom"/>
	</contour>
  </outline>
</glyph>
<glyph name="D" format="1">
  <advance width="695"/>
  <unicode hex="0044"/>
  <outline>
    <contour>
      <point x="331" y="700" type="line" smooth="yes"/>
      <point x="518" y="700"/>
      <point x="645" y="595"/>
      <point x="645" y="350" type="curve" smooth="yes"/>
      <point x="645" y="105"/>
      <point x="518" y="0"/>
      <point x="331" y="0" type="curve" smooth="yes"/>
      <point x="119" y="0" type="line" smooth="yes"/>
      <point x="95" y="0"/>
      <point x="85" y="10"/>
      <point x="85" y="34" type="curve" smooth="yes"/>
      <point x="85" y="666" type="line" smooth="yes"/>
      <point x="85" y="690"/>
      <point x="95" y="700"/>
      <point x="119" y="700" type="curve" smooth="yes"/>
    </contour>
    <contour>
      <point x="202" y="600" type="line"/>
      <point x="202" y="100" type="line"/>
      <point x="327" y="100" type="line" smooth="yes"/>
      <point x="444" y="100"/>
      <point x="524" y="175"/>
      <point x="524" y="350" type="curve" smooth="yes"/>
      <point x="524" y="524"/>
      <point x="444" y="600"/>
      <point x="327" y="600" type="curve" smooth="yes"/>
    </contour>
  </outline>
</glyph>
<glyph name="E" format="1">
  <advance width="546"/>
  <unicode hex="0045"/>
  <outline>
    <contour>
      <point x="476" y="700" type="line" smooth="yes"/>
      <point x="493" y="700"/>
      <point x="500" y="688"/>
      <point x="500" y="661" type="curve" smooth="yes"/>
      <point x="500" y="639" type="line" smooth="yes"/>
      <point x="500" y="612"/>
      <point x="493" y="600"/>
      <point x="476" y="600" type="curve" smooth="yes"/>
      <point x="202" y="600" type="line"/>
      <point x="202" y="408" type="line"/>
      <point x="447" y="408" type="line" smooth="yes"/>
      <point x="464" y="408"/>
      <point x="471" y="397"/>
      <point x="471" y="369" type="curve" smooth="yes"/>
      <point x="471" y="347" type="line" smooth="yes"/>
      <point x="471" y="320"/>
      <point x="464" y="308"/>
      <point x="447" y="308" type="curve" smooth="yes"/>
      <point x="202" y="308" type="line"/>
      <point x="202" y="100" type="line"/>
      <point x="477" y="100" type="line" smooth="yes"/>
      <point x="494" y="100"/>
      <point x="501" y="88"/>
      <point x="501" y="61" type="curve" smooth="yes"/>
      <point x="501" y="39" type="line" smooth="yes"/>
      <point x="501" y="12"/>
      <point x="494" y="0"/>
      <point x="477" y="0" type="curve" smooth="yes"/>
      <point x="119" y="0" type="line" smooth="yes"/>
      <point x="95" y="0"/>
      <point x="85" y="10"/>
      <point x="85" y="34" type="curve" smooth="yes"/>
      <point x="85" y="666" type="line" smooth="yes"/>
      <point x="85" y="690"/>
      <point x="95" y="700"/>
      <point x="119" y="700" type="curve" smooth="yes"/>
    </contour>
  </outline>
</glyph>
<glyph name="F" format="1">
  <advance width="503"/>
  <unicode hex="0046"/>
  <outline>
<<<<<<< HEAD
    <contour>
      <point x="443" y="700" type="line" smooth="yes"/>
      <point x="460" y="700"/>
      <point x="467" y="688"/>
      <point x="467" y="661" type="curve" smooth="yes"/>
      <point x="467" y="639" type="line" smooth="yes"/>
      <point x="467" y="612"/>
      <point x="460" y="600"/>
      <point x="443" y="600" type="curve" smooth="yes"/>
      <point x="202" y="600" type="line"/>
      <point x="202" y="408" type="line"/>
      <point x="429" y="408" type="line" smooth="yes"/>
      <point x="447" y="408"/>
      <point x="454" y="396"/>
      <point x="454" y="369" type="curve" smooth="yes"/>
      <point x="454" y="347" type="line" smooth="yes"/>
      <point x="454" y="319"/>
      <point x="447" y="308"/>
      <point x="429" y="308" type="curve" smooth="yes"/>
      <point x="202" y="308" type="line"/>
      <point x="202" y="24" type="line" smooth="yes"/>
      <point x="202" y="7"/>
      <point x="187" y="-2"/>
      <point x="153" y="-2" type="curve" smooth="yes"/>
      <point x="134" y="-2" type="line" smooth="yes"/>
      <point x="100" y="-2"/>
      <point x="85" y="7"/>
      <point x="85" y="24" type="curve" smooth="yes"/>
      <point x="85" y="666" type="line" smooth="yes"/>
      <point x="85" y="690"/>
      <point x="95" y="700"/>
      <point x="119" y="700" type="curve" smooth="yes"/>
    </contour>
  </outline>
</glyph>
<glyph name="G" format="1">
  <advance width="672"/>
  <unicode hex="0047"/>
  <outline>
	<contour>
	  <point x="166" y="707"/>
	  <point x="52" y="592"/>
	  <point x="52" y="347" type="curve" smooth="yes"/>
	  <point x="52" y="106"/>
	  <point x="160" y="-7"/>
	  <point x="370" y="-7" type="curve" smooth="yes"/>
	  <point x="465" y="-7"/>
	  <point x="597" y="7"/>
	  <point x="597" y="68" type="curve" smooth="yes"/>
	  <point x="597" y="339" type="line" smooth="yes"/>
	  <point x="597" y="363"/>
	  <point x="587" y="373"/>
	  <point x="563" y="373" type="curve" smooth="yes"/>
	  <point x="376" y="373" type="line" smooth="yes"/>
	  <point x="358" y="373"/>
	  <point x="351" y="362"/>
	  <point x="351" y="334" type="curve" smooth="yes"/>
	  <point x="351" y="312" type="line" smooth="yes"/>
	  <point x="351" y="284"/>
	  <point x="358" y="273"/>
	  <point x="376" y="273" type="curve" smooth="yes"/>
	  <point x="480" y="273" type="line"/>
	  <point x="480" y="104" type="line"/>
	  <point x="453" y="97"/>
	  <point x="415" y="93"/>
	  <point x="373" y="93" type="curve" smooth="yes"/>
	  <point x="223" y="93"/>
	  <point x="172" y="200"/>
	  <point x="172" y="352" type="curve" smooth="yes"/>
	  <point x="172" y="516"/>
	  <point x="229" y="606"/>
	  <point x="380" y="606" type="curve" smooth="yes"/>
	  <point x="476" y="606"/>
	  <point x="522" y="568"/>
	  <point x="534" y="568" type="curve" smooth="yes"/>
	  <point x="552" y="568"/>
	  <point x="581" y="620"/>
	  <point x="581" y="641" type="curve" smooth="yes"/>
	  <point x="581" y="675"/>
	  <point x="475" y="707"/>
	  <point x="380" y="707" type="curve" smooth="yes"/>
	</contour>
	<contour>
	  <point x="342" y="700" type="move" name="top"/>
	</contour>
	<contour>
	  <point x="373" y="0" type="move" name="bottom"/>
	</contour>
  </outline>
</glyph>
<glyph name="H" format="1">
  <advance width="733"/>
  <unicode hex="0048"/>
  <outline>
<<<<<<< HEAD
    <contour>
      <point x="599" y="702" type="line" smooth="yes"/>
      <point x="633" y="702"/>
      <point x="647" y="693"/>
      <point x="647" y="676" type="curve" smooth="yes"/>
      <point x="647" y="24" type="line" smooth="yes"/>
      <point x="647" y="7"/>
      <point x="633" y="-2"/>
      <point x="599" y="-2" type="curve" smooth="yes"/>
      <point x="579" y="-2" type="line" smooth="yes"/>
      <point x="545" y="-2"/>
      <point x="530" y="7"/>
      <point x="530" y="24" type="curve" smooth="yes"/>
      <point x="530" y="308" type="line"/>
      <point x="208" y="308" type="line"/>
      <point x="208" y="24" type="line" smooth="yes"/>
      <point x="208" y="7"/>
      <point x="194" y="-2"/>
      <point x="160" y="-2" type="curve" smooth="yes"/>
      <point x="140" y="-2" type="line" smooth="yes"/>
      <point x="106" y="-2"/>
      <point x="91" y="7"/>
      <point x="91" y="24" type="curve" smooth="yes"/>
      <point x="91" y="676" type="line" smooth="yes"/>
      <point x="91" y="693"/>
      <point x="106" y="702"/>
      <point x="140" y="702" type="curve" smooth="yes"/>
      <point x="160" y="702" type="line" smooth="yes"/>
      <point x="194" y="702"/>
      <point x="208" y="693"/>
      <point x="208" y="676" type="curve" smooth="yes"/>
      <point x="208" y="408" type="line"/>
      <point x="530" y="408" type="line"/>
      <point x="530" y="676" type="line" smooth="yes"/>
      <point x="530" y="693"/>
      <point x="545" y="702"/>
      <point x="579" y="702" type="curve" smooth="yes"/>
    </contour>
  </outline>
</glyph>
<glyph name="I" format="1">
  <advance width="282"/>
  <unicode hex="0049"/>
  <outline>
<<<<<<< HEAD
    <contour>
      <point x="151" y="702" type="line" smooth="yes"/>
      <point x="185" y="702"/>
      <point x="199" y="693"/>
      <point x="199" y="676" type="curve" smooth="yes"/>
      <point x="199" y="24" type="line" smooth="yes"/>
      <point x="199" y="7"/>
      <point x="185" y="-2"/>
      <point x="151" y="-2" type="curve" smooth="yes"/>
      <point x="131" y="-2" type="line" smooth="yes"/>
      <point x="97" y="-2"/>
      <point x="82" y="7"/>
      <point x="82" y="24" type="curve" smooth="yes"/>
      <point x="82" y="676" type="line" smooth="yes"/>
      <point x="82" y="693"/>
      <point x="97" y="702"/>
      <point x="131" y="702" type="curve" smooth="yes"/>
    </contour>
  </outline>
</glyph>
<glyph name="J" format="1">
  <advance width="402"/>
  <unicode hex="004A"/>
  <outline>
	<contour>
	  <point x="258" y="702" type="line" smooth="yes"/>
	  <point x="223" y="702"/>
	  <point x="209" y="693"/>
	  <point x="209" y="676" type="curve" smooth="yes"/>
	  <point x="209" y="209" type="line" smooth="yes"/>
	  <point x="209" y="129"/>
	  <point x="175" y="94"/>
	  <point x="93" y="94" type="curve" smooth="yes"/>
	  <point x="61" y="94"/>
	  <point x="42" y="103"/>
	  <point x="33" y="103" type="curve" smooth="yes"/>
	  <point x="11" y="102"/>
	  <point x="3" y="41"/>
	  <point x="3" y="31" type="curve" smooth="yes"/>
	  <point x="3" y="-3"/>
	  <point x="82" y="-7"/>
	  <point x="114" y="-7" type="curve" smooth="yes"/>
	  <point x="266" y="-7"/>
	  <point x="326" y="77"/>
	  <point x="326" y="204" type="curve" smooth="yes"/>
	  <point x="326" y="676" type="line" smooth="yes"/>
	  <point x="326" y="693"/>
	  <point x="311" y="702"/>
	  <point x="277" y="702" type="curve" smooth="yes"/>
	</contour>
	<contour>
	  <point x="267" y="700" type="move" name="top"/>
	</contour>
  </outline>
</glyph>
<glyph name="K" format="1">
  <advance width="576"/>
  <unicode hex="004B"/>
  <outline>
    <contour>
      <point x="477" y="702" type="line" smooth="yes"/>
      <point x="452" y="702"/>
      <point x="430" y="699"/>
      <point x="421" y="686" type="curve" smooth="yes"/>
      <point x="206" y="386" type="line"/>
      <point x="202" y="386" type="line"/>
      <point x="202" y="676" type="line" smooth="yes"/>
      <point x="202" y="693"/>
      <point x="188" y="702"/>
      <point x="154" y="702" type="curve" smooth="yes"/>
      <point x="134" y="702" type="line" smooth="yes"/>
      <point x="100" y="702"/>
      <point x="85" y="693"/>
      <point x="85" y="676" type="curve" smooth="yes"/>
      <point x="85" y="24" type="line" smooth="yes"/>
      <point x="85" y="7"/>
      <point x="100" y="-2"/>
      <point x="134" y="-2" type="curve" smooth="yes"/>
      <point x="154" y="-2" type="line" smooth="yes"/>
      <point x="188" y="-2"/>
      <point x="202" y="7"/>
      <point x="202" y="24" type="curve" smooth="yes"/>
      <point x="202" y="327" type="line"/>
      <point x="206" y="328" type="line"/>
      <point x="449" y="14" type="line" smooth="yes"/>
      <point x="460" y="0"/>
      <point x="482" y="-2"/>
      <point x="507" y="-2" type="curve" smooth="yes"/>
      <point x="539" y="-2" type="line" smooth="yes"/>
      <point x="574" y="-2"/>
      <point x="588" y="2"/>
      <point x="588" y="12" type="curve" smooth="yes"/>
      <point x="588" y="17"/>
      <point x="586" y="22"/>
      <point x="580" y="31" type="curve" smooth="yes"/>
      <point x="313" y="363" type="line"/>
      <point x="539" y="668" type="line" smooth="yes"/>
      <point x="545" y="676"/>
      <point x="548" y="683"/>
      <point x="548" y="688" type="curve" smooth="yes"/>
      <point x="548" y="696"/>
      <point x="534" y="702"/>
      <point x="504" y="702" type="curve" smooth="yes"/>
    </contour>
    <contour>
      <point x="297" y="700" type="move" name="top"/>
    </contour>
    <contour>
      <point x="292" y="0" type="move" name="bottom"/>
    </contour>
  </outline>
</glyph>
<glyph name="L" format="1">
  <advance width="484"/>
  <unicode hex="004C"/>
  <outline>
    <contour>
      <point x="153" y="702" type="line" smooth="yes"/>
      <point x="187" y="702"/>
      <point x="202" y="693"/>
      <point x="202" y="676" type="curve" smooth="yes"/>
      <point x="202" y="100" type="line"/>
      <point x="454" y="100" type="line" smooth="yes"/>
      <point x="471" y="100"/>
      <point x="478" y="88"/>
      <point x="478" y="61" type="curve" smooth="yes"/>
      <point x="478" y="39" type="line" smooth="yes"/>
      <point x="478" y="12"/>
      <point x="471" y="0"/>
      <point x="454" y="0" type="curve" smooth="yes"/>
      <point x="119" y="0" type="line" smooth="yes"/>
      <point x="95" y="0"/>
      <point x="85" y="10"/>
      <point x="85" y="34" type="curve" smooth="yes"/>
      <point x="85" y="676" type="line" smooth="yes"/>
      <point x="85" y="693"/>
      <point x="100" y="702"/>
      <point x="134" y="702" type="curve" smooth="yes"/>
    </contour>
  </outline>
</glyph>
<glyph name="M" format="1">
  <advance width="843"/>
  <unicode hex="004D"/>
  <outline>
<<<<<<< HEAD
    <contour>
      <point x="714" y="702" type="line" smooth="yes"/>
      <point x="748" y="702"/>
      <point x="762" y="693"/>
      <point x="762" y="676" type="curve" smooth="yes"/>
      <point x="762" y="24" type="line" smooth="yes"/>
      <point x="762" y="7"/>
      <point x="748" y="-2"/>
      <point x="714" y="-2" type="curve" smooth="yes"/>
      <point x="697" y="-2" type="line" smooth="yes"/>
      <point x="663" y="-2"/>
      <point x="648" y="7"/>
      <point x="648" y="24" type="curve" smooth="yes"/>
      <point x="648" y="508" type="line"/>
      <point x="645" y="506" type="line"/>
      <point x="470" y="198" type="line" smooth="yes"/>
      <point x="463" y="188"/>
      <point x="455" y="183"/>
      <point x="440" y="183" type="curve" smooth="yes"/>
      <point x="405" y="183" type="line" smooth="yes"/>
      <point x="391" y="183"/>
      <point x="382" y="188"/>
      <point x="375" y="198" type="curve" smooth="yes"/>
      <point x="198" y="510" type="line"/>
      <point x="195" y="512" type="line"/>
      <point x="195" y="24" type="line" smooth="yes"/>
      <point x="195" y="7"/>
      <point x="180" y="-2"/>
      <point x="146" y="-2" type="curve" smooth="yes"/>
      <point x="130" y="-2" type="line" smooth="yes"/>
      <point x="96" y="-2"/>
      <point x="81" y="7"/>
      <point x="81" y="24" type="curve" smooth="yes"/>
      <point x="81" y="676" type="line" smooth="yes"/>
      <point x="81" y="693"/>
      <point x="96" y="702"/>
      <point x="130" y="702" type="curve" smooth="yes"/>
      <point x="173" y="702" type="line" smooth="yes"/>
      <point x="199" y="702"/>
      <point x="216" y="695"/>
      <point x="224" y="680" type="curve" smooth="yes"/>
      <point x="404" y="365" type="line"/>
      <point x="422" y="323" type="line"/>
      <point x="441" y="363" type="line"/>
      <point x="621" y="680" type="line" smooth="yes"/>
      <point x="629" y="695"/>
      <point x="646" y="702"/>
      <point x="672" y="702" type="curve" smooth="yes"/>
    </contour>
  </outline>
</glyph>
<glyph name="N" format="1">
  <advance width="719"/>
  <unicode hex="004E"/>
  <outline>
    <contour>
      <point x="590" y="702" type="line" smooth="yes"/>
      <point x="624" y="702"/>
      <point x="638" y="693"/>
      <point x="638" y="676" type="curve" smooth="yes"/>
      <point x="638" y="24" type="line" smooth="yes"/>
      <point x="638" y="7"/>
      <point x="624" y="-2"/>
      <point x="590" y="-2" type="curve" smooth="yes"/>
      <point x="562" y="-2" type="line" smooth="yes"/>
      <point x="538" y="-2"/>
      <point x="523" y="3"/>
      <point x="513" y="18" type="curve" smooth="yes"/>
      <point x="219" y="463" type="line"/>
      <point x="195" y="506" type="line"/>
      <point x="195" y="24" type="line" smooth="yes"/>
      <point x="195" y="7"/>
      <point x="180" y="-2"/>
      <point x="146" y="-2" type="curve" smooth="yes"/>
      <point x="130" y="-2" type="line" smooth="yes"/>
      <point x="96" y="-2"/>
      <point x="81" y="7"/>
      <point x="81" y="24" type="curve" smooth="yes"/>
      <point x="81" y="676" type="line" smooth="yes"/>
      <point x="81" y="693"/>
      <point x="96" y="702"/>
      <point x="130" y="702" type="curve" smooth="yes"/>
      <point x="160" y="702" type="line" smooth="yes"/>
      <point x="185" y="702"/>
      <point x="201" y="697"/>
      <point x="213" y="680" type="curve" smooth="yes"/>
      <point x="496" y="249" type="line"/>
      <point x="524" y="200" type="line"/>
      <point x="524" y="676" type="line" smooth="yes"/>
      <point x="524" y="693"/>
      <point x="539" y="702"/>
      <point x="573" y="702" type="curve" smooth="yes"/>
    </contour>
  </outline>
</glyph>
<glyph name="O" format="1">
  <advance width="731"/>
  <unicode hex="004F"/>
  <outline>
    <contour>
      <point x="366" y="707" type="curve" smooth="yes"/>
      <point x="569" y="707"/>
      <point x="679" y="584"/>
      <point x="679" y="351" type="curve" smooth="yes"/>
      <point x="679" y="118"/>
      <point x="569" y="-7"/>
      <point x="366" y="-7" type="curve" smooth="yes"/>
      <point x="163" y="-7"/>
      <point x="52" y="118"/>
      <point x="52" y="351" type="curve" smooth="yes"/>
      <point x="52" y="584"/>
      <point x="163" y="707"/>
    </contour>
    <contour>
      <point x="365" y="606" type="curve" smooth="yes"/>
      <point x="239" y="606"/>
      <point x="172" y="519"/>
      <point x="172" y="351" type="curve" smooth="yes"/>
      <point x="172" y="183"/>
      <point x="239" y="93"/>
      <point x="365" y="93" type="curve" smooth="yes"/>
      <point x="492" y="93"/>
      <point x="559" y="183"/>
      <point x="559" y="351" type="curve" smooth="yes"/>
      <point x="559" y="519"/>
      <point x="492" y="606"/>
    </contour>
  </outline>
</glyph>
<glyph name="P" format="1">
  <advance width="570"/>
  <unicode hex="0050"/>
  <outline>
    <contour>
      <point x="112" y="700" type="line" smooth="yes"/>
      <point x="88" y="700"/>
      <point x="78" y="690"/>
      <point x="78" y="666" type="curve" smooth="yes"/>
      <point x="78" y="24" type="line" smooth="yes"/>
      <point x="78" y="7"/>
      <point x="93" y="-2"/>
      <point x="127" y="-2" type="curve" smooth="yes"/>
      <point x="146" y="-2" type="line" smooth="yes"/>
      <point x="180" y="-2"/>
      <point x="195" y="7"/>
      <point x="195" y="24" type="curve" smooth="yes"/>
      <point x="195" y="282" type="line"/>
      <point x="328" y="282" type="line" smooth="yes"/>
      <point x="381" y="282"/>
      <point x="548" y="307"/>
      <point x="548" y="494" type="curve" smooth="yes"/>
      <point x="548" y="673"/>
      <point x="406" y="700"/>
      <point x="318" y="700" type="curve" smooth="yes"/>
    </contour>
    <contour>
      <point x="364" y="600"/>
      <point x="428" y="581"/>
      <point x="428" y="494" type="curve" smooth="yes"/>
      <point x="428" y="401"/>
      <point x="361" y="383"/>
      <point x="322" y="383" type="curve" smooth="yes"/>
      <point x="195" y="383" type="line"/>
      <point x="195" y="600" type="line"/>
      <point x="314" y="600" type="line" smooth="yes"/>
    </contour>
  </outline>
</glyph>
<glyph name="Q" format="1">
  <advance width="731"/>
  <unicode hex="0051"/>
  <outline>
    <contour>
      <point x="366" y="707" type="curve" smooth="yes"/>
      <point x="569" y="707"/>
      <point x="678.999" y="580.999"/>
      <point x="678.999" y="347.999" type="curve" smooth="yes"/>
      <point x="678.999" y="171.999"/>
      <point x="614.999" y="58.999"/>
      <point x="497.999" y="15.999" type="curve"/>
      <point x="497.999" y="11.999" type="line"/>
      <point x="674.999" y="-47.001" type="line" smooth="yes"/>
      <point x="683.999" y="-50.001"/>
      <point x="688.999" y="-55.001"/>
      <point x="688.999" y="-62.001" type="curve" smooth="yes"/>
      <point x="688.999" y="-76.001"/>
      <point x="668.999" y="-147.001"/>
      <point x="641.999" y="-147.001" type="curve" smooth="yes"/>
      <point x="632.779" y="-147.001"/>
      <point x="491.609" y="-90.8506"/>
      <point x="331.979" y="-27.3604" type="curve" smooth="yes"/>
      <point x="301.069" y="-15.0605"/>
      <point x="269.47" y="-2.49023"/>
      <point x="238" y="10" type="curve" smooth="yes"/>
      <point x="115" y="59"/>
      <point x="52" y="172"/>
      <point x="52" y="348" type="curve" smooth="yes"/>
      <point x="52" y="582"/>
      <point x="163" y="707"/>
    </contour>
    <contour>
      <point x="364.999" y="605.999" type="curve" smooth="yes"/>
      <point x="240.999" y="605.999"/>
      <point x="171.999" y="515.999"/>
      <point x="171.999" y="347.999" type="curve" smooth="yes"/>
      <point x="171.999" y="179.999"/>
      <point x="240.999" y="89.999"/>
      <point x="364.999" y="89.999" type="curve" smooth="yes"/>
      <point x="489.999" y="89.999"/>
      <point x="558.999" y="180.999"/>
      <point x="558.999" y="347.999" type="curve" smooth="yes"/>
      <point x="558.999" y="514.999"/>
      <point x="489.999" y="605.999"/>
    </contour>
  </outline>
</glyph>
<glyph name="R" format="1">
  <advance width="610"/>
  <unicode hex="0052"/>
  <outline>
	<contour>
	  <point x="119" y="700" type="line" smooth="yes"/>
	  <point x="95" y="700"/>
	  <point x="85" y="690"/>
	  <point x="85" y="666" type="curve" smooth="yes"/>
	  <point x="85" y="24" type="line" smooth="yes"/>
	  <point x="85" y="7"/>
	  <point x="100" y="-2"/>
	  <point x="134" y="-2" type="curve" smooth="yes"/>
	  <point x="153" y="-2" type="line" smooth="yes"/>
	  <point x="187" y="-2"/>
	  <point x="202" y="7"/>
	  <point x="202" y="24" type="curve" smooth="yes"/>
	  <point x="202" y="293" type="line"/>
	  <point x="270" y="293" type="line" smooth="yes"/>
	  <point x="342" y="293"/>
	  <point x="372" y="273"/>
	  <point x="398" y="212" type="curve" smooth="yes"/>
	  <point x="475" y="16" type="line" smooth="yes"/>
	  <point x="480" y="4"/>
	  <point x="499" y="-2"/>
	  <point x="523" y="-2" type="curve" smooth="yes"/>
	  <point x="546" y="-2" type="line" smooth="yes"/>
	  <point x="581" y="-2"/>
	  <point x="596" y="5"/>
	  <point x="596" y="16" type="curve" smooth="yes"/>
	  <point x="596" y="20"/>
	  <point x="595" y="25"/>
	  <point x="592" y="32" type="curve" smooth="yes"/>
	  <point x="510" y="239" type="line" smooth="yes"/>
	  <point x="488" y="295"/>
	  <point x="462" y="337"/>
	  <point x="428" y="350" type="curve"/>
	  <point x="428" y="354" type="line"/>
	  <point x="497" y="381"/>
	  <point x="544" y="436"/>
	  <point x="544" y="518" type="curve" smooth="yes"/>
	  <point x="544" y="642"/>
	  <point x="463" y="700"/>
	  <point x="299" y="700" type="curve" smooth="yes"/>
	</contour>
	<contour>
	  <point x="379" y="600"/>
	  <point x="424" y="567"/>
	  <point x="424" y="501" type="curve" smooth="yes"/>
	  <point x="424" y="443"/>
	  <point x="376" y="394"/>
	  <point x="318" y="394" type="curve" smooth="yes"/>
	  <point x="202" y="394" type="line"/>
	  <point x="202" y="600" type="line"/>
	  <point x="311" y="600" type="line" smooth="yes"/>
	</contour>
	<contour>
	  <point x="305" y="700" type="move" name="top"/>
	</contour>
	<contour>
	  <point x="305" y="0" type="move" name="bottom"/>
	</contour>
  </outline>
</glyph>
<glyph name="S" format="1">
  <advance width="500"/>
  <unicode hex="0053"/>
  <outline>
    <contour>
      <point x="145" y="707"/>
      <point x="43" y="638"/>
      <point x="43" y="514" type="curve" smooth="yes"/>
      <point x="43" y="388"/>
      <point x="122" y="349"/>
      <point x="200" y="316" type="curve" smooth="yes"/>
      <point x="277" y="284"/>
      <point x="353" y="261"/>
      <point x="353" y="190" type="curve" smooth="yes"/>
      <point x="353" y="125"/>
      <point x="299" y="93"/>
      <point x="238" y="93" type="curve" smooth="yes"/>
      <point x="145" y="93"/>
      <point x="92" y="142"/>
      <point x="77" y="142" type="curve" smooth="yes"/>
      <point x="61" y="142"/>
      <point x="30" y="95"/>
      <point x="30" y="73" type="curve" smooth="yes"/>
      <point x="30" y="43"/>
      <point x="117" y="-7"/>
      <point x="249" y="-7" type="curve" smooth="yes"/>
      <point x="373" y="-7"/>
      <point x="473" y="59"/>
      <point x="473" y="198" type="curve" smooth="yes"/>
      <point x="473" y="334"/>
      <point x="373" y="374"/>
      <point x="287" y="408" type="curve" smooth="yes"/>
      <point x="221" y="434"/>
      <point x="164" y="453"/>
      <point x="164" y="518" type="curve" smooth="yes"/>
      <point x="164" y="569"/>
      <point x="201" y="606"/>
      <point x="277" y="606" type="curve" smooth="yes"/>
      <point x="351" y="606"/>
      <point x="385" y="574"/>
      <point x="399" y="574" type="curve" smooth="yes"/>
      <point x="415" y="574"/>
      <point x="441" y="622"/>
      <point x="441" y="642" type="curve" smooth="yes"/>
      <point x="441" y="677"/>
      <point x="350" y="707"/>
      <point x="272" y="707" type="curve" smooth="yes"/>
    </contour>
    <contour>
      <point x="250" y="700" type="move" name="top"/>
    </contour>
    <contour>
      <point x="250" y="0" type="move" name="bottom"/>
    </contour>
  </outline>
</glyph>
<glyph name="T" format="1">
  <advance width="549"/>
  <unicode hex="0054"/>
  <outline>
    <contour>
      <point x="510" y="700" type="line" smooth="yes"/>
      <point x="527" y="700"/>
      <point x="534" y="688"/>
      <point x="534" y="661" type="curve" smooth="yes"/>
      <point x="534" y="639" type="line" smooth="yes"/>
      <point x="534" y="612"/>
      <point x="527" y="600"/>
      <point x="510" y="600" type="curve" smooth="yes"/>
      <point x="334" y="600" type="line"/>
      <point x="334" y="24" type="line" smooth="yes"/>
      <point x="334" y="7"/>
      <point x="320" y="-2"/>
      <point x="285" y="-2" type="curve" smooth="yes"/>
      <point x="266" y="-2" type="line" smooth="yes"/>
      <point x="232" y="-2"/>
      <point x="217" y="7"/>
      <point x="217" y="24" type="curve" smooth="yes"/>
      <point x="217" y="600" type="line"/>
      <point x="39" y="600" type="line" smooth="yes"/>
      <point x="22" y="600"/>
      <point x="15" y="612"/>
      <point x="15" y="639" type="curve" smooth="yes"/>
      <point x="15" y="661" type="line" smooth="yes"/>
      <point x="15" y="688"/>
      <point x="22" y="700"/>
      <point x="39" y="700" type="curve" smooth="yes"/>
    </contour>
  </outline>
</glyph>
<glyph name="U" format="1">
  <advance width="712"/>
  <unicode hex="0055"/>
  <outline>
    <contour>
      <point x="588" y="702" type="line" smooth="yes"/>
      <point x="622" y="702"/>
      <point x="637" y="693"/>
      <point x="637" y="676" type="curve" smooth="yes"/>
      <point x="637" y="228" type="line" smooth="yes"/>
      <point x="637" y="80"/>
      <point x="535" y="-7"/>
      <point x="356" y="-7" type="curve" smooth="yes"/>
      <point x="177" y="-7"/>
      <point x="76" y="80"/>
      <point x="76" y="228" type="curve" smooth="yes"/>
      <point x="76" y="676" type="line" smooth="yes"/>
      <point x="76" y="693"/>
      <point x="91" y="702"/>
      <point x="125" y="702" type="curve" smooth="yes"/>
      <point x="144" y="702" type="line" smooth="yes"/>
      <point x="178" y="702"/>
      <point x="193" y="693"/>
      <point x="193" y="676" type="curve" smooth="yes"/>
      <point x="193" y="231" type="line" smooth="yes"/>
      <point x="193" y="150"/>
      <point x="261" y="93"/>
      <point x="356" y="93" type="curve" smooth="yes"/>
      <point x="452" y="93"/>
      <point x="520" y="151"/>
      <point x="520" y="231" type="curve" smooth="yes"/>
      <point x="520" y="676" type="line" smooth="yes"/>
      <point x="520" y="693"/>
      <point x="535" y="702"/>
      <point x="569" y="702" type="curve" smooth="yes"/>
    </contour>
  </outline>
</glyph>
<glyph name="V" format="1">
  <advance width="617"/>
  <unicode hex="0056"/>
  <outline>
<<<<<<< HEAD
    <contour>
      <point x="551" y="702" type="line" smooth="yes"/>
      <point x="586" y="702"/>
      <point x="601" y="695"/>
      <point x="601" y="683" type="curve" smooth="yes"/>
      <point x="601" y="678"/>
      <point x="600" y="674"/>
      <point x="598" y="667" type="curve" smooth="yes"/>
      <point x="375" y="16" type="line" smooth="yes"/>
      <point x="370" y="2"/>
      <point x="352" y="-2"/>
      <point x="328" y="-2" type="curve" smooth="yes"/>
      <point x="288" y="-2" type="line" smooth="yes"/>
      <point x="264" y="-2"/>
      <point x="245" y="2"/>
      <point x="241" y="16" type="curve" smooth="yes"/>
      <point x="17" y="668" type="line" smooth="yes"/>
      <point x="15" y="674"/>
      <point x="14" y="678"/>
      <point x="14" y="683" type="curve" smooth="yes"/>
      <point x="14" y="695"/>
      <point x="30" y="702"/>
      <point x="65" y="702" type="curve" smooth="yes"/>
      <point x="84" y="702" type="line" smooth="yes"/>
      <point x="108" y="702"/>
      <point x="127" y="697"/>
      <point x="133" y="680" type="curve" smooth="yes"/>
      <point x="296" y="190" type="line"/>
      <point x="306" y="146" type="line"/>
      <point x="310" y="146" type="line"/>
      <point x="321" y="191" type="line"/>
      <point x="486" y="680" type="line" smooth="yes"/>
      <point x="491" y="696"/>
      <point x="510" y="702"/>
      <point x="534" y="702" type="curve" smooth="yes"/>
    </contour>
  </outline>
</glyph>
<glyph name="W" format="1">
  <advance width="882"/>
  <unicode hex="0057"/>
  <outline>
	<contour>
	  <point x="816" y="702" type="line" smooth="yes"/>
	  <point x="788" y="702"/>
	  <point x="768" y="695"/>
	  <point x="764" y="679" type="curve" smooth="yes"/>
	  <point x="662" y="263" type="line"/>
	  <point x="654" y="228"/>
	  <point x="644" y="185"/>
	  <point x="634" y="143" type="curve"/>
	  <point x="628" y="168"/>
	  <point x="618" y="225"/>
	  <point x="609" y="261" type="curve" smooth="yes"/>
	  <point x="505" y="683" type="line" smooth="yes"/>
	  <point x="502" y="698"/>
	  <point x="484" y="702"/>
	  <point x="459" y="702" type="curve" smooth="yes"/>
	  <point x="433" y="702" type="line" smooth="yes"/>
	  <point x="408" y="702"/>
	  <point x="391" y="698"/>
	  <point x="387" y="683" type="curve" smooth="yes"/>
	  <point x="283" y="263" type="line"/>
	  <point x="275" y="230"/>
	  <point x="263" y="189"/>
	  <point x="255" y="146" type="curve"/>
	  <point x="249" y="173"/>
	  <point x="239" y="232"/>
	  <point x="231" y="262" type="curve" smooth="yes"/>
	  <point x="127" y="679" type="line" smooth="yes"/>
	  <point x="123" y="695"/>
	  <point x="104" y="702"/>
	  <point x="75" y="702" type="curve" smooth="yes"/>
	  <point x="58" y="702" type="line" smooth="yes"/>
	  <point x="23" y="702"/>
	  <point x="7" y="694"/>
	  <point x="7" y="681" type="curve" smooth="yes"/>
	  <point x="7" y="677"/>
	  <point x="8" y="672"/>
	  <point x="10" y="667" type="curve" smooth="yes"/>
	  <point x="175" y="16" type="line" smooth="yes"/>
	  <point x="178" y="3"/>
	  <point x="196" y="-2"/>
	  <point x="221" y="-2" type="curve" smooth="yes"/>
	  <point x="276" y="-2" type="line" smooth="yes"/>
	  <point x="299" y="-2"/>
	  <point x="319" y="3"/>
	  <point x="323" y="16" type="curve" smooth="yes"/>
	  <point x="421" y="397" type="line"/>
	  <point x="440" y="500" type="line"/>
	  <point x="459" y="397" type="line"/>
	  <point x="556" y="16" type="line" smooth="yes"/>
	  <point x="559" y="3"/>
	  <point x="579" y="-2"/>
	  <point x="603" y="-2" type="curve" smooth="yes"/>
	  <point x="658" y="-2" type="line" smooth="yes"/>
	  <point x="681" y="-2"/>
	  <point x="701" y="3"/>
	  <point x="704" y="16" type="curve" smooth="yes"/>
	  <point x="873" y="667" type="line" smooth="yes"/>
	  <point x="874" y="672"/>
	  <point x="876" y="678"/>
	  <point x="876" y="681" type="curve" smooth="yes"/>
	  <point x="876" y="694"/>
	  <point x="860" y="702"/>
	  <point x="824" y="702" type="curve" smooth="yes"/>
	</contour>
	<contour>
	  <point x="441" y="700" type="move" name="top"/>
	</contour>
  </outline>
</glyph>
<glyph name="X" format="1">
  <advance width="611"/>
  <unicode hex="0058"/>
  <outline>
    <contour>
      <point x="525" y="702" type="line" smooth="yes"/>
      <point x="563" y="702"/>
      <point x="579" y="696"/>
      <point x="579" y="684" type="curve" smooth="yes"/>
      <point x="579" y="679"/>
      <point x="575" y="671"/>
      <point x="570" y="663" type="curve" smooth="yes"/>
      <point x="375" y="367" type="line"/>
      <point x="589" y="37" type="line" smooth="yes"/>
      <point x="594" y="29"/>
      <point x="597" y="22"/>
      <point x="597" y="16" type="curve" smooth="yes"/>
      <point x="597" y="4"/>
      <point x="582" y="-2"/>
      <point x="544" y="-2" type="curve" smooth="yes"/>
      <point x="518" y="-2" type="line" smooth="yes"/>
      <point x="493" y="-2"/>
      <point x="476" y="1"/>
      <point x="467" y="15" type="curve" smooth="yes"/>
      <point x="305" y="264" type="line"/>
      <point x="140" y="14" type="line" smooth="yes"/>
      <point x="131" y="0"/>
      <point x="112" y="-2"/>
      <point x="90" y="-2" type="curve" smooth="yes"/>
      <point x="68" y="-2" type="line" smooth="yes"/>
      <point x="31" y="-2"/>
      <point x="15" y="4"/>
      <point x="15" y="16" type="curve" smooth="yes"/>
      <point x="15" y="21"/>
      <point x="18" y="28"/>
      <point x="24" y="37" type="curve" smooth="yes"/>
      <point x="240" y="365" type="line"/>
      <point x="47" y="663" type="line" smooth="yes"/>
      <point x="42" y="671"/>
      <point x="39" y="678"/>
      <point x="39" y="684" type="curve" smooth="yes"/>
      <point x="39" y="695"/>
      <point x="54" y="702"/>
      <point x="92" y="702" type="curve" smooth="yes"/>
      <point x="118" y="702" type="line" smooth="yes"/>
      <point x="143" y="702"/>
      <point x="160" y="699"/>
      <point x="169" y="685" type="curve" smooth="yes"/>
      <point x="309" y="468" type="line"/>
      <point x="454" y="686" type="line" smooth="yes"/>
      <point x="463" y="699"/>
      <point x="482" y="702"/>
      <point x="505" y="702" type="curve" smooth="yes"/>
    </contour>
  </outline>
</glyph>
<glyph name="Y" format="1">
  <advance width="559"/>
  <unicode hex="0059"/>
  <outline>
    <contour>
      <point x="502" y="702" type="line" smooth="yes"/>
      <point x="537" y="701"/>
      <point x="551.999" y="695"/>
      <point x="551.999" y="684" type="curve" smooth="yes"/>
      <point x="551.999" y="678.76"/>
      <point x="548.949" y="672.76"/>
      <point x="545.52" y="666" type="curve" smooth="yes"/>
      <point x="545.02" y="665.01"/>
      <point x="544.51" y="664.01"/>
      <point x="544" y="663" type="curve" smooth="yes"/>
      <point x="338" y="346" type="line"/>
      <point x="338" y="24" type="line" smooth="yes"/>
      <point x="338" y="7"/>
      <point x="324" y="-2"/>
      <point x="290" y="-2" type="curve" smooth="yes"/>
      <point x="270" y="-2" type="line" smooth="yes"/>
      <point x="236" y="-2"/>
      <point x="222" y="7"/>
      <point x="222" y="24" type="curve" smooth="yes"/>
      <point x="222" y="349" type="line"/>
      <point x="17" y="663" type="line" smooth="yes"/>
      <point x="11" y="671"/>
      <point x="8" y="678"/>
      <point x="8" y="684" type="curve" smooth="yes"/>
      <point x="8" y="695"/>
      <point x="23" y="702"/>
      <point x="62" y="702" type="curve" smooth="yes"/>
      <point x="87" y="702" type="line" smooth="yes"/>
      <point x="111" y="702"/>
      <point x="129" y="699"/>
      <point x="137" y="685" type="curve" smooth="yes"/>
      <point x="283" y="453" type="line"/>
      <point x="431" y="686" type="line" smooth="yes"/>
      <point x="439" y="699"/>
      <point x="459" y="702"/>
      <point x="483" y="702" type="curve" smooth="yes"/>
    </contour>
  </outline>
</glyph>
<glyph name="Z" format="1">
  <advance width="616"/>
  <unicode hex="005A"/>
  <outline>
<<<<<<< HEAD
    <contour>
      <point x="546" y="700" type="line" smooth="yes"/>
      <point x="557" y="700"/>
      <point x="575" y="653"/>
      <point x="575" y="630" type="curve" smooth="yes"/>
      <point x="575" y="625"/>
      <point x="574" y="622"/>
      <point x="573" y="620" type="curve" smooth="yes"/>
      <point x="196" y="100" type="line"/>
      <point x="549" y="100" type="line" smooth="yes"/>
      <point x="566" y="100"/>
      <point x="574" y="88"/>
      <point x="574" y="59" type="curve" smooth="yes"/>
      <point x="574" y="41" type="line" smooth="yes"/>
      <point x="574" y="12"/>
      <point x="566" y="0"/>
      <point x="549" y="0" type="curve" smooth="yes"/>
      <point x="64" y="0" type="line" smooth="yes"/>
      <point x="50" y="0"/>
      <point x="33" y="46"/>
      <point x="33" y="69" type="curve" smooth="yes"/>
      <point x="33" y="73"/>
      <point x="34" y="77"/>
      <point x="36" y="80" type="curve" smooth="yes"/>
      <point x="413" y="600" type="line"/>
      <point x="89" y="600" type="line" smooth="yes"/>
      <point x="72" y="600"/>
      <point x="64" y="612"/>
      <point x="64" y="641" type="curve" smooth="yes"/>
      <point x="64" y="659" type="line" smooth="yes"/>
      <point x="64" y="688"/>
      <point x="72" y="700"/>
      <point x="89" y="700" type="curve" smooth="yes"/>
    </contour>
  </outline>
</glyph>
<glyph name="bracketleft" format="1">
  <advance width="291"/>
  <unicode hex="005B"/>
  <outline>
    <contour>
      <point x="113" y="768" type="line" smooth="yes"/>
      <point x="89" y="768"/>
      <point x="79" y="758"/>
      <point x="79" y="734" type="curve" smooth="yes"/>
      <point x="79" y="-104" type="line" smooth="yes"/>
      <point x="79" y="-128"/>
      <point x="89" y="-138"/>
      <point x="113" y="-138" type="curve" smooth="yes"/>
      <point x="237" y="-138" type="line" smooth="yes"/>
      <point x="254" y="-138"/>
      <point x="261" y="-128"/>
      <point x="261" y="-104" type="curve" smooth="yes"/>
      <point x="261" y="-95" type="line" smooth="yes"/>
      <point x="261" y="-71"/>
      <point x="254" y="-62"/>
      <point x="237" y="-62" type="curve" smooth="yes"/>
      <point x="171" y="-62" type="line"/>
      <point x="171" y="691" type="line"/>
      <point x="237" y="691" type="line" smooth="yes"/>
      <point x="254" y="691"/>
      <point x="261" y="701"/>
      <point x="261" y="725" type="curve" smooth="yes"/>
      <point x="261" y="734" type="line" smooth="yes"/>
      <point x="261" y="758"/>
      <point x="254" y="768"/>
      <point x="237" y="768" type="curve" smooth="yes"/>
    </contour>
  </outline>
</glyph>
<glyph name="backslash" format="1">
  <advance width="361"/>
  <unicode hex="005C"/>
  <outline>
    <contour>
      <point x="49" y="702" type="line" smooth="yes"/>
      <point x="72" y="702"/>
      <point x="87" y="695"/>
      <point x="94" y="676" type="curve" smooth="yes"/>
      <point x="356" y="12" type="line" smooth="yes"/>
      <point x="358" y="7"/>
      <point x="359" y="2"/>
      <point x="359" y="-3" type="curve" smooth="yes"/>
      <point x="359" y="-14"/>
      <point x="348" y="-21"/>
      <point x="326" y="-21" type="curve" smooth="yes"/>
      <point x="313" y="-21" type="line" smooth="yes"/>
      <point x="290" y="-21"/>
      <point x="276" y="-13"/>
      <point x="269" y="5" type="curve" smooth="yes"/>
      <point x="7" y="669" type="line" smooth="yes"/>
      <point x="5" y="674"/>
      <point x="4" y="679"/>
      <point x="4" y="683" type="curve" smooth="yes"/>
      <point x="4" y="694"/>
      <point x="14" y="702"/>
      <point x="36" y="702" type="curve" smooth="yes"/>
    </contour>
  </outline>
</glyph>
<glyph name="bracketright" format="1">
  <advance width="291"/>
  <unicode hex="005D"/>
  <outline>
    <contour>
      <point x="54" y="768" type="line" smooth="yes"/>
      <point x="37" y="768"/>
      <point x="30" y="758"/>
      <point x="30" y="734" type="curve" smooth="yes"/>
      <point x="30" y="725" type="line" smooth="yes"/>
      <point x="30" y="701"/>
      <point x="37" y="691"/>
      <point x="54" y="691" type="curve" smooth="yes"/>
      <point x="120" y="691" type="line"/>
      <point x="120" y="-62" type="line"/>
      <point x="54" y="-62" type="line" smooth="yes"/>
      <point x="37" y="-62"/>
      <point x="30" y="-71"/>
      <point x="30" y="-95" type="curve" smooth="yes"/>
      <point x="30" y="-104" type="line" smooth="yes"/>
      <point x="30" y="-128"/>
      <point x="37" y="-138"/>
      <point x="54" y="-138" type="curve" smooth="yes"/>
      <point x="178" y="-138" type="line" smooth="yes"/>
      <point x="202" y="-138"/>
      <point x="212" y="-128"/>
      <point x="212" y="-104" type="curve" smooth="yes"/>
      <point x="212" y="734" type="line" smooth="yes"/>
      <point x="212" y="758"/>
      <point x="202" y="768"/>
      <point x="178" y="768" type="curve" smooth="yes"/>
    </contour>
  </outline>
</glyph>
<glyph name="asciicircum" format="1">
  <advance width="450"/>
  <unicode hex="005E"/>
  <outline>
    <contour>
      <point x="237" y="685" type="line" smooth="yes"/>
      <point x="256" y="685"/>
      <point x="267" y="678"/>
      <point x="275" y="661" type="curve" smooth="yes"/>
      <point x="402" y="352" type="line" smooth="yes"/>
      <point x="404" y="347"/>
      <point x="405" y="342"/>
      <point x="405" y="338" type="curve" smooth="yes"/>
      <point x="405" y="326"/>
      <point x="395" y="319"/>
      <point x="376" y="319" type="curve" smooth="yes"/>
      <point x="365" y="319" type="line" smooth="yes"/>
      <point x="344" y="319"/>
      <point x="329" y="327"/>
      <point x="322" y="345" type="curve" smooth="yes"/>
      <point x="225" y="583" type="line"/>
      <point x="127" y="345" type="line" smooth="yes"/>
      <point x="119" y="327"/>
      <point x="107" y="319"/>
      <point x="86" y="319" type="curve" smooth="yes"/>
      <point x="74" y="319" type="line" smooth="yes"/>
      <point x="55" y="319"/>
      <point x="45" y="326"/>
      <point x="45" y="338" type="curve" smooth="yes"/>
      <point x="45" y="342"/>
      <point x="46" y="347"/>
      <point x="48" y="352" type="curve" smooth="yes"/>
      <point x="175" y="661" type="line" smooth="yes"/>
      <point x="182" y="678"/>
      <point x="194" y="685"/>
      <point x="213" y="685" type="curve" smooth="yes"/>
    </contour>
  </outline>
</glyph>
<glyph name="underscore" format="1">
  <advance width="534"/>
  <unicode hex="005F"/>
  <outline>
    <contour>
      <point x="531" y="-66" type="line" smooth="yes"/>
      <point x="548" y="-66"/>
      <point x="555" y="-76"/>
      <point x="555" y="-100" type="curve" smooth="yes"/>
      <point x="555" y="-107" type="line" smooth="yes"/>
      <point x="555" y="-130"/>
      <point x="548" y="-140"/>
      <point x="531" y="-140" type="curve" smooth="yes"/>
      <point x="4" y="-140" type="line" smooth="yes"/>
      <point x="-13" y="-140"/>
      <point x="-20" y="-130"/>
      <point x="-20" y="-107" type="curve" smooth="yes"/>
      <point x="-20" y="-100" type="line" smooth="yes"/>
      <point x="-20" y="-76"/>
      <point x="-13" y="-66"/>
      <point x="4" y="-66" type="curve" smooth="yes"/>
    </contour>
  </outline>
</glyph>
<glyph name="grave" format="1">
  <advance width="320"/>
  <unicode hex="0060"/>
  <outline>
    <contour>
      <point x="118" y="733" type="curve" smooth="yes"/>
      <point x="154" y="733"/>
      <point x="179.001" y="725.99"/>
      <point x="190.001" y="705.99" type="curve" smooth="yes"/>
      <point x="200.131" y="688.36"/>
      <point x="208.761" y="673.5"/>
      <point x="216.061" y="660.94" type="curve" smooth="yes"/>
      <point x="241.87" y="616.49"/>
      <point x="250.99" y="600.79"/>
      <point x="250.99" y="592.99" type="curve" smooth="yes"/>
      <point x="250.99" y="583.99"/>
      <point x="243.99" y="580.99"/>
      <point x="224.99" y="580.99" type="curve" smooth="yes"/>
      <point x="191.99" y="580.99"/>
      <point x="173.99" y="589.99"/>
      <point x="162.99" y="601.99" type="curve" smooth="yes"/>
      <point x="139.4" y="628.5"/>
      <point x="121.431" y="648.41"/>
      <point x="107.761" y="663.55" type="curve" smooth="yes"/>
      <point x="69.8604" y="705.53"/>
      <point x="65" y="710.91"/>
      <point x="65" y="719" type="curve" smooth="yes"/>
      <point x="65" y="730"/>
      <point x="83" y="733"/>
    </contour>
  </outline>
</glyph>
<glyph name="a" format="1">
  <advance width="545"/>
  <unicode hex="0061"/>
  <outline>
<<<<<<< HEAD
    <contour>
      <point x="265" y="530" type="curve" smooth="yes"/>
      <point x="404" y="530"/>
      <point x="469.999" y="466.99"/>
      <point x="469.999" y="368.99" type="curve" smooth="yes"/>
      <point x="469.999" y="159.99" type="line" smooth="yes"/>
      <point x="469.999" y="93.2305"/>
      <point x="476.459" y="58.7705"/>
      <point x="479.899" y="40.4004" type="curve" smooth="yes"/>
      <point x="481.149" y="33.7305"/>
      <point x="481.999" y="29.1904"/>
      <point x="481.999" y="25.9902" type="curve" smooth="yes"/>
      <point x="481.999" y="4.99023"/>
      <point x="420.999" y="-1.00977"/>
      <point x="402.999" y="-1.00977" type="curve" smooth="yes"/>
      <point x="379.079" y="-1.00977"/>
      <point x="373.399" y="29.6406"/>
      <point x="368.52" y="56.0303" type="curve" smooth="yes"/>
      <point x="367.68" y="60.5303"/>
      <point x="366.87" y="64.9102"/>
      <point x="366" y="68.9902" type="curve"/>
      <point x="341" y="38.9902"/>
      <point x="289" y="-7.00977"/>
      <point x="207" y="-7.00977" type="curve" smooth="yes"/>
      <point x="105" y="-7.00977"/>
      <point x="46" y="47.9902"/>
      <point x="46" y="140.99" type="curve" smooth="yes"/>
      <point x="46" y="271.99"/>
      <point x="161" y="323.99"/>
      <point x="358" y="324.99" type="curve"/>
      <point x="358" y="365.99" type="line" smooth="yes"/>
      <point x="358" y="407.99"/>
      <point x="333" y="437.99"/>
      <point x="262" y="437.99" type="curve" smooth="yes"/>
      <point x="200.38" y="437.99"/>
      <point x="156.95" y="417.601"/>
      <point x="134.57" y="407.101" type="curve" smooth="yes"/>
      <point x="126.801" y="403.45"/>
      <point x="121.57" y="401"/>
      <point x="119" y="401" type="curve" smooth="yes"/>
      <point x="101" y="401"/>
      <point x="76" y="448"/>
      <point x="76" y="464" type="curve" smooth="yes"/>
      <point x="76" y="493"/>
      <point x="161" y="530"/>
    </contour>
    <contour>
      <point x="357.999" y="241.99" type="line"/>
      <point x="257.999" y="241.99"/>
      <point x="160.999" y="229.99"/>
      <point x="160.999" y="150.99" type="curve" smooth="yes"/>
      <point x="160.999" y="109.99"/>
      <point x="184.999" y="84.9902"/>
      <point x="230.999" y="84.9902" type="curve" smooth="yes"/>
      <point x="287.999" y="84.9902"/>
      <point x="328.999" y="115.99"/>
      <point x="357.999" y="151.99" type="curve"/>
    </contour>
  </outline>
</glyph>
<glyph name="b" format="1">
  <advance width="569"/>
  <unicode hex="0062"/>
  <outline>
    <contour>
      <point x="140" y="753" type="line" smooth="yes"/>
      <point x="174" y="753"/>
      <point x="189" y="744"/>
      <point x="189" y="727" type="curve" smooth="yes"/>
      <point x="189" y="488" type="line"/>
      <point x="220" y="511"/>
      <point x="259" y="530"/>
      <point x="314" y="530" type="curve" smooth="yes"/>
      <point x="440" y="530"/>
      <point x="521" y="431"/>
      <point x="521" y="262" type="curve" smooth="yes"/>
      <point x="521" y="98"/>
      <point x="444" y="-7"/>
      <point x="330" y="-7" type="curve" smooth="yes"/>
      <point x="270" y="-7"/>
      <point x="219" y="21"/>
      <point x="181" y="68" type="curve"/>
      <point x="178" y="51"/>
      <point x="174" y="33"/>
      <point x="168" y="16" type="curve" smooth="yes"/>
      <point x="163" y="1"/>
      <point x="149" y="-2"/>
      <point x="128" y="-2" type="curve" smooth="yes"/>
      <point x="120" y="-2" type="line" smooth="yes"/>
      <point x="90" y="-2"/>
      <point x="77" y="7"/>
      <point x="77" y="24" type="curve" smooth="yes"/>
      <point x="77" y="727" type="line" smooth="yes"/>
      <point x="77" y="744"/>
      <point x="92" y="753"/>
      <point x="126" y="753" type="curve" smooth="yes"/>
    </contour>
    <contour>
      <point x="289" y="437" type="curve" smooth="yes"/>
      <point x="252" y="437"/>
      <point x="216" y="424"/>
      <point x="189" y="403" type="curve"/>
      <point x="189" y="152" type="line"/>
      <point x="220" y="113"/>
      <point x="259" y="87"/>
      <point x="301" y="87" type="curve" smooth="yes"/>
      <point x="369" y="87"/>
      <point x="406" y="151"/>
      <point x="406" y="266" type="curve" smooth="yes"/>
      <point x="406" y="377"/>
      <point x="367" y="436"/>
    </contour>
  </outline>
</glyph>
<glyph name="c" format="1">
  <advance width="485"/>
  <unicode hex="0063"/>
  <outline>
    <contour>
      <point x="151" y="530"/>
      <point x="48" y="457"/>
      <point x="48" y="261" type="curve" smooth="yes"/>
      <point x="48" y="74"/>
      <point x="131" y="-7"/>
      <point x="297" y="-7" type="curve" smooth="yes"/>
      <point x="360" y="-7"/>
      <point x="461" y="15"/>
      <point x="461" y="52" type="curve" smooth="yes"/>
      <point x="461" y="69"/>
      <point x="437" y="114"/>
      <point x="420" y="114" type="curve" smooth="yes"/>
      <point x="417" y="114"/>
      <point x="412" y="112"/>
      <point x="406" y="109" type="curve"/>
      <point x="387" y="100"/>
      <point x="351" y="85"/>
      <point x="299" y="85" type="curve" smooth="yes"/>
      <point x="202" y="85"/>
      <point x="165" y="140"/>
      <point x="165" y="264" type="curve" smooth="yes"/>
      <point x="165" y="387"/>
      <point x="212" y="438"/>
      <point x="296" y="438" type="curve" smooth="yes"/>
      <point x="345" y="438"/>
      <point x="377" y="424"/>
      <point x="395" y="415" type="curve" smooth="yes"/>
      <point x="402" y="412"/>
      <point x="407" y="410"/>
      <point x="410" y="410" type="curve" smooth="yes"/>
      <point x="424" y="410"/>
      <point x="451" y="457"/>
      <point x="451" y="474" type="curve" smooth="yes"/>
      <point x="451" y="507"/>
      <point x="368" y="530"/>
      <point x="294" y="530" type="curve" smooth="yes"/>
    </contour>
    <contour>
      <point x="276" y="523" type="move" name="top"/>
    </contour>
    <contour>
      <point x="289" y="0" type="move" name="bottom"/>
    </contour>
  </outline>
</glyph>
<glyph name="d" format="1">
  <advance width="565"/>
  <unicode hex="0064"/>
  <outline>
    <contour>
      <point x="443" y="753" type="line" smooth="yes"/>
      <point x="477" y="753"/>
      <point x="492" y="743.99"/>
      <point x="492" y="726.99" type="curve" smooth="yes"/>
      <point x="492" y="159.99" type="line" smooth="yes"/>
      <point x="492" y="93.2305"/>
      <point x="498.46" y="58.7705"/>
      <point x="501.9" y="40.4004" type="curve" smooth="yes"/>
      <point x="503.15" y="33.7305"/>
      <point x="504" y="29.1904"/>
      <point x="504" y="25.9902" type="curve" smooth="yes"/>
      <point x="504" y="4.99023"/>
      <point x="442" y="-1.00977"/>
      <point x="424" y="-1.00977" type="curve" smooth="yes"/>
      <point x="400.69" y="-1.00977"/>
      <point x="394.521" y="30.29"/>
      <point x="389.41" y="56.2197" type="curve" smooth="yes"/>
      <point x="388.601" y="60.3301"/>
      <point x="387.82" y="64.2998"/>
      <point x="387" y="68" type="curve"/>
      <point x="349" y="21"/>
      <point x="298" y="-7"/>
      <point x="239" y="-7" type="curve" smooth="yes"/>
      <point x="124" y="-7"/>
      <point x="48" y="98"/>
      <point x="48" y="261" type="curve" smooth="yes"/>
      <point x="48" y="431"/>
      <point x="129" y="530"/>
      <point x="254" y="530" type="curve" smooth="yes"/>
      <point x="310" y="530"/>
      <point x="348" y="511"/>
      <point x="380" y="488" type="curve"/>
      <point x="380" y="727" type="line" smooth="yes"/>
      <point x="380" y="744"/>
      <point x="394" y="753"/>
      <point x="428" y="753" type="curve" smooth="yes"/>
    </contour>
    <contour>
      <point x="280" y="436.99" type="curve" smooth="yes"/>
      <point x="201" y="435.99"/>
      <point x="163" y="376.99"/>
      <point x="163" y="265.99" type="curve" smooth="yes"/>
      <point x="163" y="150.99"/>
      <point x="199" y="86.9902"/>
      <point x="268" y="86.9902" type="curve" smooth="yes"/>
      <point x="309" y="86.9902"/>
      <point x="349" y="112.99"/>
      <point x="380" y="151.99" type="curve"/>
      <point x="380" y="402.99" type="line"/>
      <point x="352" y="423.99"/>
      <point x="319" y="436.99"/>
    </contour>
  </outline>
</glyph>
<glyph name="e" format="1">
  <advance width="539"/>
  <unicode hex="0065"/>
  <outline>
    <contour>
      <point x="138" y="530"/>
      <point x="49" y="444"/>
      <point x="49" y="258" type="curve" smooth="yes"/>
      <point x="49" y="87"/>
      <point x="128" y="-7"/>
      <point x="301" y="-7" type="curve" smooth="yes"/>
      <point x="382" y="-7"/>
      <point x="481" y="25"/>
      <point x="481" y="61" type="curve" smooth="yes"/>
      <point x="481" y="76"/>
      <point x="456" y="122"/>
      <point x="439" y="122" type="curve" smooth="yes"/>
      <point x="427" y="122"/>
      <point x="380" y="85"/>
      <point x="303" y="85" type="curve" smooth="yes"/>
      <point x="219" y="85"/>
      <point x="174" y="124"/>
      <point x="166" y="221" type="curve"/>
      <point x="456" y="221" type="line" smooth="yes"/>
      <point x="468" y="221"/>
      <point x="497" y="256"/>
      <point x="497" y="270" type="curve" smooth="yes"/>
      <point x="497" y="427"/>
      <point x="432" y="530"/>
      <point x="286" y="530" type="curve" smooth="yes"/>
    </contour>
    <contour>
      <point x="352" y="438"/>
      <point x="384" y="390"/>
      <point x="384" y="305" type="curve"/>
      <point x="167" y="305" type="line"/>
      <point x="176" y="398"/>
      <point x="218" y="438"/>
      <point x="285" y="438" type="curve" smooth="yes"/>
    </contour>
    <contour>
      <point x="435" y="12" type="move" name="ogonek"/>
    </contour>
    <contour>
      <point x="270" y="0" type="move" name="bottom"/>
    </contour>
    <contour>
      <point x="270" y="523" type="move" name="top"/>
    </contour>
  </outline>
</glyph>
<glyph name="f" format="1">
  <advance width="325"/>
  <unicode hex="0066"/>
  <outline>
	<contour>
	  <point x="163" y="758"/>
	  <point x="96" y="725"/>
	  <point x="96" y="609" type="curve" smooth="yes"/>
	  <point x="96" y="523" type="line"/>
	  <point x="65" y="523" type="line" smooth="yes"/>
	  <point x="48" y="523"/>
	  <point x="41" y="511"/>
	  <point x="41" y="484" type="curve" smooth="yes"/>
	  <point x="41" y="470" type="line" smooth="yes"/>
	  <point x="41" y="443"/>
	  <point x="48" y="431"/>
	  <point x="65" y="431" type="curve" smooth="yes"/>
	  <point x="96" y="431" type="line"/>
	  <point x="96" y="24" type="line" smooth="yes"/>
	  <point x="96" y="7"/>
	  <point x="110" y="-2"/>
	  <point x="144" y="-2" type="curve" smooth="yes"/>
	  <point x="159" y="-2" type="line" smooth="yes"/>
	  <point x="193" y="-2"/>
	  <point x="208" y="7"/>
	  <point x="208" y="24" type="curve" smooth="yes"/>
	  <point x="208" y="431" type="line"/>
	  <point x="279" y="431" type="line" smooth="yes"/>
	  <point x="296" y="431"/>
	  <point x="303" y="443"/>
	  <point x="303" y="470" type="curve" smooth="yes"/>
	  <point x="303" y="484" type="line" smooth="yes"/>
	  <point x="303" y="511"/>
	  <point x="296" y="523"/>
	  <point x="279" y="523" type="curve" smooth="yes"/>
	  <point x="208" y="523" type="line"/>
	  <point x="208" y="606" type="line" smooth="yes"/>
	  <point x="208" y="656"/>
	  <point x="226" y="666"/>
	  <point x="254" y="666" type="curve" smooth="yes"/>
	  <point x="275" y="666"/>
	  <point x="283" y="662"/>
	  <point x="292" y="662" type="curve" smooth="yes"/>
	  <point x="308" y="662"/>
	  <point x="317" y="711"/>
	  <point x="317" y="719" type="curve" smooth="yes"/>
	  <point x="317" y="755"/>
	  <point x="261" y="758"/>
	  <point x="232" y="758" type="curve" smooth="yes"/>
	</contour>
  </outline>
</glyph>
<glyph name="g" format="1">
  <advance width="546"/>
  <unicode hex="0067"/>
  <outline>
    <contour>
      <point x="265" y="530" type="curve" smooth="yes"/>
      <point x="289" y="530"/>
      <point x="312" y="527.002"/>
      <point x="332" y="523.002" type="curve"/>
      <point x="505" y="523.002" type="line" smooth="yes"/>
      <point x="522" y="523.002"/>
      <point x="530" y="511.002"/>
      <point x="530" y="484.002" type="curve" smooth="yes"/>
      <point x="530" y="470.002" type="line" smooth="yes"/>
      <point x="530" y="444.002"/>
      <point x="523" y="433.002"/>
      <point x="508" y="433.002" type="curve" smooth="yes"/>
      <point x="487" y="433.002"/>
      <point x="464" y="434.002"/>
      <point x="450" y="436.002" type="curve"/>
      <point x="448" y="433.002" type="line"/>
      <point x="462" y="414.002"/>
      <point x="470" y="386.002"/>
      <point x="470" y="360.002" type="curve" smooth="yes"/>
      <point x="470" y="254.002"/>
      <point x="392" y="191.002"/>
      <point x="270" y="191.002" type="curve" smooth="yes"/>
      <point x="218" y="190.002"/>
      <point x="190" y="176.002"/>
      <point x="190" y="140.002" type="curve" smooth="yes"/>
      <point x="190" y="98.2715"/>
      <point x="243.63" y="91.3711"/>
      <point x="306.72" y="83.251" type="curve" smooth="yes"/>
      <point x="319.22" y="81.6406"/>
      <point x="332.1" y="79.9805"/>
      <point x="345" y="78" type="curve" smooth="yes"/>
      <point x="421" y="66"/>
      <point x="498" y="43"/>
      <point x="498" y="-53" type="curve" smooth="yes"/>
      <point x="498" y="-152"/>
      <point x="409" y="-212"/>
      <point x="257" y="-212" type="curve" smooth="yes"/>
      <point x="119" y="-212"/>
      <point x="36" y="-172"/>
      <point x="36" y="-82" type="curve" smooth="yes"/>
      <point x="36" y="-25"/>
      <point x="73" y="17"/>
      <point x="127" y="39" type="curve"/>
      <point x="128" y="42" type="line"/>
      <point x="102" y="59"/>
      <point x="87" y="85"/>
      <point x="87" y="121" type="curve" smooth="yes"/>
      <point x="87" y="161"/>
      <point x="108" y="193"/>
      <point x="144" y="216" type="curve"/>
      <point x="91" y="243"/>
      <point x="61" y="294"/>
      <point x="61" y="360" type="curve" smooth="yes"/>
      <point x="61" y="468"/>
      <point x="141" y="530"/>
    </contour>
    <contour>
      <point x="266" y="445.002" type="curve" smooth="yes"/>
      <point x="211" y="445.002"/>
      <point x="166" y="423.002"/>
      <point x="166" y="360.002" type="curve" smooth="yes"/>
      <point x="166" y="297.002"/>
      <point x="211" y="275.002"/>
      <point x="266" y="275.002" type="curve" smooth="yes"/>
      <point x="321" y="275.002"/>
      <point x="366" y="297.002"/>
      <point x="366" y="360.002" type="curve" smooth="yes"/>
      <point x="366" y="423.002"/>
      <point x="321" y="445.002"/>
    </contour>
    <contour>
      <point x="203" y="7.00195" type="curve"/>
      <point x="167" y="-6.99805"/>
      <point x="142" y="-30.0088"/>
      <point x="142" y="-62.0088" type="curve" smooth="yes"/>
      <point x="142" y="-109.009"/>
      <point x="200" y="-123.009"/>
      <point x="268" y="-123.009" type="curve" smooth="yes"/>
      <point x="351" y="-123.009"/>
      <point x="391" y="-101.009"/>
      <point x="391" y="-60.0088" type="curve" smooth="yes"/>
      <point x="391" y="-17.5283"/>
      <point x="335.76" y="-10.7188"/>
      <point x="268.92" y="-2.48828" type="curve" smooth="yes"/>
      <point x="247.65" y="0.131836"/>
      <point x="225.21" y="2.8916"/>
    </contour>
  </outline>
</glyph>
<glyph name="h" format="1">
  <advance width="565"/>
  <unicode hex="0068"/>
  <outline>
    <contour>
      <point x="144" y="753" type="line" smooth="yes"/>
      <point x="178" y="753"/>
      <point x="193" y="744"/>
      <point x="193" y="727" type="curve" smooth="yes"/>
      <point x="193" y="461" type="line"/>
      <point x="226" y="497"/>
      <point x="278" y="530"/>
      <point x="341" y="530" type="curve" smooth="yes"/>
      <point x="420" y="530"/>
      <point x="496" y="493"/>
      <point x="496" y="368" type="curve" smooth="yes"/>
      <point x="496" y="24" type="line" smooth="yes"/>
      <point x="496" y="7"/>
      <point x="482" y="-2"/>
      <point x="447" y="-2" type="curve" smooth="yes"/>
      <point x="433" y="-2" type="line" smooth="yes"/>
      <point x="399" y="-2"/>
      <point x="384" y="7"/>
      <point x="384" y="24" type="curve" smooth="yes"/>
      <point x="384" y="354" type="line" smooth="yes"/>
      <point x="384" y="404"/>
      <point x="356" y="435"/>
      <point x="299" y="435" type="curve" smooth="yes"/>
      <point x="239" y="435"/>
      <point x="198" y="381"/>
      <point x="193" y="371" type="curve"/>
      <point x="193" y="24" type="line" smooth="yes"/>
      <point x="193" y="7"/>
      <point x="178" y="-2"/>
      <point x="144" y="-2" type="curve" smooth="yes"/>
      <point x="130" y="-2" type="line" smooth="yes"/>
      <point x="96" y="-2"/>
      <point x="81" y="7"/>
      <point x="81" y="24" type="curve" smooth="yes"/>
      <point x="81" y="727" type="line" smooth="yes"/>
      <point x="81" y="744"/>
      <point x="96" y="753"/>
      <point x="130" y="753" type="curve" smooth="yes"/>
    </contour>
  </outline>
</glyph>
<glyph name="i" format="1">
  <advance width="265"/>
  <unicode hex="0069"/>
  <outline>
    <contour>
      <point x="126" y="525" type="line" smooth="yes"/>
      <point x="92" y="525"/>
      <point x="77" y="516"/>
      <point x="77" y="499" type="curve" smooth="yes"/>
      <point x="77" y="24" type="line" smooth="yes"/>
      <point x="77" y="7"/>
      <point x="92" y="-2"/>
      <point x="126" y="-2" type="curve" smooth="yes"/>
      <point x="140" y="-2" type="line" smooth="yes"/>
      <point x="174" y="-2"/>
      <point x="189" y="7"/>
      <point x="189" y="24" type="curve" smooth="yes"/>
      <point x="189" y="499" type="line" smooth="yes"/>
      <point x="189" y="516"/>
      <point x="174" y="525"/>
      <point x="140" y="525" type="curve" smooth="yes"/>
    </contour>
    <contour>
      <point x="124" y="753" type="line" smooth="yes"/>
      <point x="90" y="753"/>
      <point x="75" y="744"/>
      <point x="75" y="727" type="curve" smooth="yes"/>
      <point x="75" y="658" type="line" smooth="yes"/>
      <point x="75" y="641"/>
      <point x="90" y="632"/>
      <point x="124" y="632" type="curve"/>
      <point x="143" y="632" type="line" smooth="yes"/>
      <point x="177" y="632"/>
      <point x="191" y="641"/>
      <point x="191" y="658" type="curve" smooth="yes"/>
      <point x="191" y="727" type="line" smooth="yes"/>
      <point x="191" y="744"/>
      <point x="177" y="753"/>
      <point x="143" y="753" type="curve" smooth="yes"/>
    </contour>
    <contour>
      <point x="131" y="0" type="move" name="bottom"/>
    </contour>
  </outline>
</glyph>
<glyph name="j" format="1">
  <advance width="276"/>
  <unicode hex="006A"/>
  <outline>
    <contour>
      <point x="153" y="753" type="line" smooth="yes"/>
      <point x="187" y="753"/>
      <point x="201" y="744"/>
      <point x="201" y="727" type="curve" smooth="yes"/>
      <point x="201" y="658" type="line" smooth="yes"/>
      <point x="201" y="641"/>
      <point x="187" y="632"/>
      <point x="153" y="632" type="curve" smooth="yes"/>
      <point x="134" y="632" type="line" smooth="yes"/>
      <point x="100" y="632"/>
      <point x="85" y="641"/>
      <point x="85" y="658" type="curve" smooth="yes"/>
      <point x="85" y="727" type="line" smooth="yes"/>
      <point x="85" y="744"/>
      <point x="100" y="753"/>
      <point x="134" y="753" type="curve" smooth="yes"/>
    </contour>
    <contour>
      <point x="151" y="525" type="line" smooth="yes"/>
      <point x="185" y="525"/>
      <point x="200" y="516"/>
      <point x="200" y="499" type="curve" smooth="yes"/>
      <point x="200" y="-64" type="line" smooth="yes"/>
      <point x="200" y="-176"/>
      <point x="128" y="-212"/>
      <point x="63" y="-212" type="curve" smooth="yes"/>
      <point x="14" y="-212"/>
      <point x="-23" y="-205"/>
      <point x="-23" y="-172" type="curve" smooth="yes"/>
      <point x="-23" y="-158"/>
      <point x="-13" y="-116"/>
      <point x="4" y="-116" type="curve" smooth="yes"/>
      <point x="7.0498" y="-116"/>
      <point x="10.25" y="-116.59"/>
      <point x="14.21" y="-117.31" type="curve" smooth="yes"/>
      <point x="20.6201" y="-118.47"/>
      <point x="29.0098" y="-120"/>
      <point x="42" y="-120" type="curve" smooth="yes"/>
      <point x="69" y="-120"/>
      <point x="88" y="-107"/>
      <point x="88" y="-60" type="curve" smooth="yes"/>
      <point x="88" y="499" type="line" smooth="yes"/>
      <point x="88" y="516"/>
      <point x="103" y="525"/>
      <point x="137" y="525" type="curve" smooth="yes"/>
    </contour>
  </outline>
</glyph>
<glyph name="k" format="1">
  <advance width="521"/>
  <unicode hex="006B"/>
  <outline>
    <contour>
      <point x="145" y="753" type="line" smooth="yes"/>
      <point x="179" y="753"/>
      <point x="194" y="744"/>
      <point x="194" y="727" type="curve" smooth="yes"/>
      <point x="194" y="302" type="line"/>
      <point x="198" y="301" type="line"/>
      <point x="358" y="509" type="line" smooth="yes"/>
      <point x="369" y="522"/>
      <point x="390" y="525"/>
      <point x="415" y="525" type="curve" smooth="yes"/>
      <point x="433" y="525" type="line" smooth="yes"/>
      <point x="463" y="525"/>
      <point x="477" y="519"/>
      <point x="477" y="511" type="curve" smooth="yes"/>
      <point x="477" y="506"/>
      <point x="474" y="499"/>
      <point x="468" y="491" type="curve" smooth="yes"/>
      <point x="302" y="281" type="line"/>
      <point x="490" y="31" type="line" smooth="yes"/>
      <point x="496" y="22"/>
      <point x="498" y="17"/>
      <point x="498" y="12" type="curve" smooth="yes"/>
      <point x="498" y="2"/>
      <point x="483" y="-2"/>
      <point x="449" y="-2" type="curve" smooth="yes"/>
      <point x="428" y="-2" type="line" smooth="yes"/>
      <point x="403" y="-2"/>
      <point x="381" y="0"/>
      <point x="371" y="14" type="curve" smooth="yes"/>
      <point x="198" y="248" type="line"/>
      <point x="194" y="247" type="line"/>
      <point x="194" y="24" type="line" smooth="yes"/>
      <point x="194" y="7"/>
      <point x="179" y="-2"/>
      <point x="145" y="-2" type="curve" smooth="yes"/>
      <point x="131" y="-2" type="line" smooth="yes"/>
      <point x="97" y="-2"/>
      <point x="82" y="7"/>
      <point x="82" y="24" type="curve" smooth="yes"/>
      <point x="82" y="727" type="line" smooth="yes"/>
      <point x="82" y="744"/>
      <point x="97" y="753"/>
      <point x="131" y="753" type="curve" smooth="yes"/>
    </contour>
  </outline>
</glyph>
<glyph name="l" format="1">
  <advance width="297"/>
  <unicode hex="006C"/>
  <outline>
    <contour>
      <point x="137" y="753" type="line" smooth="yes"/>
      <point x="171" y="753"/>
      <point x="186.001" y="744"/>
      <point x="186.001" y="727" type="curve" smooth="yes"/>
      <point x="186.001" y="145" type="line" smooth="yes"/>
      <point x="186.001" y="98"/>
      <point x="204.001" y="85"/>
      <point x="232.001" y="85" type="curve" smooth="yes"/>
      <point x="244.251" y="85"/>
      <point x="252.001" y="86.5"/>
      <point x="258.001" y="87.6602" type="curve" smooth="yes"/>
      <point x="261.801" y="88.4004"/>
      <point x="264.9" y="89"/>
      <point x="268" y="89" type="curve" smooth="yes"/>
      <point x="285" y="89"/>
      <point x="293" y="39"/>
      <point x="293" y="31" type="curve" smooth="yes"/>
      <point x="293" y="-4"/>
      <point x="239" y="-7"/>
      <point x="210" y="-7" type="curve" smooth="yes"/>
      <point x="141" y="-7"/>
      <point x="74" y="28"/>
      <point x="74" y="142" type="curve" smooth="yes"/>
      <point x="74" y="727" type="line" smooth="yes"/>
      <point x="74" y="744"/>
      <point x="89" y="753"/>
      <point x="123" y="753" type="curve" smooth="yes"/>
    </contour>
  </outline>
</glyph>
<glyph name="m" format="1">
  <advance width="848"/>
  <unicode hex="006D"/>
  <outline>
    <contour>
      <point x="625" y="530" type="curve" smooth="yes"/>
      <point x="704" y="530"/>
      <point x="776.991" y="493.002"/>
      <point x="776.991" y="368.002" type="curve" smooth="yes"/>
      <point x="776.991" y="24.002" type="line" smooth="yes"/>
      <point x="776.991" y="7.00195"/>
      <point x="761.991" y="-1.99805"/>
      <point x="727.991" y="-1.99805" type="curve" smooth="yes"/>
      <point x="713.991" y="-1.99805" type="line" smooth="yes"/>
      <point x="679.991" y="-1.99805"/>
      <point x="664.991" y="7.00195"/>
      <point x="664.991" y="24.002" type="curve" smooth="yes"/>
      <point x="664.991" y="354.002" type="line" smooth="yes"/>
      <point x="664.991" y="404.002"/>
      <point x="639.991" y="435.002"/>
      <point x="584.991" y="435.002" type="curve" smooth="yes"/>
      <point x="532.551" y="435.002"/>
      <point x="496.521" y="391.432"/>
      <point x="481.921" y="371.031" type="curve" smooth="yes"/>
      <point x="481.971" y="369.341"/>
      <point x="481.99" y="367.671"/>
      <point x="481.99" y="366.001" type="curve" smooth="yes"/>
      <point x="481.99" y="24.001" type="line" smooth="yes"/>
      <point x="481.99" y="7.00098"/>
      <point x="466.99" y="-1.99902"/>
      <point x="432.99" y="-1.99902" type="curve" smooth="yes"/>
      <point x="418.99" y="-1.99902" type="line" smooth="yes"/>
      <point x="384.99" y="-1.99902"/>
      <point x="369.99" y="7.00098"/>
      <point x="369.99" y="24.001" type="curve" smooth="yes"/>
      <point x="369.99" y="354.001" type="line" smooth="yes"/>
      <point x="369.99" y="404.001"/>
      <point x="344.99" y="435.001"/>
      <point x="289.99" y="435.001" type="curve" smooth="yes"/>
      <point x="230.99" y="435.001"/>
      <point x="191.99" y="381.001"/>
      <point x="186.99" y="371.001" type="curve"/>
      <point x="186.99" y="24.001" type="line" smooth="yes"/>
      <point x="186.99" y="7.00098"/>
      <point x="171.99" y="-1.99902"/>
      <point x="137.99" y="-1.99902" type="curve" smooth="yes"/>
      <point x="123.99" y="-1.99902" type="line" smooth="yes"/>
      <point x="89.9902" y="-1.99902"/>
      <point x="74.9902" y="7.00098"/>
      <point x="74.9902" y="24.001" type="curve" smooth="yes"/>
      <point x="74.9902" y="361.001" type="line" smooth="yes"/>
      <point x="74.9902" y="426.851"/>
      <point x="68.4199" y="461.501"/>
      <point x="65" y="479.521" type="curve" smooth="yes"/>
      <point x="63.7998" y="485.86"/>
      <point x="62.9902" y="490.141"/>
      <point x="62.9902" y="493.001" type="curve" smooth="yes"/>
      <point x="62.9902" y="514.001"/>
      <point x="123.99" y="520.001"/>
      <point x="141.99" y="520.001" type="curve" smooth="yes"/>
      <point x="165.82" y="520.001"/>
      <point x="171.54" y="491.041"/>
      <point x="176.42" y="466.381" type="curve" smooth="yes"/>
      <point x="177.27" y="462.061"/>
      <point x="178.1" y="457.87"/>
      <point x="179" y="454" type="curve"/>
      <point x="211" y="492"/>
      <point x="265" y="530"/>
      <point x="330" y="530" type="curve" smooth="yes"/>
      <point x="387" y="530"/>
      <point x="443" y="511"/>
      <point x="468" y="450" type="curve"/>
      <point x="502" y="492"/>
      <point x="560" y="530"/>
    </contour>
  </outline>
</glyph>
<glyph name="n" format="1">
  <advance width="557"/>
  <unicode hex="006E"/>
  <outline>
    <contour>
      <point x="333" y="530" type="curve" smooth="yes"/>
      <point x="435" y="530"/>
      <point x="488.99" y="473.001"/>
      <point x="488.99" y="368.001" type="curve" smooth="yes"/>
      <point x="488.99" y="24.001" type="line" smooth="yes"/>
      <point x="488.99" y="7.00098"/>
      <point x="474.99" y="-1.99902"/>
      <point x="440.99" y="-1.99902" type="curve" smooth="yes"/>
      <point x="425.99" y="-1.99902" type="line" smooth="yes"/>
      <point x="391.99" y="-1.99902"/>
      <point x="377.99" y="7.00098"/>
      <point x="377.99" y="24.001" type="curve" smooth="yes"/>
      <point x="377.99" y="354.001" type="line" smooth="yes"/>
      <point x="377.99" y="405.001"/>
      <point x="349.99" y="435.001"/>
      <point x="293.99" y="435.001" type="curve" smooth="yes"/>
      <point x="250.99" y="435.001"/>
      <point x="211.99" y="405.001"/>
      <point x="187.99" y="371.001" type="curve"/>
      <point x="187.99" y="24.001" type="line" smooth="yes"/>
      <point x="187.99" y="7.00098"/>
      <point x="172.99" y="-1.99902"/>
      <point x="138.99" y="-1.99902" type="curve" smooth="yes"/>
      <point x="124.99" y="-1.99902" type="line" smooth="yes"/>
      <point x="90.9902" y="-1.99902"/>
      <point x="75.9902" y="7.00098"/>
      <point x="75.9902" y="24.001" type="curve" smooth="yes"/>
      <point x="75.9902" y="361.001" type="line" smooth="yes"/>
      <point x="75.9902" y="426.851"/>
      <point x="69.4199" y="461.501"/>
      <point x="66" y="479.521" type="curve" smooth="yes"/>
      <point x="64.7998" y="485.86"/>
      <point x="63.9902" y="490.141"/>
      <point x="63.9902" y="493.001" type="curve" smooth="yes"/>
      <point x="63.9902" y="514.001"/>
      <point x="124.99" y="520.001"/>
      <point x="142.99" y="520.001" type="curve" smooth="yes"/>
      <point x="166.82" y="520.001"/>
      <point x="172.54" y="491.041"/>
      <point x="177.42" y="466.381" type="curve" smooth="yes"/>
      <point x="178.27" y="462.061"/>
      <point x="179.1" y="457.87"/>
      <point x="180" y="454" type="curve"/>
      <point x="217" y="498"/>
      <point x="274" y="530"/>
    </contour>
  </outline>
</glyph>
<glyph name="o" format="1">
  <advance width="569"/>
  <unicode hex="006F"/>
  <outline>
    <contour>
      <point x="286" y="530" type="curve" smooth="yes"/>
      <point x="438" y="530"/>
      <point x="519" y="434"/>
      <point x="519" y="260" type="curve" smooth="yes"/>
      <point x="519" y="87"/>
      <point x="439" y="-7"/>
      <point x="286" y="-7" type="curve" smooth="yes"/>
      <point x="131" y="-7"/>
      <point x="49" y="87"/>
      <point x="49" y="260" type="curve" smooth="yes"/>
      <point x="49" y="434"/>
      <point x="132" y="530"/>
    </contour>
    <contour>
      <point x="284" y="438" type="curve" smooth="yes"/>
      <point x="201" y="438"/>
      <point x="164" y="381"/>
      <point x="164" y="261" type="curve" smooth="yes"/>
      <point x="164" y="143"/>
      <point x="201" y="85"/>
      <point x="284" y="85" type="curve" smooth="yes"/>
      <point x="367" y="85"/>
      <point x="405" y="143"/>
      <point x="405" y="261" type="curve" smooth="yes"/>
      <point x="405" y="380"/>
      <point x="367" y="438"/>
    </contour>
  </outline>
</glyph>
<glyph name="p" format="1">
  <advance width="573"/>
  <unicode hex="0070"/>
  <outline>
    <contour>
      <point x="272" y="530"/>
      <point x="221" y="502"/>
      <point x="183" y="455" type="curve"/>
      <point x="177" y="480"/>
      <point x="174" y="520"/>
      <point x="146" y="520" type="curve" smooth="yes"/>
      <point x="128" y="520"/>
      <point x="67" y="514"/>
      <point x="67" y="493" type="curve" smooth="yes"/>
      <point x="67" y="482"/>
      <point x="79" y="450"/>
      <point x="79" y="361" type="curve" smooth="yes"/>
      <point x="79" y="-181" type="line" smooth="yes"/>
      <point x="79" y="-198"/>
      <point x="94" y="-207"/>
      <point x="128" y="-207" type="curve" smooth="yes"/>
      <point x="142" y="-207" type="line" smooth="yes"/>
      <point x="176" y="-207"/>
      <point x="191" y="-198"/>
      <point x="191" y="-181" type="curve" smooth="yes"/>
      <point x="191" y="35" type="line"/>
      <point x="222" y="12"/>
      <point x="261" y="-7"/>
      <point x="316" y="-7" type="curve" smooth="yes"/>
      <point x="442" y="-7"/>
      <point x="523" y="92"/>
      <point x="523" y="261" type="curve" smooth="yes"/>
      <point x="523" y="424"/>
      <point x="449" y="530"/>
      <point x="332" y="530" type="curve" smooth="yes"/>
    </contour>
    <contour>
      <point x="371" y="436"/>
      <point x="408" y="372"/>
      <point x="408" y="257" type="curve" smooth="yes"/>
      <point x="408" y="146"/>
      <point x="369" y="87"/>
      <point x="291" y="86" type="curve" smooth="yes"/>
      <point x="252" y="86"/>
      <point x="218" y="99"/>
      <point x="191" y="120" type="curve"/>
      <point x="191" y="371" type="line"/>
      <point x="222" y="410"/>
      <point x="261" y="436"/>
      <point x="303" y="436" type="curve" smooth="yes"/>
    </contour>
  </outline>
</glyph>
<glyph name="q" format="1">
  <advance width="566"/>
  <unicode hex="0071"/>
  <outline>
    <contour>
      <point x="241" y="530" type="curve" smooth="yes"/>
      <point x="300" y="530"/>
      <point x="352.001" y="501.99"/>
      <point x="389.001" y="454.99" type="curve"/>
      <point x="389.381" y="456.601"/>
      <point x="389.761" y="458.221"/>
      <point x="390.141" y="459.851" type="curve" smooth="yes"/>
      <point x="393.78" y="475.4"/>
      <point x="397.57" y="491.61"/>
      <point x="403" y="507" type="curve" smooth="yes"/>
      <point x="407" y="522"/>
      <point x="421" y="525"/>
      <point x="443" y="525" type="curve" smooth="yes"/>
      <point x="451" y="525" type="line" smooth="yes"/>
      <point x="481" y="525"/>
      <point x="494" y="516"/>
      <point x="494" y="499" type="curve" smooth="yes"/>
      <point x="494" y="-181" type="line" smooth="yes"/>
      <point x="494" y="-198"/>
      <point x="479" y="-207"/>
      <point x="445" y="-207" type="curve" smooth="yes"/>
      <point x="431" y="-207" type="line" smooth="yes"/>
      <point x="396" y="-207"/>
      <point x="382" y="-198"/>
      <point x="382" y="-181" type="curve" smooth="yes"/>
      <point x="382" y="35" type="line"/>
      <point x="351" y="12"/>
      <point x="312" y="-7"/>
      <point x="257" y="-7" type="curve" smooth="yes"/>
      <point x="129" y="-7"/>
      <point x="48" y="92"/>
      <point x="48" y="260" type="curve" smooth="yes"/>
      <point x="48" y="425"/>
      <point x="125" y="530"/>
    </contour>
    <contour>
      <point x="270.001" y="435.99" type="curve" smooth="yes"/>
      <point x="200.001" y="435.99"/>
      <point x="163.001" y="371.99"/>
      <point x="163.001" y="256.99" type="curve" smooth="yes"/>
      <point x="163.001" y="145.99"/>
      <point x="202.001" y="86.9902"/>
      <point x="281.001" y="85.9902" type="curve" smooth="yes"/>
      <point x="321.001" y="85.9902"/>
      <point x="354.001" y="98.9902"/>
      <point x="382.001" y="119.99" type="curve"/>
      <point x="382.001" y="370.99" type="line"/>
      <point x="351.001" y="409.99"/>
      <point x="311.001" y="435.99"/>
    </contour>
  </outline>
</glyph>
<glyph name="r" format="1">
  <advance width="366"/>
  <unicode hex="0072"/>
  <outline>
    <contour>
      <point x="295" y="530" type="curve" smooth="yes"/>
      <point x="339" y="530"/>
      <point x="352.99" y="505.011"/>
      <point x="352.99" y="484.011" type="curve" smooth="yes"/>
      <point x="352.99" y="465.011"/>
      <point x="343.99" y="417.011"/>
      <point x="327.99" y="417.011" type="curve" smooth="yes"/>
      <point x="322.721" y="417.011"/>
      <point x="317.94" y="418.65"/>
      <point x="312.261" y="420.601" type="curve" smooth="yes"/>
      <point x="303.931" y="423.471"/>
      <point x="293.641" y="427.001"/>
      <point x="276.99" y="427.001" type="curve" smooth="yes"/>
      <point x="228.99" y="427.001"/>
      <point x="194.99" y="379.001"/>
      <point x="189.99" y="371.001" type="curve"/>
      <point x="189.99" y="24.001" type="line" smooth="yes"/>
      <point x="189.99" y="7.00098"/>
      <point x="174.99" y="-1.99902"/>
      <point x="140.99" y="-1.99902" type="curve" smooth="yes"/>
      <point x="126.99" y="-1.99902" type="line" smooth="yes"/>
      <point x="92.9902" y="-1.99902"/>
      <point x="77.9902" y="7.00098"/>
      <point x="77.9902" y="24.001" type="curve" smooth="yes"/>
      <point x="77.9902" y="361.001" type="line" smooth="yes"/>
      <point x="77.9902" y="426.851"/>
      <point x="71.4199" y="461.501"/>
      <point x="68" y="479.521" type="curve" smooth="yes"/>
      <point x="66.7998" y="485.86"/>
      <point x="65.9902" y="490.141"/>
      <point x="65.9902" y="493.001" type="curve" smooth="yes"/>
      <point x="65.9902" y="514.001"/>
      <point x="126.99" y="520.001"/>
      <point x="144.99" y="520.001" type="curve" smooth="yes"/>
      <point x="168.82" y="520.001"/>
      <point x="174.54" y="491.041"/>
      <point x="179.42" y="466.381" type="curve" smooth="yes"/>
      <point x="180.27" y="462.061"/>
      <point x="181.1" y="457.87"/>
      <point x="182" y="454" type="curve"/>
      <point x="211" y="498"/>
      <point x="246" y="530"/>
    </contour>
  </outline>
</glyph>
<glyph name="s" format="1">
  <advance width="413"/>
  <unicode hex="0073"/>
  <outline>
    <contour>
      <point x="218" y="530" type="curve" smooth="yes"/>
      <point x="282" y="530"/>
      <point x="358.001" y="512.001"/>
      <point x="358.001" y="481.001" type="curve" smooth="yes"/>
      <point x="358.001" y="462.001"/>
      <point x="337.001" y="416.001"/>
      <point x="321.001" y="416.001" type="curve" smooth="yes"/>
      <point x="318.731" y="416.001"/>
      <point x="314.691" y="417.931"/>
      <point x="308.901" y="420.69" type="curve" smooth="yes"/>
      <point x="294.281" y="427.681"/>
      <point x="268.531" y="439.99"/>
      <point x="232.001" y="439.99" type="curve" smooth="yes"/>
      <point x="190.001" y="439.99"/>
      <point x="159.001" y="421.99"/>
      <point x="159.001" y="388.99" type="curve" smooth="yes"/>
      <point x="159.001" y="343.99"/>
      <point x="198.001" y="325.99"/>
      <point x="252.001" y="305.99" type="curve" smooth="yes"/>
      <point x="341.001" y="273.99"/>
      <point x="380.001" y="239.99"/>
      <point x="380.001" y="153.99" type="curve" smooth="yes"/>
      <point x="380.001" y="58.9902"/>
      <point x="305.001" y="-9.00977"/>
      <point x="195.001" y="-9.00977" type="curve" smooth="yes"/>
      <point x="111.001" y="-9.00977"/>
      <point x="33.001" y="24.9902"/>
      <point x="33.001" y="56.9902" type="curve" smooth="yes"/>
      <point x="33.001" y="73.9902"/>
      <point x="59.001" y="117.99"/>
      <point x="76.001" y="117.99" type="curve" smooth="yes"/>
      <point x="78.8506" y="117.99"/>
      <point x="83.8906" y="115.23"/>
      <point x="91.1006" y="111.29" type="curve" smooth="yes"/>
      <point x="109.19" y="101.38"/>
      <point x="140.95" y="84"/>
      <point x="186" y="84" type="curve" smooth="yes"/>
      <point x="239" y="84"/>
      <point x="267" y="105"/>
      <point x="267" y="148" type="curve" smooth="yes"/>
      <point x="267" y="190"/>
      <point x="235" y="207"/>
      <point x="173" y="227" type="curve" smooth="yes"/>
      <point x="91" y="253"/>
      <point x="45" y="291"/>
      <point x="45" y="377" type="curve" smooth="yes"/>
      <point x="45" y="470"/>
      <point x="115" y="530"/>
    </contour>
  </outline>
</glyph>
<glyph name="t" format="1">
  <advance width="342"/>
  <unicode hex="0074"/>
  <outline>
    <contour>
      <point x="167" y="650" type="line" smooth="yes"/>
      <point x="194" y="650"/>
      <point x="205.001" y="641"/>
      <point x="205.001" y="624" type="curve" smooth="yes"/>
      <point x="205.001" y="523" type="line"/>
      <point x="274.001" y="523" type="line" smooth="yes"/>
      <point x="291.001" y="523"/>
      <point x="299.001" y="511"/>
      <point x="299.001" y="484" type="curve" smooth="yes"/>
      <point x="299.001" y="470" type="line" smooth="yes"/>
      <point x="299.001" y="443"/>
      <point x="291.001" y="431"/>
      <point x="274.001" y="431" type="curve" smooth="yes"/>
      <point x="205.001" y="431" type="line"/>
      <point x="205.001" y="145" type="line" smooth="yes"/>
      <point x="205.001" y="98"/>
      <point x="224.001" y="85"/>
      <point x="252.001" y="85" type="curve" smooth="yes"/>
      <point x="264.251" y="85"/>
      <point x="272.001" y="86.5"/>
      <point x="278.001" y="87.6602" type="curve" smooth="yes"/>
      <point x="281.801" y="88.4004"/>
      <point x="284.9" y="89"/>
      <point x="288" y="89" type="curve" smooth="yes"/>
      <point x="304" y="89"/>
      <point x="313" y="39"/>
      <point x="313" y="31" type="curve" smooth="yes"/>
      <point x="313" y="-4"/>
      <point x="259" y="-7"/>
      <point x="230" y="-7" type="curve" smooth="yes"/>
      <point x="161" y="-7"/>
      <point x="94" y="28"/>
      <point x="94" y="142" type="curve" smooth="yes"/>
      <point x="94" y="431" type="line"/>
      <point x="58" y="431" type="line" smooth="yes"/>
      <point x="41" y="431"/>
      <point x="34" y="443"/>
      <point x="34" y="470" type="curve" smooth="yes"/>
      <point x="34" y="484" type="line" smooth="yes"/>
      <point x="34" y="511"/>
      <point x="41" y="523"/>
      <point x="58" y="523" type="curve" smooth="yes"/>
      <point x="94" y="523" type="line"/>
      <point x="106" y="624" type="line" smooth="yes"/>
      <point x="108" y="641"/>
      <point x="121" y="650"/>
      <point x="148" y="650" type="curve" smooth="yes"/>
    </contour>
  </outline>
</glyph>
<glyph name="u" format="1">
  <advance width="557"/>
  <unicode hex="0075"/>
  <outline>
    <contour>
      <point x="418" y="525" type="line" smooth="yes"/>
      <point x="384" y="525"/>
      <point x="370" y="516"/>
      <point x="370" y="499" type="curve" smooth="yes"/>
      <point x="370" y="152" type="line"/>
      <point x="346" y="118"/>
      <point x="307" y="88"/>
      <point x="264" y="88" type="curve" smooth="yes"/>
      <point x="208" y="88"/>
      <point x="180" y="118"/>
      <point x="180" y="169" type="curve" smooth="yes"/>
      <point x="180" y="499" type="line" smooth="yes"/>
      <point x="180" y="516"/>
      <point x="165" y="525"/>
      <point x="131" y="525" type="curve" smooth="yes"/>
      <point x="117" y="525" type="line" smooth="yes"/>
      <point x="83" y="525"/>
      <point x="68" y="516"/>
      <point x="68" y="499" type="curve" smooth="yes"/>
      <point x="68" y="155" type="line" smooth="yes"/>
      <point x="68" y="50"/>
      <point x="123" y="-7"/>
      <point x="224" y="-7" type="curve" smooth="yes"/>
      <point x="284" y="-7"/>
      <point x="341" y="25"/>
      <point x="377" y="69" type="curve"/>
      <point x="383" y="41"/>
      <point x="387" y="-1"/>
      <point x="414" y="-1" type="curve" smooth="yes"/>
      <point x="432" y="-1"/>
      <point x="493" y="5"/>
      <point x="493" y="26" type="curve" smooth="yes"/>
      <point x="493" y="38"/>
      <point x="481" y="69"/>
      <point x="481" y="160" type="curve" smooth="yes"/>
      <point x="481" y="499" type="line" smooth="yes"/>
      <point x="481" y="516"/>
      <point x="467" y="525"/>
      <point x="433" y="525" type="curve" smooth="yes"/>
    </contour>
    <contour>
      <point x="462" y="10" type="move" name="ogonek"/>
    </contour>
    <contour>
      <point x="279" y="523" type="move" name="top"/>
    </contour>
    <contour>
      <point x="418" y="525" type="move" name="horn"/>
    </contour>
    <contour>
      <point x="251" y="0" type="move" name="bottom"/>
    </contour>
  </outline>
</glyph>
<glyph name="v" format="1">
  <advance width="485"/>
  <unicode hex="0076"/>
  <outline>
    <contour>
      <point x="422" y="525" type="line" smooth="yes"/>
      <point x="455" y="525"/>
      <point x="468.998" y="518"/>
      <point x="468.998" y="506" type="curve" smooth="yes"/>
      <point x="468.998" y="501"/>
      <point x="467.998" y="497"/>
      <point x="465.998" y="490" type="curve" smooth="yes"/>
      <point x="305.998" y="16" type="line" smooth="yes"/>
      <point x="301.998" y="2"/>
      <point x="282.998" y="-2"/>
      <point x="258.998" y="-2" type="curve" smooth="yes"/>
      <point x="225.998" y="-2" type="line" smooth="yes"/>
      <point x="201.998" y="-2"/>
      <point x="182.998" y="2"/>
      <point x="178.998" y="16" type="curve" smooth="yes"/>
      <point x="17.998" y="491" type="line" smooth="yes"/>
      <point x="17.7881" y="491.83"/>
      <point x="17.5381" y="492.75"/>
      <point x="17.2783" y="493.72" type="curve" smooth="yes"/>
      <point x="16.2588" y="497.45"/>
      <point x="14.999" y="502.04"/>
      <point x="14.999" y="506" type="curve" smooth="yes"/>
      <point x="14.999" y="518"/>
      <point x="30.999" y="525"/>
      <point x="65.999" y="525" type="curve" smooth="yes"/>
      <point x="82.999" y="525" type="line" smooth="yes"/>
      <point x="106.999" y="525"/>
      <point x="125.999" y="521"/>
      <point x="129.999" y="507" type="curve" smooth="yes"/>
      <point x="212.999" y="246" type="line" smooth="yes"/>
      <point x="223.109" y="215.66"/>
      <point x="234.069" y="169.28"/>
      <point x="242.76" y="132.471" type="curve" smooth="yes"/>
      <point x="243.529" y="129.23"/>
      <point x="244.27" y="126.07"/>
      <point x="245" y="123" type="curve" smooth="yes"/>
      <point x="249" y="123" type="line"/>
      <point x="251.86" y="135.09"/>
      <point x="254.931" y="148.689"/>
      <point x="258.07" y="162.63" type="curve" smooth="yes"/>
      <point x="264.801" y="192.49"/>
      <point x="271.86" y="223.86"/>
      <point x="278" y="245" type="curve" smooth="yes"/>
      <point x="362" y="507" type="line" smooth="yes"/>
      <point x="367" y="521"/>
      <point x="385" y="525"/>
      <point x="410" y="525" type="curve" smooth="yes"/>
    </contour>
  </outline>
</glyph>
<glyph name="w" format="1">
  <advance width="747"/>
  <unicode hex="0077"/>
  <outline>
    <contour>
      <point x="670" y="525" type="curve" smooth="yes"/>
      <point x="704" y="525"/>
      <point x="718.988" y="517"/>
      <point x="718.988" y="504" type="curve" smooth="yes"/>
      <point x="718.988" y="501.07"/>
      <point x="718.458" y="498.141"/>
      <point x="717.778" y="494.421" type="curve" smooth="yes"/>
      <point x="717.528" y="493.061"/>
      <point x="717.259" y="491.601"/>
      <point x="716.989" y="489.99" type="curve" smooth="yes"/>
      <point x="589.989" y="15.9902" type="line" smooth="yes"/>
      <point x="585.989" y="2.99023"/>
      <point x="566.989" y="-2.00977"/>
      <point x="542.989" y="-2.00977" type="curve" smooth="yes"/>
      <point x="504.989" y="-2.00977" type="line" smooth="yes"/>
      <point x="479.989" y="-2.00977"/>
      <point x="461.989" y="2.99023"/>
      <point x="458.989" y="15.9902" type="curve" smooth="yes"/>
      <point x="386.989" y="298.99" type="line" smooth="yes"/>
      <point x="383.22" y="313.311"/>
      <point x="380.02" y="329.9"/>
      <point x="376.96" y="345.771" type="curve" smooth="yes"/>
      <point x="375.96" y="350.961"/>
      <point x="374.97" y="356.061"/>
      <point x="373.989" y="360.99" type="curve"/>
      <point x="373.56" y="358.721"/>
      <point x="373.13" y="356.451"/>
      <point x="372.7" y="354.171" type="curve" smooth="yes"/>
      <point x="369.12" y="335.281"/>
      <point x="365.45" y="315.941"/>
      <point x="360.99" y="298.991" type="curve" smooth="yes"/>
      <point x="288.99" y="15.9912" type="line" smooth="yes"/>
      <point x="285.99" y="2.99121"/>
      <point x="265.99" y="-2.00879"/>
      <point x="242.99" y="-2.00879" type="curve" smooth="yes"/>
      <point x="204.99" y="-2.00879" type="line" smooth="yes"/>
      <point x="178.99" y="-2.00879"/>
      <point x="161.99" y="2.99121"/>
      <point x="157.99" y="15.9912" type="curve" smooth="yes"/>
      <point x="28.9902" y="485.991" type="line" smooth="yes"/>
      <point x="26.9902" y="491.991"/>
      <point x="24.9902" y="499.991"/>
      <point x="24.9902" y="503.991" type="curve" smooth="yes"/>
      <point x="24.9902" y="516.991"/>
      <point x="40.9902" y="524.991"/>
      <point x="77.9902" y="524.991" type="curve" smooth="yes"/>
      <point x="112.99" y="524.991"/>
      <point x="131.99" y="519.991"/>
      <point x="134.99" y="506.991" type="curve" smooth="yes"/>
      <point x="211.99" y="210.991" type="line" smooth="yes"/>
      <point x="216.99" y="190.991"/>
      <point x="224.99" y="154.991"/>
      <point x="230.99" y="127.991" type="curve"/>
      <point x="235.99" y="154.991"/>
      <point x="242.99" y="187.991"/>
      <point x="249.99" y="212.991" type="curve" smooth="yes"/>
      <point x="324.99" y="505.991" type="line" smooth="yes"/>
      <point x="327.99" y="519.991"/>
      <point x="345.99" y="524.991"/>
      <point x="370.99" y="524.991" type="curve" smooth="yes"/>
      <point x="384.99" y="524.991" type="line" smooth="yes"/>
      <point x="408.99" y="524.991"/>
      <point x="427.99" y="519.991"/>
      <point x="430.99" y="505.991" type="curve" smooth="yes"/>
      <point x="506.99" y="210.991" type="line" smooth="yes"/>
      <point x="507.51" y="208.761"/>
      <point x="508.01" y="206.601"/>
      <point x="508.49" y="204.501" type="curve" smooth="yes"/>
      <point x="516.46" y="170.011"/>
      <point x="520.28" y="153.451"/>
      <point x="525" y="127.991" type="curve"/>
      <point x="527.31" y="138.381"/>
      <point x="529.619" y="149.501"/>
      <point x="531.929" y="160.631" type="curve" smooth="yes"/>
      <point x="535.619" y="178.431"/>
      <point x="539.31" y="196.23"/>
      <point x="543" y="211" type="curve" smooth="yes"/>
      <point x="621" y="507" type="line" smooth="yes"/>
      <point x="624" y="520"/>
      <point x="643" y="525"/>
    </contour>
  </outline>
</glyph>
<glyph name="x" format="1">
  <advance width="485"/>
  <unicode hex="0078"/>
  <outline>
    <contour>
      <point x="413" y="525" type="line" smooth="yes"/>
      <point x="449" y="525"/>
      <point x="463.991" y="519"/>
      <point x="463.991" y="508" type="curve" smooth="yes"/>
      <point x="463.991" y="502"/>
      <point x="460.991" y="495"/>
      <point x="454.991" y="487" type="curve" smooth="yes"/>
      <point x="305.991" y="268" type="line"/>
      <point x="461.991" y="37" type="line" smooth="yes"/>
      <point x="467.991" y="28"/>
      <point x="470.991" y="21"/>
      <point x="470.991" y="15" type="curve" smooth="yes"/>
      <point x="470.991" y="4"/>
      <point x="455.991" y="-2"/>
      <point x="417.991" y="-2" type="curve" smooth="yes"/>
      <point x="398.991" y="-2" type="line" smooth="yes"/>
      <point x="373.991" y="-2"/>
      <point x="356.991" y="0"/>
      <point x="347.991" y="15" type="curve" smooth="yes"/>
      <point x="257.991" y="152" type="line" smooth="yes"/>
      <point x="248.991" y="166"/>
      <point x="243.991" y="174"/>
      <point x="239.991" y="181" type="curve"/>
      <point x="238.341" y="178.1"/>
      <point x="236.511" y="175.029"/>
      <point x="234.371" y="171.43" type="curve" smooth="yes"/>
      <point x="231.341" y="166.34"/>
      <point x="227.681" y="160.2"/>
      <point x="223.001" y="152" type="curve" smooth="yes"/>
      <point x="131.001" y="14" type="line" smooth="yes"/>
      <point x="122.001" y="0"/>
      <point x="103.001" y="-2"/>
      <point x="80.001" y="-2" type="curve" smooth="yes"/>
      <point x="65.001" y="-2" type="line" smooth="yes"/>
      <point x="28.001" y="-2"/>
      <point x="13.001" y="4"/>
      <point x="13.001" y="15" type="curve" smooth="yes"/>
      <point x="13.001" y="21"/>
      <point x="16.001" y="28"/>
      <point x="22.001" y="36" type="curve" smooth="yes"/>
      <point x="180.001" y="267" type="line"/>
      <point x="33.001" y="486" type="line" smooth="yes"/>
      <point x="27.001" y="495"/>
      <point x="24.001" y="502"/>
      <point x="24.001" y="508" type="curve" smooth="yes"/>
      <point x="24.001" y="519"/>
      <point x="39.001" y="525"/>
      <point x="77.001" y="525" type="curve" smooth="yes"/>
      <point x="96.001" y="525" type="line" smooth="yes"/>
      <point x="121.001" y="525"/>
      <point x="138.001" y="523"/>
      <point x="147.001" y="508" type="curve" smooth="yes"/>
      <point x="227.001" y="384" type="line" smooth="yes"/>
      <point x="233.511" y="374.59"/>
      <point x="237.931" y="367.27"/>
      <point x="241.771" y="360.92" type="curve" smooth="yes"/>
      <point x="243.24" y="358.49"/>
      <point x="244.62" y="356.21"/>
      <point x="246" y="354" type="curve"/>
      <point x="250" y="362"/>
      <point x="255" y="371"/>
      <point x="265" y="385" type="curve" smooth="yes"/>
      <point x="346" y="509" type="line" smooth="yes"/>
      <point x="355" y="523"/>
      <point x="374" y="525"/>
      <point x="398" y="525" type="curve" smooth="yes"/>
    </contour>
  </outline>
</glyph>
<glyph name="y" format="1">
  <advance width="481"/>
  <unicode hex="0079"/>
  <outline>
    <contour>
      <point x="420" y="525" type="line" smooth="yes"/>
      <point x="454" y="525"/>
      <point x="468.999" y="518"/>
      <point x="468.999" y="506" type="curve" smooth="yes"/>
      <point x="468.999" y="501"/>
      <point x="467.999" y="497"/>
      <point x="465.999" y="490" type="curve" smooth="yes"/>
      <point x="220.999" y="-186" type="line" smooth="yes"/>
      <point x="214.999" y="-202"/>
      <point x="196.999" y="-207"/>
      <point x="169.999" y="-207" type="curve" smooth="yes"/>
      <point x="153.999" y="-207" type="line" smooth="yes"/>
      <point x="123.999" y="-207"/>
      <point x="109.999" y="-200"/>
      <point x="109.999" y="-189" type="curve" smooth="yes"/>
      <point x="109.999" y="-186"/>
      <point x="109.999" y="-182"/>
      <point x="113.999" y="-172" type="curve" smooth="yes"/>
      <point x="188.999" y="16" type="line"/>
      <point x="17.999" y="491" type="line" smooth="yes"/>
      <point x="17.7891" y="491.83"/>
      <point x="17.5391" y="492.75"/>
      <point x="17.2695" y="493.72" type="curve" smooth="yes"/>
      <point x="16.25" y="497.45"/>
      <point x="15" y="502.04"/>
      <point x="15" y="506" type="curve" smooth="yes"/>
      <point x="15" y="518"/>
      <point x="31" y="525"/>
      <point x="66" y="525" type="curve" smooth="yes"/>
      <point x="84" y="525" type="line" smooth="yes"/>
      <point x="108" y="525"/>
      <point x="126" y="521"/>
      <point x="131" y="507" type="curve" smooth="yes"/>
      <point x="215" y="273" type="line" smooth="yes"/>
      <point x="224" y="245"/>
      <point x="236" y="200"/>
      <point x="245" y="164" type="curve"/>
      <point x="248" y="164" type="line"/>
      <point x="257" y="200"/>
      <point x="269" y="246"/>
      <point x="278" y="273" type="curve" smooth="yes"/>
      <point x="361" y="507" type="line" smooth="yes"/>
      <point x="365" y="521"/>
      <point x="384" y="525"/>
      <point x="408" y="525" type="curve" smooth="yes"/>
    </contour>
  </outline>
</glyph>
<glyph name="z" format="1">
  <advance width="489"/>
  <unicode hex="007A"/>
  <outline>
	<contour>
	  <point x="76" y="523" type="line" smooth="yes"/>
	  <point x="59" y="523"/>
	  <point x="51" y="511"/>
	  <point x="51" y="484" type="curve" smooth="yes"/>
	  <point x="51" y="470" type="line" smooth="yes"/>
	  <point x="51" y="443"/>
	  <point x="59" y="431"/>
	  <point x="76" y="431" type="curve" smooth="yes"/>
	  <point x="301" y="431" type="line"/>
	  <point x="36" y="74" type="line" smooth="yes"/>
	  <point x="34" y="71"/>
	  <point x="33" y="67"/>
	  <point x="33" y="62" type="curve" smooth="yes"/>
	  <point x="33" y="39"/>
	  <point x="48" y="0"/>
	  <point x="58" y="0" type="curve"/>
	  <point x="430" y="0" type="line" smooth="yes"/>
	  <point x="447" y="0"/>
	  <point x="454" y="12"/>
	  <point x="454" y="39" type="curve" smooth="yes"/>
	  <point x="454" y="53" type="line" smooth="yes"/>
	  <point x="454" y="80"/>
	  <point x="447" y="92"/>
	  <point x="430" y="92" type="curve" smooth="yes"/>
	  <point x="185" y="92" type="line"/>
	  <point x="449" y="448" type="line" smooth="yes"/>
	  <point x="451" y="450"/>
	  <point x="452" y="454"/>
	  <point x="452" y="460" type="curve" smooth="yes"/>
	  <point x="452" y="482"/>
	  <point x="438" y="523"/>
	  <point x="428" y="523" type="curve" smooth="yes"/>
	</contour>
	<contour>
	  <point x="245" y="523" type="move" name="top"/>
	</contour>
	<contour>
	  <point x="239" y="0" type="move" name="bottom"/>
	</contour>
  </outline>
</glyph>
<glyph name="braceleft" format="1">
  <advance width="274"/>
  <unicode hex="007B"/>
  <outline>
    <contour>
      <point x="182" y="768" type="line" smooth="yes"/>
      <point x="142" y="768"/>
      <point x="95" y="735"/>
      <point x="95" y="652" type="curve" smooth="yes"/>
      <point x="95" y="485" type="line" smooth="yes"/>
      <point x="95" y="418"/>
      <point x="86" y="380"/>
      <point x="46" y="363" type="curve" smooth="yes"/>
      <point x="28" y="354"/>
      <point x="19" y="343"/>
      <point x="19" y="322" type="curve" smooth="yes"/>
      <point x="19" y="308" type="line" smooth="yes"/>
      <point x="19" y="287"/>
      <point x="28" y="276"/>
      <point x="46" y="267" type="curve" smooth="yes"/>
      <point x="86" y="250"/>
      <point x="95" y="211"/>
      <point x="95" y="145" type="curve" smooth="yes"/>
      <point x="95" y="-22" type="line" smooth="yes"/>
      <point x="95" y="-106"/>
      <point x="142" y="-138"/>
      <point x="182" y="-138" type="curve" smooth="yes"/>
      <point x="227" y="-138" type="line" smooth="yes"/>
      <point x="244" y="-138"/>
      <point x="252" y="-128"/>
      <point x="252" y="-104" type="curve" smooth="yes"/>
      <point x="252" y="-96" type="line" smooth="yes"/>
      <point x="252" y="-72"/>
      <point x="244" y="-62"/>
      <point x="228" y="-62" type="curve" smooth="yes"/>
      <point x="215" y="-62" type="line" smooth="yes"/>
      <point x="192" y="-62"/>
      <point x="186" y="-44"/>
      <point x="186" y="-11" type="curve" smooth="yes"/>
      <point x="186" y="161" type="line" smooth="yes"/>
      <point x="186" y="251"/>
      <point x="140" y="300"/>
      <point x="112" y="314" type="curve"/>
      <point x="141" y="332"/>
      <point x="186" y="381"/>
      <point x="186" y="469" type="curve" smooth="yes"/>
      <point x="186" y="642" type="line" smooth="yes"/>
      <point x="186" y="675"/>
      <point x="193" y="692"/>
      <point x="218" y="692" type="curve" smooth="yes"/>
      <point x="229" y="692" type="line" smooth="yes"/>
      <point x="245" y="692"/>
      <point x="252" y="703"/>
      <point x="252" y="726" type="curve" smooth="yes"/>
      <point x="252" y="734" type="line" smooth="yes"/>
      <point x="252" y="758"/>
      <point x="244" y="768"/>
      <point x="227" y="768" type="curve" smooth="yes"/>
    </contour>
  </outline>
</glyph>
<glyph name="bar" format="1">
  <advance width="250"/>
  <unicode hex="007C"/>
  <outline>
    <contour>
      <point x="119" y="769" type="line" smooth="yes"/>
      <point x="94" y="769"/>
      <point x="84" y="761"/>
      <point x="84" y="744" type="curve" smooth="yes"/>
      <point x="84" y="-114" type="line" smooth="yes"/>
      <point x="84" y="-131"/>
      <point x="94" y="-139"/>
      <point x="119" y="-139" type="curve" smooth="yes"/>
      <point x="132" y="-139" type="line" smooth="yes"/>
      <point x="156" y="-139"/>
      <point x="167" y="-131"/>
      <point x="167" y="-114" type="curve" smooth="yes"/>
      <point x="167" y="744" type="line" smooth="yes"/>
      <point x="167" y="761"/>
      <point x="156" y="769"/>
      <point x="132" y="769" type="curve" smooth="yes"/>
    </contour>
  </outline>
</glyph>
<glyph name="braceright" format="1">
  <advance width="274"/>
  <unicode hex="007D"/>
  <outline>
	<contour>
	  <point x="49" y="768" type="line" smooth="yes"/>
	  <point x="32" y="768"/>
	  <point x="25" y="758"/>
	  <point x="25" y="734" type="curve" smooth="yes"/>
	  <point x="25" y="726" type="line" smooth="yes"/>
	  <point x="25" y="703"/>
	  <point x="31" y="692"/>
	  <point x="47" y="692" type="curve" smooth="yes"/>
	  <point x="60" y="692" type="line" smooth="yes"/>
	  <point x="85" y="692"/>
	  <point x="91" y="675"/>
	  <point x="91" y="642" type="curve" smooth="yes"/>
	  <point x="91" y="469" type="line" smooth="yes"/>
	  <point x="91" y="381"/>
	  <point x="136" y="332"/>
	  <point x="165" y="314" type="curve"/>
	  <point x="137" y="300"/>
	  <point x="91" y="251"/>
	  <point x="91" y="161" type="curve" smooth="yes"/>
	  <point x="91" y="-11" type="line" smooth="yes"/>
	  <point x="91" y="-43"/>
	  <point x="85" y="-62"/>
	  <point x="61" y="-62" type="curve" smooth="yes"/>
	  <point x="48" y="-62" type="line" smooth="yes"/>
	  <point x="32" y="-62"/>
	  <point x="25" y="-72"/>
	  <point x="25" y="-96" type="curve" smooth="yes"/>
	  <point x="25" y="-104" type="line" smooth="yes"/>
	  <point x="25" y="-128"/>
	  <point x="32" y="-138"/>
	  <point x="49" y="-138" type="curve" smooth="yes"/>
	  <point x="95" y="-138" type="line" smooth="yes"/>
	  <point x="135" y="-138"/>
	  <point x="182" y="-106"/>
	  <point x="182" y="-22" type="curve" smooth="yes"/>
	  <point x="182" y="145" type="line" smooth="yes"/>
	  <point x="182" y="211"/>
	  <point x="191" y="250"/>
	  <point x="231" y="267" type="curve" smooth="yes"/>
	  <point x="248" y="276"/>
	  <point x="258" y="287"/>
	  <point x="258" y="308" type="curve" smooth="yes"/>
	  <point x="258" y="322" type="line" smooth="yes"/>
	  <point x="258" y="343"/>
	  <point x="248" y="354"/>
	  <point x="231" y="363" type="curve" smooth="yes"/>
	  <point x="191" y="380"/>
	  <point x="182" y="418"/>
	  <point x="182" y="485" type="curve" smooth="yes"/>
	  <point x="182" y="652" type="line" smooth="yes"/>
	  <point x="182" y="735"/>
	  <point x="135" y="768"/>
	  <point x="95" y="768" type="curve" smooth="yes"/>
	</contour>
  </outline>
</glyph>
<glyph name="asciitilde" format="1">
  <advance width="547"/>
  <unicode hex="007E"/>
  <outline>
    <contour>
      <point x="419" y="311" type="curve" smooth="yes"/>
      <point x="425.36" y="314.4"/>
      <point x="432.279" y="316.158"/>
      <point x="439.039" y="316.158" type="curve" smooth="yes"/>
      <point x="448.199" y="316.158"/>
      <point x="457.1" y="312.898"/>
      <point x="464" y="305.988" type="curve" smooth="yes"/>
      <point x="471.56" y="298.429"/>
      <point x="475.17" y="291.659"/>
      <point x="475.17" y="284.979" type="curve" smooth="yes"/>
      <point x="475.17" y="276.64"/>
      <point x="469.55" y="268.43"/>
      <point x="459" y="258.989" type="curve" smooth="yes"/>
      <point x="426" y="235.989"/>
      <point x="384" y="217.989"/>
      <point x="336" y="217.989" type="curve" smooth="yes"/>
      <point x="293" y="217.989"/>
      <point x="271" y="225.989"/>
      <point x="250" y="233.989" type="curve" smooth="yes"/>
      <point x="248.46" y="234.56"/>
      <point x="246.95" y="235.13"/>
      <point x="245.46" y="235.68" type="curve" smooth="yes"/>
      <point x="228.66" y="241.93"/>
      <point x="215.05" y="247"/>
      <point x="193" y="247" type="curve" smooth="yes"/>
      <point x="168.6" y="247"/>
      <point x="148.6" y="238.19"/>
      <point x="133" y="231.32" type="curve" smooth="yes"/>
      <point x="131.98" y="230.87"/>
      <point x="130.98" y="230.43"/>
      <point x="130" y="230" type="curve" smooth="yes"/>
      <point x="123.63" y="226.46"/>
      <point x="117.38" y="224.8"/>
      <point x="111.34" y="224.8" type="curve" smooth="yes"/>
      <point x="100.34" y="224.8"/>
      <point x="90.0498" y="230.31"/>
      <point x="81.0098" y="240" type="curve" smooth="yes"/>
      <point x="75.79" y="246.02"/>
      <point x="73.4697" y="251.88"/>
      <point x="73.4697" y="257.45" type="curve" smooth="yes"/>
      <point x="73.4697" y="265.75"/>
      <point x="78.6201" y="273.41"/>
      <point x="87" y="280" type="curve" smooth="yes"/>
      <point x="121" y="301"/>
      <point x="161" y="320"/>
      <point x="209" y="320" type="curve" smooth="yes"/>
      <point x="249.79" y="320"/>
      <point x="270.86" y="311.78"/>
      <point x="290.08" y="304.29" type="curve" smooth="yes"/>
      <point x="292.07" y="303.51"/>
      <point x="294.03" y="302.75"/>
      <point x="296" y="302" type="curve" smooth="yes"/>
      <point x="313" y="296"/>
      <point x="329" y="291"/>
      <point x="352" y="291" type="curve" smooth="yes"/>
      <point x="358.4" y="291"/>
      <point x="364.49" y="291.54"/>
      <point x="370.34" y="292.53" type="curve" smooth="yes"/>
      <point x="388.27" y="295.55"/>
      <point x="403.92" y="302.7"/>
    </contour>
  </outline>
</glyph>
<glyph name="exclamdown" format="1">
  <advance width="294"/>
  <unicode hex="00A1"/>
  <outline>
<<<<<<< HEAD
    <contour>
      <point x="160" y="525" type="line" smooth="yes"/>
      <point x="194" y="525"/>
      <point x="209" y="516"/>
      <point x="209" y="499" type="curve" smooth="yes"/>
      <point x="209" y="421" type="line" smooth="yes"/>
      <point x="209" y="404"/>
      <point x="194" y="395"/>
      <point x="160" y="395" type="curve" smooth="yes"/>
      <point x="137" y="395" type="line" smooth="yes"/>
      <point x="103" y="395"/>
      <point x="88" y="404"/>
      <point x="88" y="421" type="curve" smooth="yes"/>
      <point x="88" y="499" type="line" smooth="yes"/>
      <point x="88" y="516"/>
      <point x="103" y="525"/>
      <point x="137" y="525" type="curve" smooth="yes"/>
    </contour>
    <contour>
      <point x="155" y="312" type="line" smooth="yes"/>
      <point x="184" y="312"/>
      <point x="194" y="303"/>
      <point x="194" y="285" type="curve" smooth="yes"/>
      <point x="194" y="-153" type="line" smooth="yes"/>
      <point x="194" y="-170"/>
      <point x="179" y="-179"/>
      <point x="145" y="-179" type="curve" smooth="yes"/>
      <point x="115" y="-179" type="line" smooth="yes"/>
      <point x="82" y="-179"/>
      <point x="67" y="-171"/>
      <point x="67" y="-155" type="curve" smooth="yes"/>
      <point x="67" y="-140.85"/>
      <point x="76.4502" y="-32.8896"/>
      <point x="86.5303" y="82.1006" type="curve" smooth="yes"/>
      <point x="92.8301" y="154.07"/>
      <point x="99.3799" y="228.79"/>
      <point x="104" y="285" type="curve" smooth="yes"/>
      <point x="106" y="303"/>
      <point x="114" y="312"/>
      <point x="144" y="312" type="curve" smooth="yes"/>
    </contour>
  </outline>
</glyph>
<glyph name="cent" format="1">
  <advance width="486"/>
  <unicode hex="00A2"/>
  <outline>
    <contour>
      <point x="273" y="585"/>
      <point x="266" y="578"/>
      <point x="266" y="563" type="curve" smooth="yes"/>
      <point x="266" y="529" type="line"/>
      <point x="138" y="521"/>
      <point x="49" y="446"/>
      <point x="49" y="261" type="curve" smooth="yes"/>
      <point x="49" y="85"/>
      <point x="121" y="2"/>
      <point x="266" y="-6" type="curve"/>
      <point x="266" y="-54" type="line" smooth="yes"/>
      <point x="266" y="-70"/>
      <point x="273" y="-76"/>
      <point x="290" y="-76" type="curve" smooth="yes"/>
      <point x="306" y="-76"/>
      <point x="313" y="-70"/>
      <point x="313" y="-54" type="curve" smooth="yes"/>
      <point x="313" y="-6" type="line"/>
      <point x="381" y="-2"/>
      <point x="454" y="20"/>
      <point x="454" y="52" type="curve" smooth="yes"/>
      <point x="454" y="69"/>
      <point x="430" y="114"/>
      <point x="413" y="114" type="curve" smooth="yes"/>
      <point x="403" y="114"/>
      <point x="371" y="90"/>
      <point x="313" y="85" type="curve"/>
      <point x="313" y="437" type="line"/>
      <point x="365" y="432"/>
      <point x="394" y="410"/>
      <point x="403" y="410" type="curve" smooth="yes"/>
      <point x="417" y="410"/>
      <point x="444" y="457"/>
      <point x="444" y="474" type="curve" smooth="yes"/>
      <point x="444" y="503"/>
      <point x="379" y="525"/>
      <point x="313" y="529" type="curve"/>
      <point x="313" y="563" type="line" smooth="yes"/>
      <point x="313" y="578"/>
      <point x="306" y="585"/>
      <point x="289" y="585" type="curve" smooth="yes"/>
    </contour>
    <contour>
      <point x="266" y="87" type="line"/>
      <point x="193" y="99"/>
      <point x="165" y="154"/>
      <point x="165" y="264" type="curve" smooth="yes"/>
      <point x="165" y="374"/>
      <point x="202" y="425"/>
      <point x="266" y="435" type="curve"/>
    </contour>
  </outline>
</glyph>
<glyph name="sterling" format="1">
  <advance width="491"/>
  <unicode hex="00A3"/>
  <outline>
	<contour>
	  <point x="173" y="707"/>
	  <point x="108" y="631"/>
	  <point x="108" y="500" type="curve" smooth="yes"/>
	  <point x="108" y="418" type="line"/>
	  <point x="62" y="418" type="line" smooth="yes"/>
	  <point x="45" y="418"/>
	  <point x="38" y="407"/>
	  <point x="38" y="380" type="curve" smooth="yes"/>
	  <point x="38" y="366" type="line" smooth="yes"/>
	  <point x="38" y="338"/>
	  <point x="45" y="327"/>
	  <point x="62" y="327" type="curve" smooth="yes"/>
	  <point x="108" y="327" type="line"/>
	  <point x="108" y="166" type="line" smooth="yes"/>
	  <point x="108" y="88"/>
	  <point x="26" y="94"/>
	  <point x="26" y="52" type="curve" smooth="yes"/>
	  <point x="26" y="34" type="line" smooth="yes"/>
	  <point x="26" y="10"/>
	  <point x="35" y="0"/>
	  <point x="55" y="0" type="curve" smooth="yes"/>
	  <point x="423" y="0" type="line" smooth="yes"/>
	  <point x="440" y="0"/>
	  <point x="448" y="12"/>
	  <point x="448" y="39" type="curve" smooth="yes"/>
	  <point x="448" y="53" type="line" smooth="yes"/>
	  <point x="448" y="80"/>
	  <point x="440" y="92"/>
	  <point x="423" y="92" type="curve" smooth="yes"/>
	  <point x="168" y="92" type="line"/>
	  <point x="192" y="111"/>
	  <point x="218" y="145"/>
	  <point x="218" y="250" type="curve" smooth="yes"/>
	  <point x="218" y="327" type="line"/>
	  <point x="348" y="327" type="line" smooth="yes"/>
	  <point x="365" y="327"/>
	  <point x="373" y="338"/>
	  <point x="373" y="366" type="curve" smooth="yes"/>
	  <point x="373" y="380" type="line" smooth="yes"/>
	  <point x="373" y="407"/>
	  <point x="365" y="418"/>
	  <point x="348" y="418" type="curve" smooth="yes"/>
	  <point x="218" y="418" type="line"/>
	  <point x="218" y="505" type="line" smooth="yes"/>
	  <point x="218" y="584"/>
	  <point x="255" y="617"/>
	  <point x="335" y="617" type="curve" smooth="yes"/>
	  <point x="368" y="617"/>
	  <point x="392" y="609"/>
	  <point x="399" y="609" type="curve" smooth="yes"/>
	  <point x="415" y="609"/>
	  <point x="428" y="651"/>
	  <point x="428" y="669" type="curve" smooth="yes"/>
	  <point x="428" y="704"/>
	  <point x="355" y="707"/>
	  <point x="324" y="707" type="curve" smooth="yes"/>
	</contour>
  </outline>
</glyph>
<glyph name="currency" format="1">
  <advance width="534"/>
  <unicode hex="00A4"/>
  <outline>
    <contour>
      <point x="102" y="507"/>
      <point x="95" y="503"/>
      <point x="89" y="497" type="curve" smooth="yes"/>
      <point x="74" y="481" type="line" smooth="yes"/>
      <point x="68" y="475"/>
      <point x="65" y="467"/>
      <point x="65" y="461" type="curve" smooth="yes"/>
      <point x="65" y="453"/>
      <point x="68" y="445"/>
      <point x="76" y="438" type="curve" smooth="yes"/>
      <point x="101" y="413" type="line"/>
      <point x="80" y="383"/>
      <point x="69" y="346"/>
      <point x="69" y="308" type="curve" smooth="yes"/>
      <point x="69" y="268"/>
      <point x="80" y="233"/>
      <point x="100" y="203" type="curve"/>
      <point x="77" y="180" type="line" smooth="yes"/>
      <point x="70" y="173"/>
      <point x="66" y="165"/>
      <point x="66" y="157" type="curve" smooth="yes"/>
      <point x="66" y="150"/>
      <point x="69" y="143"/>
      <point x="75" y="137" type="curve" smooth="yes"/>
      <point x="90" y="122" type="line" smooth="yes"/>
      <point x="97" y="115"/>
      <point x="104" y="112"/>
      <point x="111" y="112" type="curve" smooth="yes"/>
      <point x="119" y="112"/>
      <point x="126" y="115"/>
      <point x="134" y="123" type="curve" smooth="yes"/>
      <point x="157" y="146" type="line"/>
      <point x="187" y="127"/>
      <point x="223" y="116"/>
      <point x="261" y="116" type="curve" smooth="yes"/>
      <point x="300" y="116"/>
      <point x="336" y="127"/>
      <point x="366" y="147" type="curve"/>
      <point x="390" y="123" type="line" smooth="yes"/>
      <point x="397" y="115"/>
      <point x="405" y="112"/>
      <point x="412" y="112" type="curve" smooth="yes"/>
      <point x="420" y="112"/>
      <point x="427" y="116"/>
      <point x="433" y="122" type="curve" smooth="yes"/>
      <point x="447" y="136" type="line" smooth="yes"/>
      <point x="453" y="142"/>
      <point x="458" y="151"/>
      <point x="458" y="158" type="curve" smooth="yes"/>
      <point x="458" y="165"/>
      <point x="454" y="173"/>
      <point x="447" y="180" type="curve" smooth="yes"/>
      <point x="423" y="204" type="line"/>
      <point x="442" y="234"/>
      <point x="454" y="269"/>
      <point x="454" y="308" type="curve" smooth="yes"/>
      <point x="454" y="346"/>
      <point x="442" y="382"/>
      <point x="422" y="412" type="curve"/>
      <point x="448" y="438" type="line" smooth="yes"/>
      <point x="456" y="446"/>
      <point x="459" y="454"/>
      <point x="459" y="461" type="curve" smooth="yes"/>
      <point x="459" y="468"/>
      <point x="456" y="475"/>
      <point x="449" y="482" type="curve" smooth="yes"/>
      <point x="435" y="496" type="line" smooth="yes"/>
      <point x="428" y="503"/>
      <point x="420" y="506"/>
      <point x="413" y="506" type="curve" smooth="yes"/>
      <point x="406" y="506"/>
      <point x="398" y="502"/>
      <point x="391" y="495" type="curve" smooth="yes"/>
      <point x="365" y="469" type="line"/>
      <point x="335" y="488"/>
      <point x="299" y="500"/>
      <point x="261" y="500" type="curve" smooth="yes"/>
      <point x="223" y="500"/>
      <point x="188" y="488"/>
      <point x="158" y="469" type="curve"/>
      <point x="132" y="495" type="line" smooth="yes"/>
      <point x="125" y="503"/>
      <point x="117" y="507"/>
      <point x="109" y="507" type="curve" smooth="yes"/>
    </contour>
    <contour>
      <point x="321" y="416"/>
      <point x="370" y="367"/>
      <point x="370" y="308" type="curve" smooth="yes"/>
      <point x="370" y="248"/>
      <point x="321" y="200"/>
      <point x="262" y="200" type="curve" smooth="yes"/>
      <point x="202" y="200"/>
      <point x="154" y="248"/>
      <point x="154" y="308" type="curve" smooth="yes"/>
      <point x="154" y="367"/>
      <point x="202" y="416"/>
      <point x="262" y="416" type="curve" smooth="yes"/>
    </contour>
  </outline>
</glyph>
<glyph name="yen" format="1">
  <advance width="559"/>
  <unicode hex="00A5"/>
  <outline>
    <contour>
      <point x="552" y="684" type="curve" smooth="yes"/>
      <point x="552" y="678.76"/>
      <point x="548.949" y="672.76"/>
      <point x="545.52" y="666" type="curve" smooth="yes"/>
      <point x="545.02" y="665.01"/>
      <point x="544.51" y="664.01"/>
      <point x="544" y="663" type="curve" smooth="yes"/>
      <point x="384.14" y="417" type="line"/>
      <point x="490" y="417" type="line" smooth="yes"/>
      <point x="507" y="417"/>
      <point x="515" y="408"/>
      <point x="515" y="387" type="curve" smooth="yes"/>
      <point x="515" y="376" type="line" smooth="yes"/>
      <point x="515" y="355"/>
      <point x="507" y="345"/>
      <point x="490" y="345" type="curve" smooth="yes"/>
      <point x="338" y="345.36" type="line"/>
      <point x="338" y="264" type="line"/>
      <point x="490" y="264" type="line" smooth="yes"/>
      <point x="507" y="264"/>
      <point x="515" y="255"/>
      <point x="515" y="234" type="curve" smooth="yes"/>
      <point x="515" y="223" type="line" smooth="yes"/>
      <point x="515" y="202"/>
      <point x="507" y="193"/>
      <point x="490" y="193" type="curve" smooth="yes"/>
      <point x="338" y="193" type="line"/>
      <point x="338" y="24" type="line" smooth="yes"/>
      <point x="338" y="7"/>
      <point x="324" y="-2"/>
      <point x="290" y="-2" type="curve" smooth="yes"/>
      <point x="270" y="-2" type="line" smooth="yes"/>
      <point x="236" y="-2"/>
      <point x="222" y="7"/>
      <point x="222" y="24" type="curve" smooth="yes"/>
      <point x="222" y="193" type="line"/>
      <point x="69" y="193" type="line" smooth="yes"/>
      <point x="52" y="193"/>
      <point x="45" y="202"/>
      <point x="45" y="223" type="curve" smooth="yes"/>
      <point x="45" y="234" type="line" smooth="yes"/>
      <point x="45" y="255"/>
      <point x="52" y="264"/>
      <point x="69" y="264" type="curve" smooth="yes"/>
      <point x="222" y="264" type="line"/>
      <point x="222" y="345.63" type="line"/>
      <point x="69" y="346" type="line" smooth="yes"/>
      <point x="52" y="346"/>
      <point x="45" y="355"/>
      <point x="45" y="376" type="curve" smooth="yes"/>
      <point x="45" y="387" type="line" smooth="yes"/>
      <point x="45" y="408"/>
      <point x="52" y="417"/>
      <point x="69" y="417" type="curve" smooth="yes"/>
      <point x="177.6" y="417" type="line"/>
      <point x="17" y="663" type="line" smooth="yes"/>
      <point x="11" y="671"/>
      <point x="8" y="678"/>
      <point x="8" y="684" type="curve" smooth="yes"/>
      <point x="8" y="695"/>
      <point x="23" y="702"/>
      <point x="62" y="702" type="curve" smooth="yes"/>
      <point x="87" y="702" type="line" smooth="yes"/>
      <point x="111" y="702"/>
      <point x="129" y="699"/>
      <point x="137" y="685" type="curve" smooth="yes"/>
      <point x="283" y="453" type="line"/>
      <point x="431" y="686" type="line" smooth="yes"/>
      <point x="439" y="699"/>
      <point x="459" y="702"/>
      <point x="483" y="702" type="curve" smooth="yes"/>
      <point x="502" y="702" type="line" smooth="yes"/>
      <point x="537" y="701"/>
      <point x="552" y="695"/>
    </contour>
  </outline>
</glyph>
<glyph name="brokenbar" format="1">
  <advance width="250"/>
  <unicode hex="00A6"/>
  <outline>
	<contour>
	  <point x="119" y="770" type="line" smooth="yes"/>
	  <point x="94" y="770"/>
	  <point x="84" y="761"/>
	  <point x="84" y="744" type="curve" smooth="yes"/>
	  <point x="84" y="419" type="line" smooth="yes"/>
	  <point x="84" y="402"/>
	  <point x="94" y="393"/>
	  <point x="119" y="393" type="curve"/>
	  <point x="132" y="393" type="line" smooth="yes"/>
	  <point x="156" y="393"/>
	  <point x="167" y="402"/>
	  <point x="167" y="419" type="curve" smooth="yes"/>
	  <point x="167" y="744" type="line" smooth="yes"/>
	  <point x="167" y="761"/>
	  <point x="156" y="770"/>
	  <point x="132" y="770" type="curve" smooth="yes"/>
	</contour>
	<contour>
	  <point x="119" y="236" type="line" smooth="yes"/>
	  <point x="94" y="236"/>
	  <point x="84" y="227"/>
	  <point x="84" y="210" type="curve" smooth="yes"/>
	  <point x="84" y="-114" type="line" smooth="yes"/>
	  <point x="84" y="-131"/>
	  <point x="94" y="-140"/>
	  <point x="119" y="-140" type="curve" smooth="yes"/>
	  <point x="132" y="-140" type="line" smooth="yes"/>
	  <point x="156" y="-140"/>
	  <point x="167" y="-131"/>
	  <point x="167" y="-114" type="curve" smooth="yes"/>
	  <point x="167" y="210" type="line" smooth="yes"/>
	  <point x="167" y="227"/>
	  <point x="156" y="236"/>
	  <point x="132" y="236" type="curve" smooth="yes"/>
	</contour>
  </outline>
</glyph>
<glyph name="section" format="1">
  <advance width="429"/>
  <unicode hex="00A7"/>
  <outline>
	<contour>
	  <point x="132" y="707"/>
	  <point x="55" y="659"/>
	  <point x="55" y="560" type="curve" smooth="yes"/>
	  <point x="55" y="516"/>
	  <point x="71" y="487"/>
	  <point x="93" y="467" type="curve"/>
	  <point x="66" y="440"/>
	  <point x="47" y="402"/>
	  <point x="47" y="355" type="curve" smooth="yes"/>
	  <point x="47" y="167"/>
	  <point x="263" y="220"/>
	  <point x="263" y="132" type="curve" smooth="yes"/>
	  <point x="263" y="104"/>
	  <point x="241" y="85"/>
	  <point x="193" y="85" type="curve" smooth="yes"/>
	  <point x="143" y="85"/>
	  <point x="112" y="107"/>
	  <point x="105" y="107" type="curve" smooth="yes"/>
	  <point x="89" y="107"/>
	  <point x="68" y="59"/>
	  <point x="68" y="45" type="curve" smooth="yes"/>
	  <point x="68" y="8"/>
	  <point x="154" y="-6"/>
	  <point x="207" y="-6" type="curve" smooth="yes"/>
	  <point x="300" y="-6"/>
	  <point x="377" y="41"/>
	  <point x="377" y="142" type="curve" smooth="yes"/>
	  <point x="377" y="185"/>
	  <point x="361" y="213"/>
	  <point x="338" y="234" type="curve"/>
	  <point x="367" y="260"/>
	  <point x="385" y="298"/>
	  <point x="385" y="346" type="curve" smooth="yes"/>
	  <point x="385" y="534"/>
	  <point x="169" y="480"/>
	  <point x="169" y="568" type="curve" smooth="yes"/>
	  <point x="169" y="597"/>
	  <point x="191" y="616"/>
	  <point x="239" y="616" type="curve" smooth="yes"/>
	  <point x="289" y="616"/>
	  <point x="320" y="593"/>
	  <point x="327" y="593" type="curve" smooth="yes"/>
	  <point x="343" y="593"/>
	  <point x="364" y="641"/>
	  <point x="364" y="656" type="curve" smooth="yes"/>
	  <point x="364" y="693"/>
	  <point x="278" y="707"/>
	  <point x="225" y="707" type="curve" smooth="yes"/>
	</contour>
	<contour>
	  <point x="235" y="408"/>
	  <point x="279" y="392"/>
	  <point x="279" y="340" type="curve" smooth="yes"/>
	  <point x="279" y="305"/>
	  <point x="263" y="287"/>
	  <point x="244" y="277" type="curve"/>
	  <point x="194" y="293"/>
	  <point x="151" y="309"/>
	  <point x="151" y="362" type="curve" smooth="yes"/>
	  <point x="151" y="395"/>
	  <point x="168" y="413"/>
	  <point x="186" y="424" type="curve"/>
	</contour>
  </outline>
</glyph>
<glyph name="dieresis" format="1">
  <advance width="320"/>
  <unicode hex="00A8"/>
  <outline>
<<<<<<< HEAD
    <contour>
      <point x="82" y="702" type="curve" smooth="yes"/>
      <point x="116" y="702"/>
      <point x="131" y="693"/>
      <point x="131" y="676" type="curve" smooth="yes"/>
      <point x="131" y="621" type="line" smooth="yes"/>
      <point x="131" y="604"/>
      <point x="116" y="594"/>
      <point x="80" y="594" type="curve" smooth="yes"/>
      <point x="46" y="594"/>
      <point x="31" y="604"/>
      <point x="31" y="621" type="curve" smooth="yes"/>
      <point x="31" y="676" type="line" smooth="yes"/>
      <point x="31" y="692"/>
      <point x="46" y="702"/>
    </contour>
    <contour>
      <point x="242" y="702" type="curve" smooth="yes"/>
      <point x="276" y="702"/>
      <point x="291" y="693"/>
      <point x="291" y="676" type="curve" smooth="yes"/>
      <point x="291" y="621" type="line" smooth="yes"/>
      <point x="291" y="604"/>
      <point x="276" y="594"/>
      <point x="240" y="594" type="curve" smooth="yes"/>
      <point x="206" y="594"/>
      <point x="191" y="604"/>
      <point x="191" y="621" type="curve" smooth="yes"/>
      <point x="191" y="676" type="line" smooth="yes"/>
      <point x="191" y="692"/>
      <point x="206" y="702"/>
    </contour>
  </outline>
</glyph>
<glyph name="copyright" format="1">
  <advance width="739"/>
  <unicode hex="00A9"/>
  <outline>
	<contour>
	  <point x="170" y="709"/>
	  <point x="10" y="551"/>
	  <point x="10" y="352" type="curve" smooth="yes"/>
	  <point x="10" y="154"/>
	  <point x="170" y="-6"/>
	  <point x="369" y="-6" type="curve" smooth="yes"/>
	  <point x="567" y="-6"/>
	  <point x="728" y="154"/>
	  <point x="728" y="352" type="curve" smooth="yes"/>
	  <point x="728" y="551"/>
	  <point x="567" y="709"/>
	  <point x="369" y="709" type="curve" smooth="yes"/>
	</contour>
	<contour>
	  <point x="259" y="558"/>
	  <point x="195" y="489"/>
	  <point x="195" y="351" type="curve" smooth="yes"/>
	  <point x="195" y="209"/>
	  <point x="256" y="144"/>
	  <point x="384" y="144" type="curve" smooth="yes"/>
	  <point x="442" y="144"/>
	  <point x="508" y="164"/>
	  <point x="508" y="188" type="curve" smooth="yes"/>
	  <point x="508" y="196"/>
	  <point x="494" y="228"/>
	  <point x="481" y="228" type="curve" smooth="yes"/>
	  <point x="473" y="228"/>
	  <point x="442" y="201"/>
	  <point x="384" y="201" type="curve" smooth="yes"/>
	  <point x="303" y="201"/>
	  <point x="264" y="249"/>
	  <point x="264" y="351" type="curve" smooth="yes"/>
	  <point x="264" y="453"/>
	  <point x="303" y="500"/>
	  <point x="386" y="500" type="curve" smooth="yes"/>
	  <point x="441" y="500"/>
	  <point x="467" y="477"/>
	  <point x="473" y="477" type="curve" smooth="yes"/>
	  <point x="484" y="477"/>
	  <point x="501" y="507"/>
	  <point x="501" y="520" type="curve" smooth="yes"/>
	  <point x="501" y="539"/>
	  <point x="441" y="558"/>
	  <point x="386" y="558" type="curve" smooth="yes"/>
	</contour>
	<contour>
	  <point x="536" y="654"/>
	  <point x="673" y="520"/>
	  <point x="673" y="352" type="curve" smooth="yes"/>
	  <point x="673" y="185"/>
	  <point x="536" y="49"/>
	  <point x="369" y="49" type="curve" smooth="yes"/>
	  <point x="202" y="49"/>
	  <point x="65" y="185"/>
	  <point x="65" y="352" type="curve" smooth="yes"/>
	  <point x="65" y="520"/>
	  <point x="202" y="654"/>
	  <point x="369" y="654" type="curve" smooth="yes"/>
	</contour>
  </outline>
</glyph>
<glyph name="ordfeminine" format="1">
  <advance width="319"/>
  <unicode hex="00AA"/>
  <outline>
<<<<<<< HEAD
    <contour>
      <point x="153" y="707" type="curve" smooth="yes"/>
      <point x="221" y="707"/>
      <point x="254.001" y="674.998"/>
      <point x="254.001" y="626.998" type="curve" smooth="yes"/>
      <point x="254.001" y="522.998" type="line" smooth="yes"/>
      <point x="254.001" y="490.038"/>
      <point x="257.221" y="473.168"/>
      <point x="258.94" y="464.148" type="curve" smooth="yes"/>
      <point x="259.57" y="460.849"/>
      <point x="260" y="458.599"/>
      <point x="260" y="456.999" type="curve" smooth="yes"/>
      <point x="260" y="445.999"/>
      <point x="230" y="443.999"/>
      <point x="221" y="443.999" type="curve" smooth="yes"/>
      <point x="208.02" y="443.999"/>
      <point x="205.359" y="462.069"/>
      <point x="203.439" y="475.06" type="curve" smooth="yes"/>
      <point x="203.289" y="476.069"/>
      <point x="203.149" y="477.06"/>
      <point x="202.999" y="478" type="curve"/>
      <point x="190.999" y="464"/>
      <point x="164.999" y="441"/>
      <point x="122.999" y="441" type="curve" smooth="yes"/>
      <point x="73.999" y="441"/>
      <point x="43.999" y="468"/>
      <point x="43.999" y="514" type="curve" smooth="yes"/>
      <point x="43.999" y="579"/>
      <point x="100.999" y="604"/>
      <point x="198.999" y="605" type="curve"/>
      <point x="198.999" y="626" type="line" smooth="yes"/>
      <point x="198.999" y="647"/>
      <point x="185.999" y="661"/>
      <point x="150.999" y="661" type="curve" smooth="yes"/>
      <point x="120.609" y="661"/>
      <point x="99.0098" y="651.11"/>
      <point x="87.8301" y="645.99" type="curve" smooth="yes"/>
      <point x="83.9297" y="644.2"/>
      <point x="81.29" y="643"/>
      <point x="80" y="643" type="curve" smooth="yes"/>
      <point x="72" y="643"/>
      <point x="59" y="666"/>
      <point x="59" y="674" type="curve" smooth="yes"/>
      <point x="59" y="688"/>
      <point x="101" y="707"/>
    </contour>
    <contour>
      <point x="199.001" y="563.998" type="line"/>
      <point x="149.001" y="563.998"/>
      <point x="101.001" y="558.998"/>
      <point x="101.001" y="518.998" type="curve" smooth="yes"/>
      <point x="101.001" y="497.998"/>
      <point x="112.001" y="486.998"/>
      <point x="135.001" y="486.998" type="curve" smooth="yes"/>
      <point x="164.001" y="486.998"/>
      <point x="184.001" y="500.998"/>
      <point x="199.001" y="518.998" type="curve"/>
    </contour>
  </outline>
</glyph>
